<svg width="24" height="24" viewBox="0 0 24 24" fill="none" xmlns="http://www.w3.org/2000/svg">
<path d="M12 1.5C6.20156 1.5 1.5 6.20156 1.5 12C1.5 17.7984 6.20156 22.5 12 22.5C17.7984 22.5 22.5 17.7984 22.5 12C22.5 6.20156 17.7984 1.5 12 1.5ZM12 20.7188C7.18594 20.7188 3.28125 16.8141 3.28125 12C3.28125 7.18594 7.18594 3.28125 12 3.28125C16.8141 3.28125 20.7188 7.18594 20.7188 12C20.7188 16.8141 16.8141 20.7188 12 20.7188Z" fill="#12202B"/>
<path d="M16.8609 11.6977L9.9211 6.65865C9.86544 6.61785 9.79954 6.59331 9.73075 6.58776C9.66197 6.5822 9.59299 6.59586 9.53151 6.62721C9.47002 6.65856 9.41846 6.70637 9.38255 6.7653C9.34664 6.82423 9.3278 6.89198 9.32813 6.96099V17.0391C9.32813 17.3462 9.675 17.5196 9.9211 17.3415L16.8609 12.3024C16.9089 12.2679 16.9479 12.2225 16.9748 12.1699C17.0017 12.1173 17.0157 12.0591 17.0157 12.0001C17.0157 11.941 17.0017 11.8828 16.9748 11.8302C16.9479 11.7777 16.9089 11.7323 16.8609 11.6977V11.6977ZM10.8234 14.8384V9.16178L14.7305 12.0001L10.8234 14.8384V14.8384Z" fill="#12202B"/>
</svg>
