<svg width="36" height="36" viewBox="0 0 36 36" fill="none" xmlns="http://www.w3.org/2000/svg">
<path fill-rule="evenodd" clip-rule="evenodd" d="M13.5854 22.2917C8.60512 22.6544 4.23379 18.8525 3.87155 13.7421C3.50931 8.63171 7.29953 4.23552 12.2799 3.87289C17.2602 3.51025 21.6315 7.31215 21.9936 12.4225C22.3559 17.5329 18.5657 21.929 13.5854 22.2917ZM0.0335994 14.0215C0.542678 21.2035 6.70959 26.6507 13.8575 26.1302C16.5247 25.9359 18.9394 24.9392 20.8923 23.3927C20.9883 23.5779 21.1161 23.7501 21.275 23.9012L32.4517 34.5185C33.2669 35.2928 34.5706 35.2041 35.2762 34.3261L35.5746 33.955C36.2024 33.1738 36.1274 32.0427 35.402 31.354L24.2227 20.7407C24.0553 20.582 23.8675 20.4596 23.6685 20.3729C25.2247 18.0305 26.0459 15.1663 25.8318 12.143C25.3226 4.96105 19.1557 -0.486072 12.0078 0.0344053C4.85984 0.554875 -0.475487 6.83952 0.0335994 14.0215Z" fill="#12202B"/>
</svg>
