<svg width="127" height="96" viewBox="0 0 127 96" fill="none" xmlns="http://www.w3.org/2000/svg">
<path d="M65.0468 95.1006V86.2592C65.0468 84.754 65.0193 82.039 59.8808 82.039C57.931 82.039 56.5994 82.4211 55.884 82.6534C55.0146 82.932 54.7297 83.2635 54.7297 83.7026V95.1238C54.7297 95.563 54.8584 95.6115 55.2193 95.6115H56.4728C56.8273 95.6115 57.0109 95.563 57.0109 95.1006V84.5998C57.0109 84.0066 57.9795 83.4239 59.7774 83.4239C62.7677 83.4239 62.7677 85.3408 62.7677 86.5463V95.1006C62.7677 95.563 62.9196 95.6115 63.3332 95.6115H64.7429C65.0214 95.563 65.0468 95.3286 65.0468 95.1006Z" fill="#12202B"/>
<path d="M78.599 89.0311C78.599 85.9573 77.6219 83.9855 76.1384 82.989C75.2141 82.3473 73.9839 82.039 72.8042 82.039C71.633 82.039 70.4006 82.3473 69.4806 82.989C67.997 83.9855 67.0263 85.9573 67.0263 89.0311C67.0263 92.0796 67.997 94.0493 69.4806 95.0479C70.4027 95.6875 71.6351 96 72.8042 96C73.9839 96 75.2163 95.6875 76.1384 95.0479C77.6219 94.0493 78.599 92.0796 78.599 89.0311ZM76.2376 89.0311C76.2376 91.4399 75.7501 92.9958 75.0369 93.6672C74.3447 94.3343 73.7032 94.5116 72.8042 94.5116C71.9116 94.5116 71.2679 94.3343 70.5821 93.6672C69.8604 92.9958 69.3772 91.4399 69.3772 89.0311C69.3772 86.5949 69.8604 85.0389 70.5821 84.3634C71.2679 83.7026 71.9116 83.5232 72.8042 83.5232C73.7032 83.5232 74.3426 83.7026 75.0369 84.3634C75.7501 85.0389 76.2376 86.5949 76.2376 89.0311Z" fill="#12202B"/>
<path d="M87.7197 83.369C87.7197 82.4444 86.1603 82.039 84.394 82.039C83.0118 82.039 82.1402 82.267 81.4755 82.4444C80.6018 82.6808 80.2937 83.0587 80.2937 83.4957V95.1766C80.2937 95.5904 80.4499 95.6115 80.8086 95.6115H82.1128C82.4209 95.6115 82.577 95.5904 82.577 95.1766V84.4732C82.577 83.7786 83.113 83.3163 83.8812 83.3163C85.5209 83.3163 85.772 84.5259 86.6477 84.5259C87.2386 84.5259 87.7197 84.1101 87.7197 83.369Z" fill="#12202B"/>
<path d="M98.984 94.2034V78.1208C98.984 77.6585 98.8553 77.6014 98.4733 77.6014H97.2135C96.7851 77.6014 96.7302 77.7598 96.7302 78.1693V82.8139C95.9325 82.3958 95.1412 82.1151 93.9362 82.1151C89.9689 82.1151 87.9262 85.8792 87.9262 89.0311C87.9262 93.6989 90.5071 96 94.4026 96C96.3187 96 98.984 95.0479 98.984 94.2034ZM96.7323 93.4603C96.7323 94.1295 95.6561 94.4842 94.4765 94.4842C91.9969 94.4842 90.2306 92.4111 90.2306 88.8538C90.2306 85.7504 91.9188 83.6752 94.2739 83.6752C95.6097 83.6752 96.2449 84.0826 96.7323 84.4964V93.4603Z" fill="#12202B"/>
<path d="M104.538 78.6569C104.511 77.8906 103.897 77.3712 103.183 77.3712C102.364 77.3712 101.769 77.9391 101.769 78.7329C101.769 79.4507 102.286 80.0608 103.15 80.0608C104.029 80.0608 104.561 79.3705 104.538 78.6569ZM104.285 95.1534V82.8307C104.285 82.4211 104.181 82.3451 103.774 82.3451H102.443C102.008 82.3451 102.008 82.495 102.008 82.8307V95.1534C102.008 95.5101 102.008 95.6115 102.39 95.6115H103.774C104.156 95.6115 104.285 95.5904 104.285 95.1534Z" fill="#12202B"/>
<path d="M127 95.3287C127 95.2041 126.924 95.1239 126.819 94.993L121.959 88.5688L121.931 88.5414C123.626 87.2895 125.409 85.2923 126.494 83.139C126.616 82.8835 126.635 82.7801 126.635 82.6259C126.635 82.3958 126.506 82.3452 126.177 82.3452H124.972C124.516 82.3452 124.312 82.3219 124.179 82.7294C123.463 84.9271 121.57 87.2895 119.65 88.4126C119.576 88.4675 119.549 88.5414 119.549 88.5688C119.549 88.6216 119.576 88.6701 119.599 88.6997L124.157 95.2294C124.415 95.6116 124.516 95.6116 124.919 95.6116H126.66C126.747 95.6116 127 95.5904 127 95.3287ZM119.186 95.2294V77.8907C119.186 77.5254 119.011 77.5254 118.7 77.5254H117.348C117.065 77.5254 116.911 77.5782 116.911 77.9392V95.2041C116.911 95.563 116.989 95.6116 117.348 95.6116H118.7C119.061 95.6116 119.186 95.6116 119.186 95.2294Z" fill="#12202B"/>
<path d="M115.115 92.0289C115.115 87.7222 108.814 88.3914 108.814 85.5477C108.814 84.5745 109.582 83.5717 111.013 83.5717C112.502 83.5717 112.891 84.5492 113.65 84.5492C114.039 84.5492 114.575 84.3191 114.575 83.6498C114.575 82.6808 112.912 82.115 111.146 82.115C108.814 82.115 106.771 83.369 106.771 85.7504C106.771 87.9523 108.33 88.9023 110.198 89.694C111.686 90.3147 113.064 90.8741 113.064 92.2844C113.064 93.3357 112.218 94.537 110.43 94.537C108.634 94.537 108.119 93.2048 107.252 93.2048C106.82 93.2048 106.275 93.3843 106.275 94.0493C106.275 95.1006 108.33 96 110.401 96C112.705 96 115.115 94.7713 115.115 92.0289Z" fill="#12202B"/>
<path d="M10.3128 95.1006V86.2592C10.3128 84.754 10.2854 82.039 5.14059 82.039C3.19493 82.039 1.86336 82.4211 1.14587 82.6534C0.276444 82.932 0 83.2635 0 83.7026V95.1238C0 95.563 0.124505 95.6115 0.48325 95.6115H1.73674C2.09549 95.6115 2.28119 95.563 2.28119 95.1006V84.5998C2.28119 84.0066 3.25191 83.4239 5.04141 83.4239C8.03165 83.4239 8.03165 85.3408 8.03165 86.5463V95.1006C8.03165 95.563 8.19203 95.6115 8.60142 95.6115H10.0111C10.2854 95.563 10.3128 95.3286 10.3128 95.1006Z" fill="#12202B"/>
<path d="M23.8609 89.0311C23.8609 85.9573 22.886 83.9855 21.4046 82.989C20.4803 82.3473 19.2521 82.039 18.0704 82.039C16.895 82.039 15.6689 82.3473 14.7467 82.989C13.2611 83.9855 12.2925 85.9573 12.2925 89.0311C12.2925 92.0796 13.2611 94.0493 14.7467 95.0479C15.671 95.6875 16.8971 96 18.0704 96C19.2542 96 20.4824 95.6875 21.4046 95.0479C22.886 94.0493 23.8609 92.0796 23.8609 89.0311ZM21.5038 89.0311C21.5038 91.4399 21.0184 92.9958 20.3009 93.6672C19.6088 94.3343 18.9693 94.5116 18.0683 94.5116C17.1777 94.5116 16.5362 94.3343 15.8419 93.6672C15.1287 92.9958 14.6433 91.4399 14.6433 89.0311C14.6433 86.5949 15.1287 85.0389 15.8419 84.3634C16.5362 83.7026 17.1777 83.5232 18.0683 83.5232C18.9693 83.5232 19.6066 83.7026 20.3009 84.3634C21.0184 85.0389 21.5038 86.5949 21.5038 89.0311Z" fill="#12202B"/>
<path d="M47.2449 89.0311C47.2449 85.9573 46.2741 83.9855 44.7864 82.989C43.8663 82.3473 42.6403 82.039 41.4585 82.039C40.281 82.039 39.0528 82.3473 38.1306 82.989C36.6514 83.9855 35.6743 85.9573 35.6743 89.0311C35.6743 92.0796 36.6514 94.0493 38.1306 95.0479C39.0549 95.6875 40.2831 96 41.4585 96C42.6424 96 43.8684 95.6875 44.7864 95.0479C46.2741 94.0493 47.2449 92.0796 47.2449 89.0311ZM44.8919 89.0311C44.8919 91.4399 44.4066 92.9958 43.687 93.6672C42.9927 94.3343 42.3533 94.5116 41.4564 94.5116C40.5638 94.5116 39.9223 94.3343 39.228 93.6672C38.5126 92.9958 38.0272 91.4399 38.0272 89.0311C38.0272 86.5949 38.5126 85.0389 39.228 84.3634C39.9223 83.7026 40.5638 83.5232 41.4564 83.5232C42.3533 83.5232 42.9927 83.7026 43.687 84.3634C44.4066 85.0389 44.8919 86.5949 44.8919 89.0311Z" fill="#12202B"/>
<path d="M35.4632 82.607C35.4632 82.3452 35.2585 82.3452 35.1298 82.3452H33.8531C33.6716 82.3685 33.621 82.4445 33.545 82.7041L30.2171 92.4597L26.7563 82.7569C26.6297 82.3959 26.579 82.3452 26.195 82.3452H24.6355C24.53 82.3452 24.2767 82.3452 24.2767 82.6535C24.2767 82.7569 24.3211 82.8836 24.378 83.0124L29.0101 95.2042C29.1388 95.5103 29.1915 95.5905 29.392 95.6116H30.3944C30.7004 95.6116 30.7531 95.5905 30.8819 95.2295L35.3598 83.0124C35.4632 82.7041 35.4632 82.6535 35.4632 82.607Z" fill="#12202B"/>
<path fill-rule="evenodd" clip-rule="evenodd" d="M42.1356 0C36.4189 0 31.7827 4.63817 31.7827 10.3594C31.7827 16.0784 36.4189 20.7166 42.1356 20.7166C47.8544 20.7166 52.4886 16.0784 52.4886 10.3594C52.4886 4.63817 47.8544 0 42.1356 0ZM42.5449 2.16672C38.6916 2.16672 35.5705 5.28909 35.5705 9.13981C35.5705 12.9905 38.6937 16.1129 42.5449 16.1129C46.3898 16.1129 49.5109 12.9905 49.5109 9.13981C49.5109 5.28909 46.3898 2.16672 42.5449 2.16672Z" fill="#12202B"/>
<path d="M33.2582 29.1387C32.2664 27.4519 35.8939 26.9769 36.0669 27.4983C36.2421 28.0176 34.2521 30.8276 33.2582 29.1387Z" fill="#12202B"/>
<path fill-rule="evenodd" clip-rule="evenodd" d="M50.2535 19.8156C50.0023 20.0177 49.5568 20.3759 48.952 20.7779C47.0063 22.1945 43.4674 23.7504 38.0904 22.3127C32.3916 20.7883 30.4606 15.4799 29.9943 14.1979L29.9849 14.1721C29.5376 12.9413 28.9003 12.8506 28.9003 14.6577C28.9003 19.2135 30.9177 21.977 31.5887 22.7602C32.2661 23.5456 32.5784 24.3225 32.207 24.7722L32.084 24.9223C31.3263 25.8468 30.36 27.0258 30.082 27.7742C30.0274 27.9251 30.0249 28.1769 30.0226 28.4044C30.0211 28.546 30.0198 28.6783 30.006 28.7706C29.8914 29.5632 29.2279 30.3688 28.3424 31.4438C28.1028 31.7346 27.847 32.0453 27.5813 32.3807C26.8723 33.2779 27.3049 34.2322 27.9042 34.8929C28.1725 35.188 28.4484 35.517 28.7046 35.8224C29.1374 36.3385 29.5139 36.7874 29.7022 36.8922C30.3362 37.2509 30.8806 37.2513 31.4167 37.2517C31.7923 37.2519 32.1639 37.2521 32.5595 37.3756L32.646 37.4029C33.6075 37.7053 35.0094 38.1462 35.9781 39.8795C36.369 40.5814 36.7698 41.3902 37.2025 42.2633C38.3652 44.6095 39.7581 47.4199 41.8066 49.8694C43.0422 51.3427 43.0537 53.9831 43.0578 54.9277L43.058 54.9678C43.1348 62.6779 39.1551 69.831 36.5343 74.5417L36.4001 74.7829C35.7776 75.9018 35.9042 76.8201 36.742 76.8286C37.306 76.8348 37.9242 76.8329 38.7639 76.8303C39.3408 76.8286 40.0231 76.8265 40.8633 76.8265C42.0556 76.8265 42.0719 76.3603 42.0892 75.8646C42.097 75.6418 42.105 75.4129 42.2202 75.2178C42.3096 75.0672 42.4744 75.0306 42.659 74.9896C43.0283 74.9077 43.4765 74.8082 43.5581 73.7442C43.5771 73.474 43.5982 73.2354 43.7417 72.2052C44.6259 65.8317 47.7364 56.3442 49.6652 55.1176C52.5183 56.9818 55.939 60.0767 56.952 66.3721C57.2622 68.2975 57.4458 70.0096 57.2622 71.65C57.0638 73.4275 56.9119 74.2678 56.7515 74.7723C56.2155 76.4781 56.6523 76.8455 57.469 76.8138C57.469 76.8138 61.3012 76.818 61.8435 76.8138C63.009 76.8124 63.0028 76.3428 62.9965 75.8762C62.9935 75.6492 62.9904 75.4229 63.1224 75.2516C63.2201 75.1257 63.3623 75.0698 63.5035 75.0144C63.786 74.9035 64.0643 74.7943 63.9728 74.1284C63.4018 71.2169 62.3561 68.5341 61.309 65.8475C60.3592 63.4107 59.4082 60.9707 58.809 58.354C57.9142 54.4611 60.2566 51.9995 62.2445 51.4105C65.3782 50.4753 69.6705 52.0206 70.2213 52.3309C70.2936 52.3718 70.3567 52.4094 70.4129 52.4428C70.7519 52.6447 70.8396 52.697 71.1835 52.4091C74.7288 49.4872 76.3664 50.9101 76.4571 50.9967C76.8686 51.3852 77.145 53.4435 77.1662 53.8573C77.5937 62.315 70.145 70.4846 67.0984 73.826C66.656 74.3112 66.3064 74.6946 66.0873 74.9623C65.3234 75.9018 65.7539 76.8391 66.5157 76.8349C66.678 76.8344 67.0023 76.8345 67.4079 76.8347C68.6256 76.8352 70.5758 76.836 71.0759 76.8201C72.1784 76.7837 72.164 76.3508 72.1493 75.9114C72.1419 75.6898 72.1345 75.4665 72.2703 75.2917C72.3647 75.1672 72.5028 75.1315 72.6529 75.0926C72.8922 75.0307 73.1619 74.9609 73.3318 74.5106C74.6402 71.0082 77.3413 64.2821 82.9609 59.7368C83.4526 59.342 83.9127 58.354 84.3263 56.112C84.4618 55.3835 84.6267 54.8222 84.8091 54.2015L84.8104 54.1968C84.8275 54.1388 84.8447 54.0803 84.862 54.021C84.8754 53.9754 84.8888 53.9292 84.9024 53.8826C88.0635 57.9972 88.4497 65.3567 83.0939 75.032C82.5325 76.0411 82.8828 76.8265 83.5222 76.8265C83.6022 76.8265 83.7962 76.8277 84.0609 76.8294C85.0463 76.8356 87.0109 76.8481 87.7259 76.8265C88.8795 76.7858 88.8562 76.2816 88.8322 75.7646C88.8288 75.6905 88.8253 75.6161 88.8253 75.5429L88.8253 75.5265C88.8249 75.2478 88.8242 74.7871 89.8277 74.7871C90.1973 74.7871 90.6086 74.7931 90.9088 74.7974L90.9108 74.7974C91.0827 74.7999 91.2181 74.8019 91.288 74.8019C91.3418 74.8019 91.4343 74.8027 91.5542 74.8036C92.1781 74.8088 93.545 74.8202 94.0778 74.7618C94.7742 74.6837 94.8417 73.9701 94.8544 73.037C94.8691 71.6521 94.9451 55.8587 94.8691 53.9164C94.8491 53.4255 94.8476 52.6305 94.8456 51.6359C94.8369 47.1772 94.8204 38.7055 93.0986 35.6107C90.5922 31.1062 85.5675 31.5253 83.2216 31.721L83.1846 31.7241C82.4139 31.7892 81.5014 31.886 80.4727 31.9952C77.361 32.3254 73.1848 32.7686 68.6576 32.786C61.2521 32.8143 53.507 30.3958 51.0092 29.6158C50.7084 29.5219 50.4836 29.4517 50.3447 29.4124C48.1015 28.7791 45.5608 27.7446 44.5289 27.257C43.3569 26.703 43.874 26.4469 44.3931 26.1899L44.4677 26.1528C47.1519 24.8123 49.3972 23.3894 50.7963 21.1199C51.8662 19.3845 51.4632 18.8335 50.2751 19.7983L50.2535 19.8156ZM90.7599 39.4538C90.759 39.2254 90.7584 39.076 90.7647 39.0075C90.8364 38.2264 91.307 38.2961 91.6974 39.3812C92.757 42.3656 92.4296 53.6184 92.3704 55.6539L92.365 55.84C92.3631 55.9103 92.362 55.9533 92.3621 55.9663C92.3706 56.34 91.9126 56.6229 91.594 56.2365C91.3113 55.8773 90.7523 52.7659 90.3834 50.7125L90.3826 50.7083C90.2836 50.1573 90.1983 49.6828 90.1358 49.3585C89.9294 48.3188 90.0959 47.2841 90.2854 46.106C90.3749 45.5499 90.4696 44.9611 90.5325 44.3255C90.7698 41.8677 90.763 40.2183 90.7599 39.4538ZM62.652 35.6113L62.669 35.74C62.8996 37.5388 62.8678 39.531 62.8578 40.1547L62.8568 40.2135C62.8386 41.7389 64.0134 42.0786 64.8095 42.3087L64.908 42.3373C67.0373 42.9643 71.338 42.787 74.3008 41.4C76.6136 40.3169 75.2124 36.4409 74.8199 35.4993C74.4147 34.5261 73.6234 34.1566 72.3847 34.2664C71.6988 34.3255 69.8946 34.3677 68.3372 34.3846C67.5009 34.3943 66.7734 34.3508 65.7866 34.2919C65.2619 34.2606 64.6639 34.2249 63.9373 34.1904C62.4518 34.1159 62.5349 34.7367 62.652 35.6113ZM80.7556 34.7668C81.9458 36.0863 82.6528 38.2544 82.8005 39.1918C82.9524 40.1207 84.2122 39.7618 84.3684 38.8899C84.6005 37.5936 84.189 35.4508 83.2352 34.3024C82.7963 33.7704 82.045 33.536 81.1693 33.7028C80.342 33.8611 80.1162 34.0554 80.7556 34.7668ZM63.0308 48.6025L63.0345 48.6013L63.114 48.5756C65.2433 47.8557 69.276 47.3744 76.434 48.0183C79.8062 48.3223 82.2794 49.3588 84.4825 50.7416C84.5186 50.7644 84.5588 50.7906 84.6026 50.8192C85.4072 51.3442 87.4511 52.6778 88.3316 48.6136C88.5638 47.577 88.9985 45.335 89.0766 44.2963C89.0803 44.2451 89.0889 44.1601 89.1003 44.0458C89.2756 42.301 90.1376 33.7174 85.2021 33.7491C84.4129 33.7533 84.472 34.0658 84.6788 34.4141C84.9025 34.7983 85.1726 35.4021 85.3646 36.1706C85.9471 38.5182 85.4786 39.7743 84.6661 40.566C83.8305 41.3787 82.1845 41.4547 81.8721 40.2683C80.8845 36.6055 79.5909 33.6076 76.7062 33.994C76.1111 34.0742 76.0605 34.5703 76.3454 35.2839C76.607 35.9257 76.9869 37.642 77.1114 39.0122C77.2739 40.8573 76.4509 41.725 75.1678 42.485C72.9816 43.7812 67.6469 44.6172 63.8189 43.5659C61.4997 42.9325 61.4258 41.1761 61.4258 40.5026C61.4258 40.3466 61.428 40.0932 61.4306 39.7883C61.4392 38.7813 61.4527 37.2117 61.4089 36.7258C61.2422 34.9947 61.0396 34.0362 59.9107 33.9264C58.8035 33.8215 58.813 33.9556 58.8605 34.6309C58.878 34.8798 58.9007 35.2022 58.8745 35.6132L58.8739 35.6286C58.8617 35.9787 58.6458 42.1774 54.0505 42.048C52.8983 42.0226 52.2905 40.9607 52.5058 40.0234C52.9088 38.2416 53.1536 36.4872 53.1008 34.5534C53.0986 34.4763 53.097 34.4022 53.0954 34.3308C53.0663 33.0357 53.0578 32.6576 50.2098 31.7372L50.131 31.7118C48.4511 31.1702 47.6756 30.9201 47.086 31.1487C46.5804 31.3447 46.2116 31.8925 45.5264 32.9099C45.4543 33.0169 45.3788 33.1291 45.2992 33.2466C44.2399 34.8131 42.8429 37.6779 42.1697 39.4998C40.8065 43.188 42.0135 45.5799 42.9041 47.1379C43.457 48.1133 44.9721 49.5721 46.7194 50.6129C50.3807 52.7873 53.1114 54.6916 55.7556 56.7267C56.5195 57.3073 56.9795 57.4656 57.009 55.8295C57.1048 50.4991 62.1093 48.8974 63.0308 48.6025ZM44.6494 29.6094C44.2277 29.352 43.5875 29.0018 42.8351 28.5902C42.002 28.1346 41.0315 27.6037 40.068 27.0402L39.8383 26.9061C36.6619 25.0513 35.0249 24.0954 33.8026 25.0811C32.4943 26.1366 31.5046 27.5743 31.3252 28.0789C31.2593 28.262 31.2279 28.5394 31.1933 28.8448C31.1327 29.3808 31.0623 30.0029 30.7786 30.3526C30.6476 30.5147 30.4909 30.7364 30.3063 30.9975C30.0271 31.3923 29.6837 31.8779 29.2698 32.3835C28.4657 33.3645 28.835 33.7819 29.5798 34.6236C29.7166 34.7782 29.866 34.9471 30.0231 35.1364C30.4439 35.64 31.0992 35.6917 31.9081 35.7556C32.9371 35.8368 34.2144 35.9376 35.5731 37.0132C36.7172 37.915 37.1735 38.6324 38.5259 40.7583L38.8229 41.2249C39.3526 42.0588 39.6755 41.569 40.1102 40.429C40.7201 38.8478 42.7987 34.4228 44.3771 32.0056C44.4088 31.9574 44.4411 31.9087 44.4739 31.8594C44.9887 31.0839 45.5856 30.1849 44.6494 29.6094ZM54.1654 39.1204C54.3828 38.1027 54.7876 36.2077 54.5966 33.9666C54.5122 32.9722 54.7127 32.9173 55.9704 33.1242C57.2425 33.3285 57.2482 33.6592 57.2606 34.3804L57.2619 34.4542C57.3252 37.6252 56.5043 39.6898 55.4196 40.2894C54.8182 40.623 54.0543 40.4583 54.0395 39.8419C54.0368 39.7225 54.0898 39.4746 54.1654 39.1204Z" fill="#12202B"/>
</svg>
