<svg width="253" height="66" viewBox="0 0 253 66" fill="none" xmlns="http://www.w3.org/2000/svg">
<path d="M38.5359 54.3919C38.453 61.0388 33.3619 66.0722 26.7987 65.9992C20.4899 65.9263 15.4904 60.6158 15.5533 54.0506C15.6133 47.5933 20.9244 42.5192 27.5162 42.6155C33.5763 42.7059 38.6159 48.0894 38.5359 54.3919Z" fill="#12202B"/>
<path d="M7.9896 46.4641C3.49885 46.467 -0.00285678 42.8839 1.74886e-06 38.2941C0.00286028 33.7276 3.53315 30.127 8.00961 30.1241C12.4432 30.1241 16.0478 33.8006 16.0421 38.3175C16.0364 42.8547 12.4718 46.4612 7.9896 46.4641Z" fill="#12202B"/>
<path d="M129.812 44.8418C128.731 44.8418 127.816 44.8418 126.773 44.8418C126.773 41.4104 126.773 37.979 126.773 34.5476C126.687 34.5125 126.599 34.4804 126.513 34.4454C126.327 34.7372 126.118 35.0203 125.958 35.3266C124.389 38.3408 122.84 41.3637 121.247 44.3633C121.085 44.6696 120.676 45.0169 120.381 45.0198C120.084 45.0227 119.664 44.6813 119.501 44.3778C117.889 41.425 116.316 38.4487 114.733 35.4813C114.584 35.2041 114.421 34.9356 114.07 34.6993C114.07 38.049 114.07 41.3958 114.07 44.8155C113.003 44.8155 112.066 44.8155 110.945 44.8155C111.111 38.653 111.274 32.4992 111.44 26.2929C112.26 26.0828 112.818 26.1295 113.306 27.0282C115.416 30.9265 117.617 34.7752 119.784 38.6413C119.973 38.9769 120.17 39.3066 120.45 39.7822C120.69 39.3854 120.873 39.1082 121.03 38.8164C123.16 34.9298 125.312 31.0549 127.396 27.142C127.833 26.3192 128.314 25.9515 129.309 26.3192C129.474 32.4117 129.64 38.5684 129.812 44.8418Z" fill="#12202B"/>
<path d="M237.187 34.7285C237.187 38.0607 237.187 41.3929 237.187 44.8068C236.123 44.8068 235.186 44.8068 234.099 44.8068C234.277 38.6413 234.451 32.4642 234.625 26.3454C235.609 25.969 236.083 26.3075 236.509 27.0866C238.67 31.0286 240.88 34.9415 243.075 38.8631C243.227 39.1344 243.404 39.3883 243.661 39.7968C244.433 38.3991 245.13 37.1386 245.822 35.8752C247.42 32.9515 249.038 30.0395 250.596 27.0953C251.013 26.3075 251.494 25.9749 252.468 26.3367C252.643 32.4409 252.82 38.5946 253 44.8214C251.997 44.8214 251.059 44.8214 249.939 44.8214C249.939 41.3929 249.939 37.9702 249.939 34.5447C249.841 34.5184 249.741 34.4921 249.644 34.4659C249.478 34.746 249.304 35.0203 249.152 35.3091C247.597 38.2912 246.059 41.282 244.479 44.2495C244.299 44.5908 243.864 45.0402 243.584 45.0139C243.23 44.9848 242.795 44.585 242.601 44.2261C241.014 41.3345 239.479 38.4167 237.924 35.5046C237.775 35.2245 237.613 34.9531 237.455 34.6759C237.367 34.6935 237.275 34.711 237.187 34.7285Z" fill="#12202B"/>
<path d="M52.0281 45.1628C45.948 45.0694 41.9032 40.9319 42.009 35.2537C42.1004 30.3196 46.2539 26.1325 51.0991 25.9836C54.638 25.8728 57.7023 26.859 59.8033 29.879C62.0473 33.1032 62.1988 36.6513 60.4494 40.109C58.6571 43.6425 55.527 45.1161 52.0281 45.1628ZM51.8566 28.8665C48.1548 28.8607 45.4078 31.7231 45.4021 35.5922C45.3963 39.3241 48.2549 42.382 51.7623 42.3995C55.344 42.417 58.2369 39.362 58.2083 35.5892C58.1854 31.7172 55.4927 28.8694 51.8566 28.8665Z" fill="#12202B"/>
<path d="M224.815 38.7989C226.121 40.2637 226.882 42.3353 229.363 42.0085C229.363 42.9802 229.363 43.8702 229.363 44.7572C226.596 45.4429 224.792 44.6901 223.357 42.2653C223.191 41.9881 223.037 41.7022 222.877 41.4221C221.705 39.365 220.904 38.974 218.635 39.4583C218.429 39.5021 218.172 39.9369 218.163 40.1995C218.117 41.7197 218.14 43.2399 218.14 44.8243C217.103 44.8243 216.162 44.8243 215.133 44.8243C215.133 38.6588 215.133 32.5051 215.133 26.2229C218.04 26.325 220.95 25.8698 223.789 26.6693C226.107 27.32 227.599 28.9073 228.005 31.3467C228.422 33.8531 227.896 36.1291 225.967 37.9089C225.638 38.2124 225.261 38.4575 224.815 38.7989ZM218.152 36.523C219.472 36.523 220.693 36.6514 221.876 36.4938C223.634 36.2604 224.672 34.9561 224.718 33.2345C224.778 31.0082 224.014 29.7535 222.156 29.3859C221.042 29.1641 219.872 29.202 218.729 29.1845C218.54 29.1816 218.18 29.488 218.177 29.6543C218.14 31.9215 218.152 34.1887 218.152 36.523Z" fill="#12202B"/>
<path d="M17.2741 23.2525C17.0797 19.4855 20.4213 16.2088 24.0946 16.273C27.9078 16.3401 30.9636 19.3922 30.9608 23.2671C30.9579 27.3142 27.5477 30.3546 23.9888 30.2379C20.2012 30.1124 17.2712 27.1712 17.2741 23.2525Z" fill="#12202B"/>
<path d="M188.709 44.833C187.734 44.833 186.794 44.833 185.713 44.833C185.713 43.1319 185.713 41.4833 185.713 39.8347C185.713 37.4888 185.713 37.4888 183.389 37.4888C181.568 37.4888 179.747 37.4888 177.926 37.4888C176.597 37.4888 176.594 37.4917 176.594 38.8923C176.591 40.8385 176.594 42.7876 176.594 44.8097C175.56 44.8097 174.619 44.8097 173.587 44.8097C173.587 38.6793 173.587 32.5196 173.587 26.2929C174.513 26.2929 175.457 26.2929 176.517 26.2929C176.543 26.6431 176.591 27.0166 176.594 27.3871C176.603 29.5347 176.617 31.6822 176.589 33.8269C176.58 34.5009 176.809 34.7401 177.475 34.7343C179.933 34.7051 182.394 34.7051 184.853 34.7343C185.533 34.7431 185.736 34.4775 185.727 33.8152C185.702 31.6355 185.742 29.4559 185.707 27.2762C185.696 26.5614 185.916 26.2667 186.636 26.3163C187.3 26.363 187.971 26.325 188.714 26.325C188.709 32.5196 188.709 38.618 188.709 44.833Z" fill="#12202B"/>
<path d="M69.9454 44.8359C68.7934 44.8359 67.8158 44.8359 66.7896 44.8359C66.7896 38.6472 66.7896 32.5109 66.7896 26.2229C67.5414 26.2229 68.2932 26.1937 69.0449 26.2287C70.9516 26.3163 72.8983 26.2141 74.7563 26.5789C78.0722 27.2325 79.8531 29.8002 79.6873 33.2083C79.5243 36.5025 77.5319 38.7376 74.2218 39.2132C72.8439 39.4116 71.4433 39.4233 69.9483 39.5284C69.9454 41.2761 69.9454 43.0181 69.9454 44.8359ZM69.9254 36.558C71.0974 36.558 72.1207 36.6251 73.1327 36.5434C74.9736 36.3917 76.1541 35.064 76.2885 33.1178C76.42 31.2241 75.4566 29.7564 73.6501 29.3829C72.6324 29.1729 71.5605 29.1962 70.5142 29.1874C70.3199 29.1874 69.954 29.5376 69.9511 29.7302C69.9111 31.9623 69.9254 34.1974 69.9254 36.558Z" fill="#12202B"/>
<path d="M158.9 44.8418C157.799 44.8418 156.879 44.8418 155.884 44.8418C155.884 38.6384 155.884 32.4817 155.884 26.0829C158.56 26.2375 161.198 26.147 163.745 26.5964C167.13 27.1916 168.791 29.7185 168.648 33.3191C168.522 36.4559 166.509 38.7084 163.282 39.2045C162.122 39.3825 160.932 39.4029 159.755 39.4058C159.072 39.4058 158.874 39.6538 158.889 40.3162C158.926 41.8014 158.9 43.2895 158.9 44.8418ZM158.906 36.558C160.092 36.558 161.115 36.6222 162.127 36.5434C163.885 36.4092 165.077 35.1282 165.249 33.3016C165.437 31.3175 164.537 29.8119 162.725 29.4092C161.681 29.1758 160.578 29.202 159.5 29.1874C159.303 29.1845 158.934 29.5405 158.931 29.736C158.891 31.9682 158.906 34.2003 158.906 36.558Z" fill="#12202B"/>
<path d="M210.771 44.8885C209.759 44.8885 208.839 44.9235 207.921 44.8651C207.687 44.8505 207.378 44.5821 207.261 44.3487C206.84 43.5112 206.535 42.6155 206.089 41.7926C205.931 41.5037 205.5 41.2032 205.188 41.1945C202.987 41.1419 200.783 41.1857 198.579 41.1536C198.045 41.1449 197.773 41.3316 197.587 41.8306C197.296 42.6184 196.904 43.3683 196.621 44.1619C196.41 44.7513 196.067 44.9381 195.472 44.9002C194.712 44.8505 193.943 44.8885 193.011 44.8885C193.728 43.2982 194.392 41.8101 195.069 40.3278C197.096 35.8839 199.122 31.44 201.175 27.0078C201.329 26.6752 201.687 26.4388 201.95 26.1558C202.184 26.4272 202.498 26.6577 202.644 26.9728C205.254 32.6422 207.847 38.3233 210.436 44.0014C210.557 44.2582 210.639 44.5296 210.771 44.8885ZM201.867 32.0032C200.86 34.3346 199.971 36.3917 199.042 38.545C201.006 38.545 202.761 38.545 204.694 38.545C203.756 36.3683 202.873 34.3258 201.867 32.0032Z" fill="#12202B"/>
<path d="M151.548 44.8885C150.516 44.8885 149.598 44.9235 148.684 44.8651C148.446 44.8505 148.135 44.585 148.02 44.3545C147.6 43.5171 147.297 42.6184 146.851 41.7985C146.694 41.5096 146.262 41.2061 145.951 41.1974C143.718 41.1478 141.483 41.1507 139.248 41.1945C138.959 41.2003 138.559 41.4862 138.419 41.7576C138.001 42.5571 137.664 43.4033 137.341 44.2495C137.149 44.7513 136.864 44.9352 136.332 44.9031C135.537 44.8564 134.74 44.8914 133.762 44.8914C133.991 44.3895 134.171 43.9956 134.351 43.6017C136.875 38.0694 139.391 32.5371 141.935 27.0136C142.089 26.6781 142.443 26.4417 142.706 26.1587C142.938 26.4301 143.247 26.6635 143.392 26.9757C145.979 32.5839 148.546 38.2007 151.116 43.8176C151.256 44.1327 151.373 44.4595 151.548 44.8885ZM145.456 38.548C144.504 36.3625 143.615 34.32 142.609 32.0149C141.594 34.3754 140.714 36.415 139.796 38.548C141.766 38.548 143.521 38.548 145.456 38.548Z" fill="#12202B"/>
<path d="M91.4158 44.8359C90.3524 44.8359 89.412 44.8359 88.3829 44.8359C88.36 44.3778 88.3229 43.9664 88.32 43.555C88.3143 39.1344 88.2972 34.711 88.3343 30.2904C88.3429 29.4034 88.0942 29.0882 87.2052 29.1291C85.8045 29.1962 84.3981 29.132 82.9917 29.1524C82.4458 29.1612 82.1513 28.9949 82.1799 28.3821C82.2085 27.7081 82.1856 27.0311 82.1856 26.29C87.3224 26.29 92.3477 26.29 97.4473 26.29C97.4473 27.1741 97.4473 28.0641 97.4473 29.1495C96.3268 29.1495 95.1948 29.1495 94.06 29.1495C91.413 29.1495 91.413 29.1495 91.413 31.8485C91.4158 36.1378 91.4158 40.4271 91.4158 44.8359Z" fill="#12202B"/>
<path d="M22.0107 5.44771C21.9964 2.37228 24.2861 0.0146554 27.3018 6.60455e-05C30.2776 -0.0145233 32.693 2.38979 32.713 5.38352C32.7302 8.32473 30.2776 10.8516 27.3647 10.8924C24.449 10.9333 22.0221 8.46478 22.0107 5.44771Z" fill="#12202B"/>
<path d="M101.492 26.2696C102.593 26.2696 103.633 26.2696 104.739 26.2696C104.739 32.5109 104.739 38.7289 104.739 45.011C103.667 45.011 102.604 45.011 101.492 45.011C101.492 38.7726 101.492 32.578 101.492 26.2696Z" fill="#12202B"/>
</svg>
