<svg width="153" height="90" viewBox="0 0 153 90" fill="none" xmlns="http://www.w3.org/2000/svg">
<path d="M74.1724 29.9082C74.1724 35.3272 74.1724 40.7461 74.1724 46.1686C74.1724 47.2133 73.5118 47.8507 72.5667 47.6661C72.2821 47.6104 71.9869 47.4258 71.7691 47.2238C67.2295 43.0342 62.6618 38.8655 58.1749 34.6202C55.1391 31.747 52.2053 28.7624 49.5525 25.5236C47.606 23.1485 46.3551 20.4529 45.9229 17.4196C45.0516 11.3145 48.3262 5.42195 54.0534 2.89357C58.0871 1.11047 62.2612 0.696042 66.4073 2.43387C70.6904 4.2309 73.2097 7.52545 73.9967 12.0772C74.1267 12.8225 74.1654 13.5887 74.1654 14.3479C74.1794 19.537 74.1724 24.7226 74.1724 29.9082ZM71.4001 31.4023C71.4037 30.0719 70.3074 28.9679 68.9652 28.9505C67.6265 28.9331 66.467 30.0719 66.4741 31.4023C66.4811 32.7257 67.6019 33.8227 68.9406 33.8262C70.2863 33.8262 71.3931 32.7326 71.4001 31.4023Z" fill="#12202B"/>
<path d="M0 71.8842C0 68.3424 0 64.8041 0 61.2622C0 60.4403 0.231898 60.2105 1.0576 60.2105C3.06387 60.2105 5.07015 60.1966 7.07642 60.214C9.18459 60.2314 11.2155 60.611 13.0952 61.607C15.5477 62.906 17.2027 64.8876 18.0565 67.4926C19.0297 70.4738 19.0508 73.4862 18.0038 76.4464C16.6686 80.2251 13.8963 82.4365 9.98921 83.255C9.00188 83.4639 7.97239 83.5196 6.96047 83.544C5.00339 83.5858 3.04279 83.5579 1.08571 83.5579C0.207303 83.5579 0.00351336 83.3594 0.00351336 82.4992C-2.54539e-07 78.9644 0 75.426 0 71.8842ZM4.55716 79.4519C5.85368 79.3997 7.10101 79.4589 8.31321 79.2813C10.6744 78.9365 12.4171 77.6758 13.3728 75.4609C14.0966 73.7822 14.1458 72.0305 13.9174 70.2509C13.545 67.3673 11.6195 65.1767 8.76647 64.609C7.58238 64.3722 6.33856 64.4558 5.12285 64.3687C4.66608 64.3339 4.54662 64.4871 4.54662 64.9364C4.56418 69.5787 4.55716 74.221 4.55716 78.8634C4.55716 79.0166 4.55716 79.1733 4.55716 79.4519Z" fill="#12202B"/>
<path d="M53.3894 74.0125C53.4983 74.2284 53.5756 74.3956 53.66 74.5593C55.0549 77.1956 56.4498 79.832 57.8447 82.4683C57.9044 82.5797 57.9642 82.6877 58.0169 82.7991C58.2558 83.325 58.1117 83.5584 57.5355 83.5618C56.5025 83.5653 55.466 83.5375 54.433 83.5723C53.6705 83.5967 53.2032 83.2554 52.8729 82.6111C51.5905 80.1071 50.2869 77.617 49.0185 75.1095C48.8077 74.6916 48.5758 74.4931 48.0909 74.5419C47.6412 74.5871 47.1809 74.5697 46.7276 74.5453C46.3517 74.5245 46.2463 74.6777 46.2498 75.0364C46.2603 77.5195 46.2568 80.0061 46.2568 82.4892C46.2568 83.4086 46.0952 83.5653 45.1641 83.5653C44.3032 83.5653 43.4389 83.5688 42.578 83.5653C41.9526 83.5618 41.6996 83.3146 41.6856 82.6912C41.675 82.2106 41.6821 81.73 41.6821 81.2459C41.6821 74.6324 41.6821 68.0154 41.6821 61.402C41.6821 60.4024 41.8753 60.2179 42.8978 60.2179C45.4978 60.2179 48.1014 60.2109 50.7015 60.2213C51.9805 60.2248 53.2348 60.3955 54.4013 60.9527C56.882 62.1368 58.175 64.1254 58.3788 66.8209C58.5404 68.9732 57.9431 70.8747 56.3303 72.3931C55.5152 73.1593 54.5243 73.6503 53.3894 74.0125ZM46.2568 67.3921C46.2568 68.3533 46.2603 69.3179 46.2533 70.2791C46.2533 70.5264 46.2884 70.7075 46.6011 70.7005C48.0101 70.6762 49.4226 70.711 50.828 70.6204C52.2264 70.5299 53.291 69.6209 53.6424 68.3776C54.2503 66.2254 52.9186 64.3065 50.6664 64.1741C49.3382 64.0975 48.0066 64.1323 46.6749 64.101C46.3376 64.094 46.2463 64.2368 46.2498 64.5468C46.2673 65.501 46.2568 66.4483 46.2568 67.3921Z" fill="#12202B"/>
<path d="M110.444 68.7955C110.444 68.6318 110.444 68.4646 110.444 68.3009C110.444 65.7865 110.444 63.2685 110.444 60.7541C110.444 59.9601 110.672 59.7372 111.477 59.7337C112.274 59.7337 113.075 59.7302 113.873 59.7337C114.509 59.7372 114.748 59.9635 114.751 60.6043C114.758 62.4675 114.755 64.3307 114.755 66.1939C114.755 71.5676 114.755 76.9378 114.755 82.3115C114.755 82.4821 114.758 82.6528 114.748 82.8234C114.716 83.3145 114.477 83.5513 113.975 83.5583C113.065 83.5687 112.158 83.5443 111.248 83.5687C110.837 83.5792 110.679 83.3876 110.651 83.0254C110.619 82.6319 110.595 82.2384 110.521 81.8274C109.769 82.813 108.82 83.4886 107.633 83.7359C104.509 84.3836 101.846 83.5583 99.8221 81.0821C97.236 77.9164 97.3555 72.6995 100.015 69.593C102 67.2736 105.405 66.3646 108.307 67.378C109.13 67.6636 109.822 68.1233 110.444 68.7955ZM102.338 75.3358C102.401 75.893 102.426 76.3423 102.51 76.7846C102.893 78.7592 104.33 79.9921 106.357 80.1035C108.163 80.201 109.716 79.0587 110.293 77.1955C110.598 76.2134 110.616 75.2104 110.437 74.204C110.11 72.3651 108.662 70.993 106.948 70.885C104.794 70.7492 103.192 71.794 102.619 73.7477C102.457 74.291 102.415 74.8691 102.338 75.3358Z" fill="#12202B"/>
<path d="M90.7039 68.792C90.7039 68.6318 90.7039 68.4716 90.7039 68.3079C90.7039 65.8074 90.7039 63.3069 90.7039 60.8063C90.7039 59.9357 90.9077 59.7337 91.7791 59.7337C92.5626 59.7337 93.3462 59.7302 94.1297 59.7337C94.7657 59.7372 94.9976 59.967 95.0187 60.6043C95.0222 60.7123 95.0222 60.8203 95.0222 60.9317C95.0222 68.078 95.0222 75.2209 95.0222 82.3672C95.0222 82.5518 95.0257 82.7399 95.0011 82.9244C94.9519 83.318 94.72 83.5513 94.3195 83.5548C93.3462 83.5652 92.3764 83.5583 91.4031 83.5618C91.1221 83.5618 90.9675 83.4433 90.9429 83.1543C90.9077 82.7259 90.8621 82.2976 90.8129 81.7995C90.7004 81.9005 90.6161 81.9563 90.5599 82.0329C89.6217 83.2518 88.3287 83.8125 86.8319 83.9239C82.0429 84.2792 78.8736 80.9289 78.3466 76.9657C77.9811 74.2109 78.4801 71.6721 80.3528 69.5164C82.3345 67.2352 85.7216 66.375 88.5852 67.3815C89.3969 67.6671 90.082 68.1303 90.7039 68.792ZM90.9077 75.4507C90.8796 75.4403 90.8515 75.4298 90.8234 75.4194C90.7777 75.005 90.7531 74.587 90.6793 74.1761C90.3491 72.3617 88.9647 71.0383 87.2676 70.8885C85.2332 70.7109 83.6135 71.6617 82.967 73.4691C82.4751 74.8448 82.4926 76.2448 83.0232 77.61C83.6346 79.1771 84.9662 80.0652 86.6914 80.107C88.2936 80.1418 89.7236 79.2607 90.335 77.7318C90.6231 77.004 90.725 76.2099 90.9077 75.4507Z" fill="#12202B"/>
<path d="M87.8544 22.9049C87.8544 18.5238 91.4067 14.9959 95.8233 14.9994C100.229 15.0029 103.817 18.5586 103.806 22.9119C103.799 27.2408 100.208 30.7931 95.8374 30.7966C91.4172 30.8035 87.8544 27.2791 87.8544 22.9049Z" fill="#12202B"/>
<path d="M77.6684 7.59559C77.6614 3.406 81.0766 0.00348529 85.2965 2.6738e-06C89.5128 -0.00347994 92.9737 3.39555 92.9878 7.55728C93.0018 11.7573 89.5725 15.1529 85.314 15.1563C81.0626 15.1563 77.6754 11.8061 77.6684 7.59559Z" fill="#12202B"/>
<path d="M63.7616 76.6243C63.9021 77.1258 63.9653 77.5925 64.1551 77.9965C64.8367 79.4453 66.0313 80.2114 67.623 80.3333C69.299 80.4622 70.6834 79.9572 71.5266 78.404C71.6918 78.1045 71.9694 77.993 72.2821 78.0766C73.1394 78.3099 73.9967 78.5537 74.8435 78.8323C75.2651 78.9716 75.2757 79.3094 75.1176 79.6751C74.2954 81.5557 72.9216 82.8791 70.9715 83.5547C66.3476 85.1533 60.659 82.9975 59.6823 77.1781C59.1166 73.8069 59.9247 70.8014 62.718 68.5725C65.8135 66.0999 70.8099 66.382 73.4732 69.1263C74.84 70.5367 75.4127 72.2815 75.5814 74.183C75.627 74.7089 75.62 75.2383 75.6024 75.7641C75.5849 76.3945 75.36 76.586 74.6819 76.5895C71.2807 76.593 67.8795 76.5895 64.4783 76.593C64.2816 76.593 64.0813 76.6104 63.7616 76.6243ZM63.9724 73.6293C66.4214 73.6293 68.8458 73.6293 71.2631 73.6293C71.4599 72.0447 69.9736 70.5298 68.1536 70.4183C65.8381 70.2755 63.9653 71.6895 63.9724 73.6293Z" fill="#12202B"/>
<path d="M126.195 76.9065C126.364 76.5234 126.497 76.2309 126.624 75.9349C127.688 73.4343 128.749 70.9373 129.81 68.4368C130.137 67.6706 130.569 67.3851 131.395 67.3851C132.242 67.3851 133.089 67.3851 133.935 67.3851C134.737 67.3851 134.842 67.5557 134.505 68.301C133.672 70.1398 132.836 71.9751 132.003 73.814C129.726 78.815 127.439 83.8125 125.183 88.824C124.807 89.6599 124.262 90.0534 123.335 89.9942C122.601 89.9489 121.863 89.9837 121.125 89.9837C120.18 89.9837 120.074 89.8305 120.457 88.9912C121.522 86.6613 122.583 84.328 123.662 82.0086C123.816 81.6777 123.802 81.42 123.641 81.0961C121.56 76.8926 119.494 72.6821 117.428 68.4716C117.348 68.3045 117.267 68.1373 117.197 67.9632C117.056 67.6114 117.2 67.3955 117.562 67.392C118.721 67.3746 119.884 67.3502 121.04 67.4025C121.627 67.4268 122.014 67.8343 122.26 68.3706C123.479 71.0383 124.705 73.706 125.931 76.3702C125.998 76.52 126.075 76.6662 126.195 76.9065Z" fill="#12202B"/>
<path d="M146.662 84.0456C145.176 84.063 143.805 83.8018 142.558 83.067C141.356 82.3566 140.513 81.3466 140.07 80.0267C139.863 79.4103 140.06 79.0759 140.685 78.9332C141.462 78.7555 142.242 78.5953 143.018 78.4108C143.387 78.3237 143.598 78.3968 143.707 78.8008C144.273 80.8939 146.883 81.1098 148.057 80.4202C148.563 80.1207 148.837 79.6715 148.823 79.0725C148.809 78.456 148.471 78.0068 147.93 77.8187C147.108 77.5331 146.244 77.366 145.408 77.1257C144.599 76.8923 143.76 76.7112 143.004 76.3595C139.747 74.8446 139.589 71.059 141.592 68.8858C142.667 67.7157 144.034 67.0992 145.594 66.946C147.108 66.7997 148.598 66.9634 149.982 67.6704C151.216 68.3042 152.094 69.2584 152.561 70.5644C152.797 71.2226 152.6 71.5744 151.922 71.7241C151.282 71.8669 150.643 72.0132 150 72.156C149.399 72.2883 149.223 72.2013 148.953 71.6615C148.306 70.3555 146.718 69.7948 145.362 70.3938C144.677 70.6968 144.248 71.2958 144.29 71.8948C144.336 72.553 144.8 73.0615 145.587 73.246C146.592 73.4829 147.607 73.6674 148.608 73.9147C149.121 74.0436 149.627 74.2212 150.105 74.4441C151.855 75.2694 152.937 76.6103 152.997 78.571C153.06 80.5839 152.15 82.1337 150.404 83.1645C149.241 83.8471 147.955 84.077 146.662 84.0456Z" fill="#12202B"/>
<path d="M84.3125 41.3662C80.964 41.3558 78.3428 38.7299 78.3499 35.4005C78.3604 32.1199 81.0202 29.5184 84.3581 29.5288C87.668 29.5358 90.3383 32.1791 90.3418 35.4493C90.3488 38.7194 87.6434 41.3767 84.3125 41.3662Z" fill="#12202B"/>
<path d="M31.6156 71.6337C31.4012 71.6163 31.2045 71.6059 31.0077 71.585C30.1047 71.4805 29.2193 71.5571 28.3795 71.9089C26.8125 72.5636 26.18 73.8696 26.1238 75.4298C26.0395 77.7422 26.0816 80.0582 26.0676 82.3706C26.0676 82.5552 26.0676 82.7433 26.0465 82.9278C25.9973 83.3214 25.7619 83.5512 25.3613 83.5582C24.374 83.5686 23.3867 83.5721 22.3994 83.5547C21.9742 83.5478 21.7493 83.2935 21.7177 82.8721C21.7072 82.7328 21.7107 82.5935 21.7107 82.4542C21.7107 77.7945 21.7107 73.1347 21.7107 68.475C21.7107 67.5695 21.9004 67.3849 22.8034 67.3849C23.5553 67.3849 24.3073 67.3815 25.0592 67.3849C25.66 67.3884 25.9165 67.6461 25.9235 68.2347C25.927 68.6909 25.9235 69.1471 25.9727 69.6312C27.2973 67.4999 29.3247 67.1446 31.6156 67.3118C31.6156 68.7536 31.6156 70.171 31.6156 71.6337Z" fill="#12202B"/>
<path d="M81.0415 17.4162C83.5608 17.4197 85.567 19.4083 85.567 21.9088C85.5635 24.3884 83.5221 26.4083 81.0239 26.4014C78.5293 26.3944 76.4809 24.3606 76.4844 21.8914C76.4879 19.4118 78.5223 17.4162 81.0415 17.4162Z" fill="#12202B"/>
<path d="M105.545 9.36108C105.549 11.6526 103.725 13.4706 101.413 13.481C99.0662 13.488 97.2286 11.684 97.2251 9.37152C97.2216 7.07648 99.1014 5.21328 101.403 5.23069C103.704 5.24462 105.542 7.07996 105.545 9.36108Z" fill="#12202B"/>
<path d="M138.387 64.759C138.257 64.6998 138.148 64.6476 138.036 64.5988C136.722 64.0346 136.075 62.7043 136.479 61.3948C136.89 60.0679 138.233 59.2878 139.613 59.5699C140.942 59.8451 141.862 61.0953 141.711 62.464C141.679 62.7635 141.567 63.07 141.43 63.3416C140.668 64.8705 139.884 66.3854 139.118 67.9143C138.967 68.2173 138.763 68.3635 138.422 68.3531C138.078 68.3426 137.734 68.3566 137.389 68.3496C136.95 68.3391 136.866 68.2068 137.049 67.7959C137.463 66.859 137.885 65.9292 138.303 64.9924C138.335 64.9227 138.352 64.8531 138.387 64.759Z" fill="#12202B"/>
<path d="M36.8614 80.8139C36.8685 82.4751 35.5544 83.781 33.8573 83.7915C32.2059 83.8019 30.8567 82.4925 30.8496 80.8661C30.8391 79.1944 32.1532 77.8745 33.8292 77.8641C35.5192 77.8536 36.8544 79.1526 36.8614 80.8139Z" fill="#12202B"/>
<path d="M76.2737 45.0923C76.2701 43.9395 77.1556 43.0515 78.3115 43.0549C79.4359 43.0584 80.3319 43.943 80.3424 45.0644C80.353 46.1928 79.4289 47.1192 78.2975 47.1122C77.1731 47.1017 76.2807 46.2102 76.2737 45.0923Z" fill="#12202B"/>
</svg>
