<svg width="185" height="32" viewBox="0 0 185 32" fill="none" xmlns="http://www.w3.org/2000/svg">
<path d="M185 21.5493C184.86 21.54 184.72 21.526 184.575 21.526C181.762 21.526 178.948 21.526 176.135 21.526C175.941 21.526 175.751 21.5354 175.556 21.5493C175.402 21.5587 175.321 21.6518 175.325 21.8056C175.33 22.0572 175.339 22.3088 175.357 22.5604C175.362 22.6116 175.38 22.6908 175.411 22.7001C175.76 22.798 175.678 23.1008 175.714 23.3477C175.719 23.385 175.732 23.4223 175.746 23.4875C175.909 23.5481 176.063 23.6133 176.108 23.8602C176.135 24.0047 176.411 24.0373 176.438 24.2516C176.75 24.3355 176.854 24.7734 177.239 24.7548C177.329 24.7501 177.478 24.806 177.501 24.8713C177.582 25.0996 177.754 25.0623 177.917 25.0763C179.039 25.1741 180.16 25.1228 181.278 25.0669C181.449 25.0576 181.644 25.0856 181.725 24.8433C181.743 24.7921 181.847 24.7641 181.92 24.7501C182.06 24.7222 182.2 24.7175 182.34 24.6989C182.671 24.6523 182.671 24.6523 182.865 24.3681C182.987 24.3541 183.114 24.3355 183.245 24.3215C183.39 24.3075 183.521 24.2842 183.566 24.0979C183.58 24.0466 183.702 23.9674 183.725 23.9814C183.788 24.0233 183.865 24.1072 183.869 24.1724C183.887 24.5451 183.887 24.9178 183.887 25.2859C183.887 25.6167 183.887 25.9522 183.887 26.283C183.887 26.4507 183.819 26.5439 183.702 26.6743C183.489 26.9026 183.268 26.9911 182.978 27.0051C182.843 27.0098 182.847 27.0331 182.725 27.3359C182.467 27.3499 182.196 27.3639 181.929 27.3825C181.698 27.4011 181.468 27.4198 181.314 27.6481C181.273 27.704 181.155 27.7319 181.074 27.7319C179.875 27.7366 178.672 27.7366 177.474 27.7319C177.383 27.7319 177.252 27.6947 177.207 27.6294C177.08 27.4337 176.895 27.4105 176.705 27.3872C176.538 27.3685 176.37 27.3685 176.203 27.3592C176.008 27.3499 175.814 27.3545 175.737 27.0983C175.719 27.0377 175.597 27.0005 175.515 26.9818C175.38 26.9492 175.235 26.9399 175.077 26.9213C175.027 26.7395 174.936 26.5905 174.724 26.5625C174.679 26.5578 174.647 26.4693 174.606 26.4227C174.566 26.3715 174.538 26.2923 174.489 26.2783C174.195 26.2037 173.987 26.0407 173.779 25.8077C173.652 25.668 173.557 25.5375 173.498 25.3698C173.453 25.23 173.448 25.0856 173.263 25.0483C173.218 25.039 173.154 24.9598 173.15 24.9085C173.145 24.6802 172.96 24.6523 172.806 24.5824C172.788 24.4147 172.783 24.2563 172.752 24.1025C172.734 24.0186 172.698 23.9068 172.639 23.8696C172.44 23.7484 172.426 23.5481 172.404 23.3571C172.385 23.1847 172.395 23.0123 172.372 22.8399C172.358 22.7234 172.349 22.5604 172.277 22.5091C172.042 22.3367 172.06 22.0991 172.06 21.8662C172.055 20.911 172.055 19.9559 172.064 19.0008C172.064 18.8098 172.046 18.6001 172.263 18.479C172.322 18.4464 172.345 18.3206 172.354 18.2367C172.376 18.0131 172.381 17.7848 172.399 17.5612C172.417 17.3375 172.431 17.1139 172.657 16.9788C172.716 16.9462 172.734 16.8204 172.752 16.7365C172.779 16.5967 172.788 16.4477 172.806 16.2799C173.05 16.2427 173.132 16.0749 173.15 15.842C173.163 15.6836 173.227 15.5531 173.39 15.4646C173.489 15.4087 173.534 15.241 173.629 15.0732C173.729 15.0453 173.896 15.008 173.905 14.7844C173.905 14.7378 174.023 14.7052 174.077 14.6586C174.14 14.6073 174.199 14.5421 174.258 14.4862C174.308 14.4349 174.348 14.3464 174.407 14.3324C174.552 14.3045 174.633 14.2439 174.67 14.0902C174.706 13.9178 174.869 13.9457 174.986 13.9224C175.176 13.8852 175.371 13.8898 175.448 13.6429C175.466 13.5916 175.597 13.559 175.678 13.5451C175.818 13.5171 175.963 13.5218 176.099 13.4985C176.198 13.4798 176.343 13.4612 176.384 13.3913C176.547 13.0885 176.813 13.1444 177.062 13.1444C178.093 13.1397 179.125 13.1444 180.16 13.149C180.341 13.149 180.522 13.1397 180.604 13.3727C180.626 13.4332 180.744 13.4752 180.825 13.4891C180.975 13.5171 181.133 13.5218 181.287 13.5357C181.454 13.5497 181.617 13.5404 181.68 13.7733C181.698 13.8432 181.866 13.8805 181.97 13.9038C182.146 13.9457 182.327 13.955 182.39 14.188C182.404 14.2439 182.508 14.2719 182.567 14.3185C182.63 14.3697 182.693 14.4256 182.752 14.4815C182.82 14.5468 182.883 14.626 182.951 14.6912C182.996 14.7331 183.1 14.7517 183.105 14.789C183.128 15.022 183.313 15.0639 183.462 15.1198C183.575 15.7441 183.575 15.7441 183.856 15.8886C183.878 16.033 183.896 16.1914 183.924 16.3452C183.937 16.4197 183.964 16.5269 184.014 16.5502C184.285 16.6806 184.245 16.9369 184.276 17.1651C184.308 17.3934 184.263 17.645 184.534 17.7848C184.593 17.8174 184.611 17.9712 184.62 18.0737C184.652 18.5256 184.674 18.9729 184.688 19.4248C184.692 19.6438 184.792 19.7416 185 19.7276C185 20.324 185 20.9343 185 21.5493ZM176.908 15.828C176.872 15.9258 176.845 16.0749 176.8 16.0842C176.524 16.1308 176.424 16.4011 176.216 16.5269C176.167 16.5595 176.085 16.6154 176.085 16.6527C176.099 16.9042 175.882 16.9229 175.751 16.9974C175.647 17.2816 175.796 17.6497 175.42 17.7988C175.384 17.8128 175.375 17.9199 175.371 17.9805C175.348 18.1669 175.325 18.3486 175.321 18.5349C175.303 19.1173 175.416 19.2384 175.981 19.2384C177.248 19.2431 178.51 19.2384 179.776 19.2384C180.151 19.2384 180.522 19.2431 180.898 19.2338C181.011 19.2291 181.137 19.2151 181.223 19.1546C181.368 19.0614 181.486 18.9263 181.676 18.7539C181.662 18.6095 181.639 18.3905 181.621 18.1762C181.314 18.0271 181.373 17.7196 181.323 17.4587C181.282 17.235 181.327 16.9648 181.024 16.8809C181.002 16.8763 180.979 16.8157 180.975 16.7784C180.956 16.6247 180.875 16.5502 180.735 16.5082C180.681 16.4942 180.644 16.4011 180.599 16.3405C180.554 16.2846 180.518 16.2147 180.463 16.1681C180.346 16.0656 180.224 15.9724 180.102 15.8746C179.98 15.7954 179.83 15.7767 179.681 15.7395C179.6 15.7208 179.477 15.6882 179.455 15.6277C179.364 15.418 179.197 15.4273 179.03 15.4273C178.772 15.4227 178.514 15.4227 178.256 15.4227C177.998 15.4273 177.736 15.3947 177.569 15.6742C177.537 15.7255 177.433 15.7395 177.361 15.7534C177.23 15.7814 177.089 15.7954 176.908 15.828Z" fill="#12202B"/>
<path d="M7.09886 28.2115C7.01292 28.519 7.04458 28.8265 6.72797 28.957C6.68727 28.9756 6.68274 29.0968 6.66465 29.1713C6.6149 29.3716 6.61942 29.5999 6.37066 29.6838C6.32995 29.6978 6.30734 29.791 6.28472 29.8469C6.26211 29.9074 6.25759 30.0146 6.22593 30.0239C5.86409 30.1451 5.97264 30.4991 5.85052 30.7787C5.44346 30.8299 5.55201 31.2213 5.46607 31.5241C5.28515 31.5847 5.11328 31.6825 5.16756 31.9761C3.4217 32.018 1.73011 31.99 0.0068707 31.9994C0.0113937 31.6732 -0.0745427 31.389 0.255633 31.2446C0.296339 31.226 0.337046 31.1654 0.337046 31.1235C0.341569 30.9417 0.472734 30.8672 0.572239 30.7507C0.694359 30.6063 0.721497 30.3733 0.807433 30.1218C0.848139 30.1031 0.947644 30.0565 1.06976 29.996C1.08786 29.8469 1.12856 29.6931 1.12856 29.5347C1.12856 29.3111 1.32305 29.3204 1.44969 29.2458C1.47231 29.1201 1.4904 29.0036 1.51301 28.8871C1.52206 28.8358 1.50849 28.752 1.54015 28.7333C1.75273 28.5889 1.82962 28.328 2.00149 28.1789C2.1417 28.0578 2.16884 27.9366 2.20955 27.7922C2.25478 27.6198 2.24573 27.4148 2.48545 27.3636C2.53068 27.3543 2.56686 27.2424 2.58495 27.1726C2.64375 26.9629 2.63018 26.7206 2.89251 26.6228C2.93774 26.6041 2.95131 26.4877 2.97845 26.4178C3.00106 26.3572 3.01011 26.278 3.05082 26.2454C3.15937 26.1615 3.31315 26.1336 3.32672 25.9472C3.33124 25.8168 3.3629 25.6863 3.38551 25.5279C3.57095 25.4627 3.70212 25.3322 3.72473 25.0946C3.7383 24.9315 3.76092 24.7498 3.9735 24.6939C4.01873 24.68 4.04134 24.5681 4.073 24.4983C4.10014 24.4377 4.10919 24.3398 4.14989 24.3259C4.43484 24.2373 4.45293 23.9858 4.4665 23.7528C4.48007 23.5385 4.67908 23.5478 4.75597 23.4872C4.89618 23.1984 4.69717 22.7837 5.16303 22.7231C5.18565 22.602 5.20374 22.4855 5.22183 22.3691C5.23088 22.3178 5.21731 22.2433 5.24897 22.2153C5.44798 22.0383 5.53844 21.7727 5.70579 21.6003C5.84147 21.4559 5.9455 21.3161 5.95907 21.1484C5.97716 20.9247 6.08572 20.8222 6.26211 20.7757C6.29829 20.6126 6.32995 20.4682 6.36161 20.3284C6.37518 20.2771 6.37066 20.1933 6.3978 20.1793C6.59681 20.0675 6.70988 19.8997 6.75059 19.6761C7.08076 19.5596 7.03101 19.2428 7.09886 18.9866C7.40642 18.8235 7.40642 18.8235 7.49687 18.2038C7.57829 18.1712 7.67327 18.1293 7.77277 18.0874C7.79539 17.9569 7.82253 17.8265 7.84062 17.696C7.85871 17.5609 7.88132 17.4398 8.0351 17.3885C8.0939 17.3699 8.15722 17.2813 8.16175 17.2161C8.17531 17.0484 8.22507 16.9459 8.39694 16.8993C8.44669 16.8853 8.4874 16.7828 8.50549 16.7129C8.54168 16.5732 8.55977 16.4287 8.59143 16.2657C8.68189 16.2331 8.77687 16.1958 8.87185 16.1585C8.88542 16.1166 8.90351 16.084 8.91256 16.0467C8.95326 15.7951 8.9216 15.5016 9.24273 15.3944C9.27892 15.3804 9.28344 15.2779 9.30605 15.222C9.33319 15.1521 9.35581 15.031 9.39199 15.0264C9.64528 14.9844 9.63623 14.7608 9.65884 14.5977C9.69503 14.3881 9.77192 14.2576 9.9664 14.2297C10.0795 13.9408 9.92118 13.5308 10.3689 13.4563C10.4142 13.1581 10.4368 12.8552 10.7398 12.7061C10.767 12.6922 10.776 12.6409 10.7896 12.6036C10.88 12.352 10.88 12.352 11.1062 12.2542C11.1424 12.0632 11.1786 11.8582 11.2193 11.6299C11.4454 11.6066 11.5223 11.4575 11.5494 11.2339C11.5675 11.0708 11.5585 10.8611 11.8027 10.7866C11.8751 10.7633 11.8932 10.563 11.9475 10.4232C12.0243 10.3999 12.1193 10.3673 12.1827 10.344C12.3545 10.0784 12.1058 9.61717 12.6259 9.5799C12.6395 9.3982 12.6576 9.23047 12.6576 9.05808C12.6576 8.98354 12.6395 8.8624 12.5942 8.84377C12.2776 8.70399 12.3183 8.39649 12.246 8.11695C11.8344 8.03309 11.952 7.63707 11.8344 7.34354C11.6263 7.30627 11.5585 7.1432 11.5268 6.92889C11.5042 6.76582 11.4816 6.58412 11.2735 6.51889C11.2238 6.50491 11.2012 6.3698 11.174 6.28593C11.1152 6.09025 11.1198 5.86196 10.8891 5.7548C10.8393 5.73151 10.8212 5.62435 10.7896 5.55912C10.7534 5.49389 10.7263 5.38673 10.6765 5.37742C10.473 5.34014 10.4413 5.18174 10.4232 5.02333C10.3961 4.78571 10.3644 4.55742 10.0795 4.44094C10.2514 4.27787 10.4458 4.18935 10.4549 3.94242C10.4549 3.88185 10.6358 3.82129 10.7308 3.76538C10.8393 3.49515 10.681 3.08049 11.1288 3.02458C11.1514 2.88015 11.1695 2.76368 11.1831 2.6472C11.1966 2.50743 11.2238 2.39561 11.373 2.33504C11.4409 2.30709 11.5087 2.21391 11.5268 2.1347C11.554 2.00891 11.6037 1.9297 11.7123 1.85516C11.7937 1.79925 11.8434 1.66879 11.8615 1.56164C11.9022 1.32868 11.9655 1.12834 12.2188 1.08641C12.2641 0.853457 12.3048 0.648458 12.3455 0.429481C12.4947 0.368913 12.6621 0.322322 12.6666 0.0986866C12.6666 0.061414 12.7661 -0.00847164 12.8068 0.000846502C12.8701 0.0148237 12.9606 0.075391 12.9696 0.126641C12.9968 0.271072 13.0691 0.336299 13.1867 0.415504C13.2772 0.476072 13.3134 0.662434 13.3315 0.792888C13.3541 1.01652 13.4265 1.17493 13.6617 1.18891C13.7024 1.35198 13.725 1.49641 13.7793 1.62686C13.8154 1.71539 13.8878 1.79459 13.9421 1.87379C13.9964 1.953 14.0506 2.03686 14.0959 2.12072C14.1275 2.17663 14.132 2.27447 14.1727 2.28845C14.5074 2.41891 14.4441 2.73572 14.5074 3.01527C14.919 3.09913 14.7969 3.49515 14.9055 3.79333C15.1271 3.83526 15.213 4.00765 15.2402 4.23128C15.2628 4.38503 15.2809 4.55276 15.4799 4.59935C15.5161 4.60867 15.5613 4.67856 15.5658 4.72049C15.5749 4.91617 15.7106 4.99071 15.8327 5.11185C15.9503 5.22833 15.9548 5.4706 16.0226 5.69889C16.2578 5.7548 16.3392 5.97378 16.3483 6.23469C16.3528 6.36048 16.389 6.4723 16.5292 6.50491C16.6694 6.54218 16.692 6.654 16.7011 6.7798C16.7237 7.00343 16.7327 7.23639 17.0041 7.31559C17.0448 7.32957 17.0674 7.42275 17.09 7.48332C17.1127 7.54388 17.1217 7.65104 17.1534 7.66036C17.4338 7.71627 17.4247 7.95854 17.4383 8.15422C17.4564 8.37786 17.5604 8.48968 17.7685 8.52695C17.7956 8.69934 17.8092 8.85774 17.8409 9.01149C17.8544 9.08138 17.8951 9.1932 17.9404 9.20717C18.1484 9.26308 18.1575 9.42615 18.2072 9.59388C18.2524 9.73365 18.361 9.85478 18.4469 9.98058C18.4831 10.0318 18.56 10.0784 18.56 10.1297C18.5555 10.3533 18.7093 10.4092 18.845 10.4558C19.0033 10.7354 18.8269 11.1547 19.243 11.2478C19.2837 11.4156 19.2701 11.6206 19.3651 11.7138C19.6048 11.9514 19.6953 12.2402 19.7767 12.5477C20.0842 12.6409 19.9983 13.0928 20.3194 13.186C20.3647 13.2 20.3828 13.3211 20.4054 13.3957C20.4642 13.6007 20.4144 13.8616 20.7084 13.9361C20.7446 13.9455 20.7672 14.048 20.7808 14.1085C20.8396 14.3182 20.8351 14.5651 21.0929 14.6536C21.12 14.6629 21.1426 14.7189 21.1426 14.7561C21.1336 14.9798 21.2919 15.0403 21.4456 15.0776C21.604 15.3525 21.4049 15.8044 21.8663 15.8696C21.8979 16.0886 21.9296 16.2843 21.9613 16.4986C22.21 16.5545 22.305 16.7316 22.3095 16.9832C22.3141 17.1323 22.3412 17.2674 22.5176 17.3279C22.5809 17.3512 22.6216 17.4584 22.6668 17.5329C22.6985 17.5888 22.7076 17.696 22.7437 17.7007C22.988 17.7473 22.9925 17.9476 23.0061 18.1246C23.0242 18.3622 23.1101 18.5253 23.3498 18.5486C23.4312 18.8515 23.3769 19.2055 23.7478 19.308C23.7931 19.6062 23.7885 19.9184 24.1097 20.0582C24.1639 20.4262 24.6027 20.6126 24.5529 21.0366C24.5484 21.0831 24.6072 21.181 24.6479 21.1856C24.8786 21.2183 24.874 21.4139 24.9102 21.577C24.9509 21.7447 24.9555 21.9218 25.168 21.973C25.1997 21.9824 25.2404 22.0569 25.2404 22.0988C25.2359 22.3364 25.4078 22.4017 25.5706 22.4669C25.6746 22.7371 25.5163 23.1378 25.955 23.1844C25.9867 23.4034 26.0183 23.599 26.05 23.818C26.3169 23.8833 26.4073 24.0929 26.4164 24.3585C26.4209 24.4843 26.4616 24.5775 26.5928 24.638C26.6697 24.6753 26.7149 24.7871 26.7646 24.871C26.7918 24.9129 26.7918 25.0014 26.8189 25.0107C27.122 25.09 27.0948 25.3648 27.1219 25.5838C27.1446 25.7888 27.2848 25.8307 27.4205 25.882C27.5607 26.1476 27.3571 26.5995 27.8321 26.6088C27.8682 26.7905 27.8999 26.9303 27.9225 27.0747C27.9496 27.2331 27.8954 27.3356 27.7235 27.3403C27.5923 27.3449 27.4657 27.3449 27.3345 27.3449C22.0201 27.3543 16.7056 27.3589 11.3866 27.3682C10.2785 27.3682 9.17036 27.3729 8.05772 27.3729C7.92203 27.3729 7.80896 27.3822 7.74111 27.5406C7.70945 27.6105 7.61899 27.6571 7.55567 27.713C7.5014 27.7596 7.41094 27.8109 7.41094 27.8621C7.41998 28.1137 7.24359 28.151 7.09886 28.2115ZM18.949 20.0628C18.7545 20.0255 18.6143 19.9696 18.6188 19.7367C18.6233 19.4804 18.5283 19.2754 18.2615 19.2195C18.2027 18.9167 18.2524 18.5766 17.8951 18.4415C17.8635 18.4321 17.8635 18.3436 17.8454 18.297C17.8228 18.2365 17.8002 18.1386 17.764 18.1293C17.5107 18.0874 17.5197 17.873 17.5107 17.7007C17.4926 17.4537 17.375 17.3186 17.1715 17.2674C17.09 16.6896 17.09 16.6896 16.7689 16.5126C16.7101 16.2377 16.7373 15.9209 16.4207 15.7671C16.3799 15.7485 16.3799 15.646 16.3573 15.5854C16.3347 15.5249 16.3121 15.427 16.2759 15.4224C15.9864 15.3665 16.0543 15.1009 15.9774 14.9239C15.9367 14.8307 15.9277 14.6909 15.8598 14.6536C15.7377 14.5884 15.6698 14.5092 15.6065 14.3787C15.5387 14.2297 15.299 14.2203 15.2763 14.3601C15.2356 14.5977 15.0638 14.6257 14.9145 14.6769C14.7969 14.9658 14.9281 15.3665 14.5572 15.441C14.4667 15.6553 14.4034 15.8417 14.313 16.0094C14.227 16.1725 14.1185 16.3262 13.9737 16.5499C13.6617 16.6104 13.7702 16.9925 13.6526 17.2813C13.4717 17.3 13.3315 17.3885 13.3315 17.6215C13.3315 17.6541 13.2998 17.7146 13.2727 17.7146C13.0058 17.7612 13.0058 17.9988 13.0013 18.1759C12.9923 18.4275 12.8566 18.516 12.6666 18.5626C12.5897 18.8748 12.6756 19.2568 12.2731 19.3313C12.2007 19.6295 12.3274 20.0116 11.9248 20.0395C11.8434 20.1933 11.8072 20.375 11.7123 20.4169C11.5585 20.4868 11.5494 20.5939 11.5087 20.7197C11.4454 20.9154 11.5042 21.195 11.1966 21.2416C11.1695 21.2462 11.1605 21.3301 11.1424 21.3813C11.1152 21.4512 11.1062 21.563 11.0564 21.591C10.7805 21.7541 10.767 22.0383 10.7263 22.3225C10.6539 22.3551 10.5815 22.383 10.5227 22.4296C10.4775 22.4669 10.4187 22.5461 10.4323 22.5787C10.4549 22.6393 10.5227 22.7045 10.5815 22.7185C10.7444 22.7511 10.9117 22.7651 11.079 22.7651C13.9149 22.7697 16.7554 22.7744 19.5912 22.7791C19.745 22.7791 19.8943 22.7791 20.0481 22.7791C20.1611 22.4995 20.0571 22.2712 20.039 22.0196C19.7993 21.9684 19.7269 21.7867 19.6862 21.563C19.6636 21.4559 19.6229 21.3114 19.5415 21.2602C19.3018 21.1064 19.347 20.7151 19.0259 20.6359C19.0078 20.6312 19.0078 20.538 18.9987 20.4868C18.9897 20.361 18.9716 20.2305 18.949 20.0628Z" fill="#12202B"/>
<path d="M38.2031 19.5973C37.977 19.6393 37.7418 19.6672 37.597 19.9281C37.5473 20.012 37.3754 20.026 37.2262 20.0865C37.199 20.1611 37.1628 20.2683 37.1221 20.3894C36.9638 20.4173 36.8327 20.45 36.7196 20.6223C36.6246 20.7668 36.3668 20.7947 36.1316 20.8972C36.0864 21.023 36.0366 21.228 35.7788 21.214C35.7381 21.2094 35.6929 21.3026 35.6477 21.3398C35.5617 21.4097 35.4758 21.4889 35.3808 21.5402C35.218 21.6287 35.0054 21.624 34.933 21.8663C34.9149 21.9269 34.7566 21.9455 34.6255 21.9968C34.5395 22.0993 34.5667 22.3369 34.3315 22.3835C34.2772 22.3928 34.2546 22.5698 34.1958 22.7329C35.2406 22.7888 36.2175 22.7562 37.19 22.7609C38.1579 22.7655 39.1258 22.7609 40.0801 22.7609C40.2113 22.9053 40.1842 23.1522 40.4194 23.1802C40.4601 23.1848 40.4963 23.306 40.5189 23.3759C40.5777 23.5855 40.5641 23.8324 40.8219 23.9256C40.849 23.9349 40.8807 23.9909 40.8807 24.0235C40.8762 24.2611 41.0073 24.3869 41.2199 24.4009C41.2516 24.6245 41.2787 24.8062 41.3104 25.0158C41.5682 25.0438 41.6541 25.2162 41.6541 25.4724C41.6541 25.6402 41.6632 25.8125 41.8848 25.8824C41.9572 25.9057 41.9888 26.0781 42.0205 26.1853C42.0702 26.3623 42.0702 26.558 42.3009 26.6139C42.3326 26.6232 42.3778 26.6652 42.3778 26.6931C42.3823 26.9307 42.518 27.0705 42.7894 27.1497C42.6718 27.2475 42.622 27.3221 42.5632 27.3314C42.4004 27.3594 42.2285 27.3687 42.0612 27.3687C38.1262 27.3687 34.1913 27.3687 30.2563 27.3687C30.1161 27.3687 29.9759 27.3687 29.8402 27.3687C29.7316 27.1963 29.7181 26.9913 29.4964 26.9447C29.4422 26.9354 29.415 26.7677 29.3879 26.6745C29.3381 26.5021 29.3472 26.3018 29.1301 26.2179C29.0849 26.1993 29.0668 26.1107 29.0396 26.0548C29.017 25.9943 29.017 25.8871 28.9808 25.8731C28.6235 25.7566 28.6778 25.4258 28.6235 25.1323C28.5376 25.0857 28.4381 25.0345 28.325 24.9739C28.316 24.8994 28.3069 24.8202 28.2933 24.7456C28.2798 24.6664 28.2843 24.5499 28.2391 24.5173C27.9767 24.3496 27.9496 24.0048 27.7189 23.8091C27.6149 23.7206 27.5651 23.5436 27.529 23.3991C27.4928 23.2734 27.5018 23.1476 27.339 23.0917C27.2711 23.0684 27.2304 22.9332 27.1988 22.8447C27.1264 22.6444 27.1671 22.3975 26.8822 22.3089C26.7691 22.2717 26.7962 22.0434 26.9274 21.9968C27.0631 21.9502 27.149 21.885 27.1943 21.7452C27.2078 21.6986 27.2847 21.666 27.339 21.638C27.3933 21.6054 27.4656 21.6007 27.5109 21.5588C27.8139 21.2653 27.8094 21.2606 28.1984 21.1861C28.1848 20.8646 28.5828 20.9065 28.6597 20.6829C28.7818 20.3381 29.0939 20.5292 29.3155 20.3475C29.3608 20.217 29.3969 19.998 29.6638 20.04C29.6909 20.0446 29.7452 20.0073 29.7542 19.9794C29.8266 19.6998 30.0709 19.7138 30.2699 19.6393C30.3558 19.6067 30.4236 19.5275 30.496 19.4622C30.5412 19.4203 30.5774 19.3364 30.6227 19.3318C30.8488 19.3131 30.9166 19.1454 30.9438 18.9917C31.1925 18.8798 31.482 18.9544 31.6087 18.6609C31.6991 18.4466 32.1107 18.577 32.0383 18.1996C32.1876 18.167 32.3142 18.153 32.4318 18.1064C32.5223 18.0738 32.6308 18.0179 32.6716 17.9434C32.7394 17.8129 32.8118 17.7291 32.961 17.7291C32.9972 17.7291 33.0605 17.7104 33.065 17.6918C33.16 17.3237 33.5038 17.3889 33.7661 17.2632C33.7932 17.0768 33.8792 16.9324 34.1053 16.9324C34.1506 16.9324 34.2229 16.8578 34.232 16.8066C34.2636 16.6575 34.3541 16.6202 34.4807 16.6062C34.5169 16.6016 34.5757 16.5829 34.5802 16.5596C34.6616 16.1776 34.9963 16.2428 35.2632 16.1636C35.331 16.0052 35.3491 15.7955 35.5934 15.7955C35.6341 15.7955 35.7064 15.7117 35.7064 15.6604C35.7155 15.4275 35.8964 15.4415 36.0592 15.3995C36.0819 15.1712 36.1723 14.9802 36.4708 14.9662C36.4708 14.477 36.4889 14.0158 36.4618 13.5545C36.4527 13.3821 36.412 13.1958 36.204 13.0979C36.109 13.0513 36.0683 12.8929 35.9688 12.7392C35.815 12.7159 35.6115 12.6879 35.3853 12.6507C35.3084 12.3758 35.0778 12.3059 34.8245 12.3059C33.8973 12.3012 32.9655 12.3059 32.0383 12.3059C31.8031 12.3059 31.5996 12.3618 31.5589 12.646C31.3508 12.674 31.1609 12.7019 30.9574 12.7345C30.8669 12.8929 30.8533 13.1352 30.5865 13.1259C30.5593 13.1259 30.5231 13.2237 30.4915 13.2796C30.4553 13.3449 30.4327 13.4613 30.3829 13.4753C30.1116 13.5452 30.1161 13.7782 30.1025 13.9785C30.0889 14.1975 29.994 14.2907 29.7904 14.2907C29.5959 14.2907 29.4015 14.3 29.2115 14.3C28.0898 14.3 26.9681 14.3 25.8419 14.3C25.7379 14.3 25.6338 14.2953 25.5343 14.2953C25.3398 14.2953 25.2539 14.1928 25.263 13.9925C25.2856 13.5685 25.3037 13.1445 25.3353 12.7206C25.3399 12.632 25.3534 12.4876 25.4077 12.4643C25.6881 12.3385 25.6293 12.0776 25.6746 11.854C25.6926 11.7654 25.7198 11.6257 25.7695 11.6117C26.0273 11.5465 25.9957 11.3228 26.0409 11.1411C26.0635 11.0433 26.0816 10.8849 26.1449 10.8616C26.3168 10.7917 26.4254 10.7032 26.4434 10.5028C26.448 10.4656 26.5384 10.433 26.5927 10.405C26.647 10.3724 26.742 10.3491 26.7465 10.3118C26.7736 10.1115 26.8822 10.0136 27.0676 9.98102C27.0993 9.64091 27.5561 9.65954 27.5651 9.33341C27.7641 9.2775 28.0265 9.29148 28.0943 9.175C28.2798 8.87216 28.5873 8.89546 28.8361 8.76966C28.9311 8.72307 28.9899 8.60193 29.0713 8.50875C29.2205 8.49478 29.3743 8.49012 29.5281 8.46682C29.6095 8.45284 29.7226 8.42489 29.7588 8.36432C29.8945 8.13137 30.1116 8.11739 30.3332 8.10807C30.7583 8.08944 31.1835 8.07546 31.6087 8.05682C31.767 8.05217 31.9072 8.04285 31.9886 7.85182C32.0157 7.78194 32.1514 7.72137 32.2419 7.72137C33.1193 7.71205 33.9968 7.71205 34.8742 7.72137C35.0054 7.72137 35.1999 7.77262 35.2496 7.8658C35.3672 8.08012 35.5391 8.06148 35.7155 8.0708C35.9869 8.08478 36.2582 8.08012 36.5251 8.10807C36.6291 8.11739 36.7739 8.16864 36.81 8.24319C36.896 8.42023 37.0362 8.44353 37.19 8.46216C37.3302 8.4808 37.4749 8.47614 37.6106 8.5041C37.692 8.52273 37.8096 8.56466 37.8322 8.62523C37.9182 8.84887 38.0991 8.84421 38.2755 8.87216C38.4202 8.89546 38.6011 8.88614 38.6283 9.10977C38.6328 9.14239 38.669 9.20296 38.6871 9.20296C39.0037 9.17966 39.067 9.54307 39.3248 9.63159C39.4605 9.67818 39.5826 9.84591 39.6505 9.98568C39.7816 10.2512 40.1208 10.3165 40.1977 10.6286C40.2113 10.6845 40.3063 10.7218 40.3651 10.7637C40.4148 10.801 40.5053 10.829 40.5098 10.8709C40.537 11.0573 40.6229 11.1598 40.7857 11.2529C40.8626 11.2949 40.849 11.4952 40.8852 11.6164C40.9169 11.7235 40.944 11.8866 41.0164 11.9192C41.2154 12.0031 41.238 12.1521 41.238 12.3339C41.238 13.5173 41.238 14.696 41.238 15.8794C41.238 15.9679 41.229 16.117 41.1837 16.1357C40.9169 16.2521 40.9214 16.5037 40.8671 16.7274C40.8536 16.7786 40.84 16.8625 40.8129 16.8671C40.5234 16.9324 40.5686 17.2119 40.4917 17.4029C40.442 17.5287 40.4284 17.6638 40.2611 17.6778C40.2249 17.6825 40.1616 17.7104 40.1616 17.7244C40.1616 18.0552 39.7816 18.0412 39.6866 18.2881C39.664 18.3487 39.5736 18.386 39.5103 18.4233C39.3339 18.5164 39.1122 18.5397 39.0399 18.7867C39.0263 18.8379 38.9087 18.8519 38.8454 18.8892C38.7821 18.9264 38.7006 18.9637 38.6735 19.0243C38.6238 19.1454 38.5423 19.1967 38.4383 19.2572C38.3614 19.3271 38.3071 19.4622 38.2031 19.5973Z" fill="#12202B"/>
<path d="M66.978 27.3403C66.8016 27.3543 66.6795 27.3729 66.5528 27.3729C65.7161 27.3776 64.8748 27.3776 64.0381 27.3729C63.6084 27.3729 63.5858 27.3496 63.5858 26.8931C63.5813 24.5822 63.5858 22.2713 63.5858 19.9604C63.5858 19.6855 63.6355 19.4013 63.3461 19.2149C63.2782 19.1683 63.2692 19.0285 63.233 18.9447C62.8033 18.8562 56.2089 18.8701 55.8244 18.968C55.7973 19.2335 55.743 19.5177 55.7385 19.8019C55.7294 22.1268 55.734 24.4517 55.734 26.7719C55.734 27.3496 55.7204 27.3683 55.146 27.3729C54.2821 27.3776 53.4182 27.3776 52.5543 27.3729C52.4277 27.3729 52.3056 27.3543 52.1518 27.345C52.1427 27.1773 52.1292 27.0328 52.1292 26.8884C52.1292 20.8596 52.1292 14.8307 52.1292 8.80188C52.1292 8.14961 52.1337 8.14961 52.776 8.14961C53.5132 8.14961 54.2459 8.14961 54.9832 8.14961C55.4309 8.14961 55.7385 8.46642 55.7385 8.92767C55.7385 11.0243 55.7385 13.1255 55.743 15.2221C55.743 15.5249 55.7928 15.8231 55.8199 16.1632C55.9782 16.1818 56.1003 16.2051 56.2224 16.2051C58.4522 16.2051 60.6866 16.2051 62.9164 16.2051C63.0159 16.2051 63.1199 16.1865 63.1742 16.1818C63.2963 16.0141 63.4049 15.893 63.4863 15.7532C63.536 15.6694 63.5722 15.5622 63.5767 15.4644C63.5903 15.2547 63.5813 15.0404 63.5813 14.8261C63.5813 12.8879 63.5813 10.9497 63.5858 9.01154C63.5858 8.82983 63.6175 8.64347 63.6401 8.46177C63.6672 8.23813 63.7939 8.14961 64.011 8.15427C64.3864 8.16358 64.7572 8.15427 65.1326 8.15427C65.5985 8.15427 66.0598 8.14961 66.5257 8.15427C66.874 8.15893 66.9464 8.23347 66.9735 8.60154C66.9825 8.7087 66.978 8.81586 66.978 8.91835C66.978 14.882 66.978 20.8456 66.978 26.8045C66.978 26.9723 66.978 27.14 66.978 27.3403Z" fill="#12202B"/>
<path d="M127.671 16.2334C127.49 16.1775 127.323 16.1914 127.278 15.9771C127.264 15.9165 127.156 15.842 127.079 15.828C126.346 15.6976 125.613 15.7255 124.881 15.8094C124.808 15.8187 124.75 15.9119 124.682 15.9631C124.605 16.0237 124.537 16.1076 124.446 16.1355C124.234 16.2101 123.981 16.2194 123.926 16.5176C123.61 16.5968 123.605 16.8717 123.537 17.1279C123.51 17.2397 123.356 17.3189 123.221 17.4447C123.203 17.5985 123.18 17.8081 123.153 18.0411C122.909 18.111 122.854 18.3206 122.841 18.5536C122.818 19.0195 122.805 19.4807 122.787 19.9466C122.778 20.1423 122.796 20.3333 122.606 20.4824C122.529 20.543 122.52 20.7247 122.52 20.8505C122.511 21.554 122.515 22.2575 122.515 22.9611C122.515 24.2377 122.515 25.5096 122.515 26.7862C122.515 26.9539 122.497 27.1263 122.484 27.28C122.135 27.4012 119.688 27.4012 119.222 27.2847C119.209 27.1589 119.186 27.0191 119.186 26.8793C119.186 20.3986 119.186 13.9131 119.186 7.43238C119.186 6.98976 119.213 6.94783 119.643 6.94317C120.48 6.9292 121.321 6.93386 122.158 6.93851C122.456 6.93851 122.488 6.98511 122.506 7.28329C122.515 7.40442 122.511 7.5209 122.511 7.64203C122.511 9.73862 122.511 11.8399 122.511 13.9364C122.511 14.0949 122.511 14.2533 122.511 14.4163C122.515 14.9987 122.556 15.0406 123.166 14.9754C123.221 14.8263 123.248 14.6213 123.479 14.6027C123.519 14.598 123.551 14.5095 123.592 14.4583C123.637 14.4023 123.682 14.2998 123.732 14.2952C123.958 14.2812 123.981 14.0995 124.017 13.9458C124.293 13.8293 124.659 13.9038 124.736 13.5218C124.912 13.5031 125.053 13.4845 125.193 13.4705C125.315 13.4612 125.401 13.4193 125.469 13.2935C125.514 13.2096 125.645 13.1304 125.736 13.1258C126.676 13.1118 127.617 13.1118 128.562 13.1164C128.644 13.1164 128.757 13.1491 128.798 13.2096C128.956 13.4239 129.177 13.4659 129.413 13.4892C129.594 13.5031 129.77 13.5311 129.865 13.7361C129.897 13.806 130.005 13.8339 130.073 13.8852C130.132 13.9271 130.218 13.9691 130.231 14.025C130.268 14.1694 130.331 14.2626 130.48 14.2859C130.521 14.2905 130.593 14.3418 130.593 14.3744C130.602 14.6213 130.797 14.6493 130.946 14.7098C131.077 14.9708 130.896 15.3808 131.358 15.4413C131.371 15.637 131.38 15.8187 131.394 16.0051C131.412 16.2147 131.394 16.429 131.624 16.5595C131.683 16.5921 131.706 16.7179 131.715 16.8064C131.737 17.0161 131.756 17.2304 131.756 17.4401C131.76 20.6036 131.765 23.7624 131.765 26.9259C131.765 27.0424 131.751 27.1589 131.742 27.266C131.453 27.3685 129.114 27.4012 128.485 27.3126C128.472 27.1449 128.449 26.9679 128.449 26.7908C128.445 24.2516 128.449 21.7171 128.445 19.1779C128.445 18.7912 128.422 18.4092 128.404 18.0224C128.4 17.8734 128.377 17.7429 128.219 17.659C128.151 17.6218 128.119 17.4867 128.101 17.3888C128.069 17.2071 128.074 17.0161 128.042 16.8344C128.029 16.7505 127.979 16.6247 127.925 16.6107C127.739 16.5828 127.708 16.4151 127.671 16.2334Z" fill="#12202B"/>
<path d="M97.4762 27.3542C96.4947 27.3542 95.5675 27.3542 94.6087 27.3542C94.577 27.1259 94.5499 26.9069 94.5137 26.66C94.3463 26.632 94.1835 26.5994 94.0207 26.5854C93.9528 26.5808 93.8262 26.6134 93.8126 26.6553C93.7222 27.0187 93.4236 26.9302 93.1884 26.9768C93.1613 26.9815 93.1387 26.9908 93.0935 27.0048C93.012 27.2983 92.7814 27.3589 92.5055 27.3542C92.3517 27.3495 92.1934 27.3589 92.0441 27.3821C91.922 27.4054 91.7411 27.4287 91.6913 27.5126C91.5511 27.7688 91.334 27.7362 91.1215 27.7362C90.3842 27.7409 89.6515 27.7362 88.9143 27.7362C88.7695 27.7362 88.661 27.7129 88.5524 27.5778C88.462 27.466 88.2675 27.4194 88.1092 27.3821C87.9328 27.3449 87.7519 27.3495 87.5438 27.3309C87.4714 26.9395 87.1458 26.9675 86.8518 26.9209C86.7613 26.7858 86.7478 26.5575 86.5126 26.5575C86.4719 26.5575 86.395 26.4783 86.3904 26.4317C86.3724 26.2733 86.2909 26.2081 86.1462 26.1661C86.0919 26.1521 86.0467 26.059 86.0105 25.9984C85.9789 25.9425 85.9743 25.8447 85.9336 25.8307C85.6803 25.7282 85.6713 25.5045 85.6396 25.2762C85.6261 25.1924 85.5808 25.0619 85.5311 25.0479C85.3049 24.9874 85.3049 24.815 85.3049 24.6426C85.3004 23.9764 85.3004 23.3148 85.2959 22.6485C85.2959 22.5088 85.3547 22.4202 85.4406 22.3084C85.5537 22.1547 85.5899 21.931 85.6442 21.7353C85.6984 21.5303 85.6261 21.2694 85.9291 21.1949C85.9653 21.1856 85.9924 21.0831 86.0015 21.0225C86.015 20.9014 86.0738 20.8408 86.1914 20.8035C86.2548 20.7849 86.3362 20.7197 86.3452 20.6591C86.3769 20.51 86.4402 20.4261 86.594 20.4029C86.6437 20.3935 86.7161 20.3283 86.7251 20.2817C86.7523 20.1047 86.8473 20.0348 87.0146 20.0301C87.0463 20.0301 87.1051 19.9975 87.1096 19.9742C87.1729 19.6434 87.4488 19.718 87.6569 19.6527C87.7383 19.6294 87.8514 19.5968 87.8785 19.5363C87.9644 19.3313 88.1363 19.3359 88.2991 19.3219C88.4936 19.3033 88.6881 19.308 88.8781 19.28C89.0545 19.2567 89.2263 19.2381 89.3485 19.0517C89.3982 18.9772 89.5475 18.9446 89.6515 18.9399C90.2983 18.9213 90.9405 18.9073 91.5873 18.9026C92.2703 18.898 92.9532 18.9026 93.6407 18.898C93.8036 18.898 93.9709 18.8747 94.1699 18.8607C94.1925 18.6417 94.2242 18.4507 94.2242 18.255C94.2287 17.9522 94.2151 17.6447 94.1971 17.3372C94.188 17.1601 94.2106 16.9505 93.9709 16.8853C93.9347 16.8759 93.9076 16.8107 93.8805 16.7641C93.7267 16.4846 93.5186 16.2656 93.2518 16.0979C93.1658 16.042 93.1161 15.9255 93.0211 15.7997C92.9125 15.7811 92.7588 15.7624 92.6095 15.7298C92.5236 15.7112 92.3969 15.6925 92.3698 15.632C92.2658 15.3944 92.0667 15.4083 91.8768 15.4083C91.2707 15.4037 90.6646 15.4037 90.0586 15.413C89.9591 15.413 89.8098 15.4176 89.7691 15.4782C89.6153 15.7251 89.3801 15.7065 89.154 15.7251C88.8962 15.7484 88.6384 15.7578 88.3805 15.7811C88.1861 15.7997 88.0097 15.823 87.883 16.0233C87.8333 16.1072 87.6614 16.1258 87.5438 16.1491C87.3222 16.1911 87.0689 16.1584 86.992 16.4659C86.7975 16.4147 86.793 16.2563 86.793 16.1398C86.7885 15.4363 86.802 14.7328 86.8111 14.0292C86.8111 14.0059 86.8337 13.9827 86.8699 13.9174C87.0191 13.8988 87.1955 13.8895 87.3719 13.8615C87.5574 13.8289 87.7564 13.8336 87.8649 13.6099C87.8921 13.5494 88.0142 13.5214 88.0956 13.5074C88.2629 13.4841 88.4303 13.4888 88.5976 13.4748C88.774 13.4608 88.9233 13.4422 89.068 13.2698C89.1675 13.1487 89.4163 13.1207 89.6017 13.1207C90.7641 13.1067 91.922 13.1067 93.0844 13.1021C93.2156 13.1021 93.3422 13.1114 93.4734 13.1114C93.6453 13.1114 93.7855 13.1394 93.9166 13.2885C94.0071 13.391 94.1835 13.4329 94.3327 13.4608C94.5091 13.4981 94.6901 13.4935 94.8891 13.5121C94.9976 13.8615 95.3052 13.8522 95.5947 13.9174C95.6625 14.0805 95.6851 14.3041 95.9474 14.2995C95.9791 14.2995 96.0153 14.3973 96.0515 14.4439C96.1057 14.5091 96.1691 14.565 96.2279 14.6256C96.2912 14.6955 96.359 14.7654 96.4178 14.8399C96.4495 14.8772 96.4495 14.9704 96.4766 14.975C96.8068 15.0496 96.7435 15.3478 96.8068 15.5761C96.8249 15.6459 96.852 15.7578 96.9018 15.7764C97.1234 15.8463 97.1053 16.028 97.1189 16.1957C97.137 16.4054 97.1325 16.6197 97.1641 16.8293C97.1913 17.0297 97.1686 17.258 97.4083 17.3745C97.4626 17.3978 97.4852 17.5329 97.4898 17.6214C97.5033 17.873 97.5124 18.1246 97.5124 18.3762C97.5169 21.2042 97.5169 24.0369 97.5169 26.865C97.4943 27.0234 97.4852 27.1678 97.4762 27.3542ZM94.179 23.8832C94.2875 22.8535 94.3101 21.8565 94.1744 20.8827C94.1066 20.8501 94.084 20.8268 94.0614 20.8268C93.0708 20.8268 92.0758 20.8268 91.0853 20.8361C91.0129 20.8361 90.8998 20.8594 90.8772 20.906C90.7325 21.2089 90.452 21.1576 90.2078 21.1949C89.9862 21.2275 89.7284 21.1669 89.6334 21.4744C89.6244 21.5071 89.5475 21.5303 89.5022 21.5397C89.3756 21.563 89.2987 21.6235 89.258 21.7586C89.2399 21.8192 89.1585 21.8611 89.1087 21.9171C89.0409 21.9869 88.9776 22.0568 88.9143 22.1314C88.86 22.1966 88.8238 22.3038 88.756 22.3271C88.5931 22.3876 88.5886 22.5088 88.5841 22.6439C88.5796 23.0166 88.566 23.3847 88.575 23.7574C88.5796 24.009 88.5027 24.3072 88.8509 24.4097C88.8781 24.419 88.8781 24.4842 88.9052 24.5122C88.9776 24.5914 89.059 24.6659 89.1359 24.7451C89.1902 24.7964 89.267 24.8383 89.2897 24.9035C89.3394 25.0433 89.4389 25.0666 89.561 25.0712C89.8324 25.0806 90.1038 25.0852 90.3706 25.1085C90.5561 25.1271 90.7506 25.1225 90.8772 25.3322C90.9586 25.4719 91.1169 25.4673 91.1938 25.3228C91.3114 25.1085 91.5059 25.1085 91.6959 25.0945C91.8768 25.0806 92.0577 25.0945 92.2386 25.0759C92.4286 25.0573 92.6683 25.1225 92.7361 24.8243C92.7452 24.7917 92.8176 24.7637 92.8628 24.7498C93.107 24.6892 93.3829 24.7032 93.4915 24.3864C93.5051 24.3491 93.6091 24.3537 93.6679 24.3211C93.7222 24.2932 93.799 24.2419 93.8036 24.2C93.8081 23.967 93.989 23.9437 94.179 23.8832Z" fill="#12202B"/>
<path d="M73.9842 23.1845C74.061 23.5013 74.0475 23.8228 74.3822 23.9439C74.3596 24.3073 74.7802 24.2934 74.8933 24.5683C74.934 24.6614 75.1692 24.6708 75.3094 24.7267C75.3908 24.7546 75.522 24.7779 75.5401 24.8292C75.6124 25.0761 75.8024 25.0575 75.9743 25.0668C76.2682 25.0854 76.5668 25.0854 76.8653 25.0994C77.1367 25.1134 77.408 25.1227 77.5754 25.4628C77.9056 25.0062 78.3624 25.1134 78.7875 25.0901C79.0182 25.0761 79.2534 25.0854 79.4841 25.0668C79.6921 25.0481 79.9137 25.0901 80.0494 24.8198C80.0901 24.736 80.3027 24.7267 80.4384 24.708C80.6148 24.6801 80.7957 24.6894 80.8952 24.4797C80.9269 24.4192 81.0445 24.3866 81.1259 24.3679C81.2254 24.34 81.3294 24.3446 81.4334 24.3306C81.9355 24.2514 81.9491 24.2608 81.9491 24.7966C81.9491 25.2345 81.9581 25.6725 81.9445 26.1104C81.9355 26.3713 81.8948 26.6322 81.8631 26.9164C81.6189 26.949 81.4063 26.9817 81.1756 27.0143C81.1033 27.3218 80.8817 27.3684 80.6148 27.3637C80.4203 27.359 80.2258 27.373 80.0359 27.401C79.9273 27.4196 79.769 27.4522 79.7283 27.5314C79.6107 27.7644 79.4207 27.7411 79.2308 27.7411C78.0458 27.7411 76.8562 27.7411 75.6712 27.7411C75.4722 27.7411 75.2506 27.7784 75.1692 27.4942C75.1511 27.4429 75.0199 27.4056 74.9385 27.3963C74.6943 27.3684 74.45 27.359 74.1832 27.3404C74.1018 27.0469 73.8756 26.963 73.6042 26.9584C73.5319 26.9584 73.4007 26.9397 73.3916 26.9025C73.3057 26.6043 73.0343 26.6415 72.8353 26.5484C72.7991 26.5344 72.7403 26.5297 72.7313 26.5018C72.6499 26.2968 72.4554 26.2176 72.3197 26.0778C72.2066 25.9613 72.1433 25.8122 71.9624 25.7796C71.9353 25.775 71.8946 25.7237 71.8946 25.6911C71.89 25.4628 71.7272 25.4209 71.5463 25.3929C71.492 25.0994 71.4694 24.7966 71.1754 24.6475C71.0397 24.2328 70.6372 23.9253 70.7276 23.4175C70.7548 23.273 70.6915 23.1566 70.5648 23.0447C70.4653 22.9562 70.4065 22.7745 70.3975 22.6301C70.3613 22.1828 70.3432 21.7262 70.3477 21.279C70.3522 20.2959 70.3658 19.3128 70.3929 18.3344C70.3975 18.1015 70.3522 17.8173 70.6598 17.6915C70.7095 17.6728 70.7186 17.5284 70.7322 17.4399C70.7593 17.2582 70.7774 17.0718 70.8 16.8901C70.8136 16.769 70.8407 16.6525 70.9809 16.6199C71.0035 16.6152 71.0442 16.6012 71.0488 16.5826C71.1121 16.1773 71.5825 15.963 71.5056 15.4924C71.6865 15.4225 71.8765 15.3945 71.8855 15.1476C71.8855 15.101 71.9941 15.0591 72.0483 15.0078C72.1026 14.9613 72.1795 14.9147 72.2021 14.8541C72.2473 14.733 72.3061 14.6538 72.4373 14.6165C72.4961 14.5978 72.5413 14.5186 72.5911 14.4674C72.6408 14.4115 72.6861 14.309 72.7358 14.309C72.962 14.2997 72.9891 14.1226 73.0298 13.9549C73.1791 13.9176 73.3148 13.885 73.4504 13.8524C73.5138 13.8338 73.6087 13.8244 73.6268 13.7825C73.749 13.4843 74.0068 13.5263 74.2465 13.489C74.3369 13.475 74.4545 13.4331 74.5043 13.3585C74.6355 13.1722 74.8209 13.1349 75.0154 13.1349C76.1506 13.1302 77.2859 13.1256 78.4212 13.1349C78.6202 13.1349 78.8373 13.1349 78.9504 13.3818C78.973 13.4331 79.077 13.4657 79.1448 13.4797C79.2986 13.5076 79.4524 13.5123 79.6243 13.5309C79.7554 13.8571 80.063 13.8757 80.366 13.9269C80.4248 14.0853 80.5153 14.1925 80.6555 14.2997C80.85 14.4534 81.1033 14.5745 81.2118 14.8355C81.2344 14.8867 81.2887 14.9566 81.3385 14.9659C81.4968 14.9939 81.5465 15.0964 81.5737 15.2361C81.5872 15.292 81.637 15.3666 81.6822 15.3806C81.8405 15.4178 81.8767 15.525 81.8993 15.6648C81.9084 15.7207 81.9581 15.8092 82.0033 15.8139C82.234 15.8511 82.2295 16.0328 82.2476 16.2052C82.2792 16.5034 82.2566 16.8202 82.5642 17.0112C82.6094 17.0392 82.6139 17.1557 82.6185 17.2349C82.6366 17.4352 82.6411 17.6309 82.6592 17.8312C82.6682 17.9198 82.6818 18.0549 82.7361 18.0828C82.9758 18.204 82.9532 18.4276 82.9622 18.6326C82.9893 19.4013 83.0074 20.1701 83.0255 20.9388C83.0301 21.0413 83.0074 21.1485 82.9893 21.2557C82.9622 21.4374 82.8672 21.5399 82.6727 21.5259C82.5551 21.5166 82.4421 21.5259 82.3245 21.5259C79.6017 21.5259 76.8834 21.5259 74.1605 21.5259C73.8847 21.5259 73.6268 21.5538 73.3826 21.7495C73.4188 21.8147 73.4369 21.8893 73.4776 21.9172C73.6087 21.9964 73.6359 22.1083 73.6404 22.2527C73.6449 22.4391 73.6766 22.6208 73.6811 22.8071C73.6721 23.0214 73.7535 23.1566 73.9842 23.1845ZM73.3102 18.6699C73.4685 18.7864 73.6133 18.8376 73.6404 18.9261C73.7625 19.2849 74.043 19.2383 74.3098 19.2383C75.9064 19.2383 77.503 19.2383 79.0996 19.2383C79.1765 19.2383 79.2534 19.2336 79.3303 19.2336C79.4976 19.2383 79.5971 19.1591 79.6333 18.9913C79.6605 18.8609 79.7012 18.7351 79.7057 18.6046C79.7102 18.3251 79.6921 18.0502 79.6831 17.7707C79.6786 17.5191 79.6424 17.2908 79.3529 17.2489C79.3212 17.0252 79.2896 16.8342 79.2579 16.6245C79.0951 16.5733 78.9187 16.536 78.9051 16.3124C78.9051 16.2751 78.8463 16.2099 78.8101 16.2052C78.584 16.1959 78.5297 16.0095 78.4664 15.8278C78.2629 15.7999 78.0684 15.7906 77.8829 15.7486C77.7472 15.7207 77.5618 15.6974 77.503 15.5995C77.3764 15.3945 77.209 15.4085 77.0326 15.4085C76.7748 15.4085 76.517 15.4085 76.2592 15.4178C76.1733 15.4225 76.0421 15.4411 76.015 15.497C75.8793 15.758 75.635 15.7347 75.4134 15.7719C75.341 15.7859 75.2144 15.7859 75.2008 15.8278C75.0742 16.1586 74.7666 16.1633 74.5224 16.2658C74.4319 16.4009 74.2962 16.4987 74.2194 16.6339C74.1244 16.7969 74.0746 16.9926 74.0158 17.1743C73.957 17.3653 73.6449 17.3327 73.6811 17.6123C73.6992 17.7381 73.6495 17.8732 73.6449 18.0036C73.6404 18.2645 73.6404 18.5161 73.3102 18.6699Z" fill="#12202B"/>
<path d="M154.827 15.823C154.569 15.7904 154.352 15.7671 154.135 15.7345C154 15.7112 153.864 15.6926 153.773 15.5435C153.728 15.4736 153.602 15.427 153.511 15.427C152.828 15.4224 152.145 15.427 151.458 15.4363C151.376 15.4363 151.245 15.4643 151.218 15.5202C151.096 15.7578 150.874 15.7345 150.68 15.7578C150.49 15.7811 150.291 15.7718 150.101 15.7904C149.902 15.8091 149.685 15.7764 149.576 16.0374C149.549 16.1026 149.4 16.1305 149.305 16.1538C148.92 16.2377 148.92 16.2377 148.721 16.4474C148.513 16.1492 148.441 14.7421 148.604 13.9361C148.726 13.9175 148.861 13.8942 149.002 13.8802C149.146 13.8662 149.269 13.8476 149.341 13.6752C149.373 13.596 149.522 13.5448 149.621 13.5308C149.902 13.4982 150.187 13.4982 150.472 13.4702C150.567 13.4609 150.707 13.4329 150.743 13.3631C150.861 13.1487 151.06 13.1301 151.245 13.1301C152.602 13.1208 153.954 13.1254 155.311 13.1348C155.411 13.1348 155.569 13.1953 155.596 13.2652C155.659 13.4469 155.782 13.4609 155.926 13.4749C156.157 13.4935 156.388 13.5168 156.636 13.5354C156.695 13.7917 156.863 13.8942 157.107 13.9035C157.252 13.9082 157.383 13.9501 157.423 14.1365C157.437 14.197 157.518 14.2762 157.577 14.2855C157.726 14.3088 157.776 14.3974 157.835 14.5325C157.88 14.635 158.025 14.6862 158.161 14.7841C158.188 14.9378 158.219 15.1288 158.26 15.3525C158.518 15.3851 158.59 15.5668 158.586 15.823C158.581 15.9908 158.581 16.1538 158.776 16.261C158.857 16.3029 158.893 16.4893 158.902 16.6104C158.934 17.2068 158.97 17.8031 158.97 18.3995C158.979 21.2136 158.975 24.0323 158.975 26.8464C158.975 26.9908 158.975 27.1353 158.975 27.2611C158.645 27.3869 156.546 27.4055 156.062 27.289C156.048 27.1353 156.039 26.9675 156.017 26.7998C155.99 26.5855 155.904 26.5063 155.705 26.5622C155.533 26.6088 155.32 26.6041 155.225 26.8417C155.198 26.9116 155.031 26.9396 154.927 26.9489C154.696 26.9722 154.493 27.0281 154.452 27.3216C154.257 27.3356 154.076 27.3403 153.9 27.3589C153.687 27.3775 153.457 27.3449 153.353 27.6291C153.335 27.6804 153.199 27.7177 153.122 27.7177C152.204 27.7223 151.29 27.7223 150.372 27.7177C150.291 27.7177 150.151 27.6897 150.132 27.6384C150.019 27.317 149.753 27.3729 149.517 27.3449C149.454 27.3356 149.391 27.3309 149.309 27.3263C149.174 27.0281 148.907 26.9489 148.703 26.9303C148.536 26.7858 148.423 26.6927 148.314 26.5995C148.264 26.5575 148.197 26.5249 148.179 26.469C148.133 26.3292 148.061 26.25 147.921 26.2035C147.862 26.1848 147.83 26.0916 147.781 26.0311C147.726 25.9658 147.686 25.868 147.618 25.84C147.505 25.7935 147.459 25.7282 147.446 25.6071C147.437 25.5465 147.41 25.458 147.369 25.444C147.093 25.3508 147.093 25.0946 147.093 24.8849C147.075 23.9438 147.084 22.998 147.093 22.0569C147.093 21.8798 147.116 21.6795 147.337 21.6049C147.382 21.591 147.405 21.5024 147.437 21.4512C147.441 21.4419 147.446 21.4232 147.441 21.4139C147.405 21.1484 147.731 21.1484 147.776 20.9154C147.812 20.7244 147.857 20.4821 148.124 20.4495C148.26 20.142 148.5 20.0115 148.812 19.9976C148.834 19.9976 148.866 19.9696 148.871 19.951C148.916 19.6575 149.155 19.6901 149.345 19.6528C149.486 19.6248 149.612 19.6109 149.689 19.4478C149.721 19.3779 149.857 19.3406 149.947 19.3267C150.178 19.2987 150.413 19.3034 150.639 19.2708C150.833 19.2428 151.051 19.2568 151.177 19.0238C151.218 18.9539 151.381 18.9353 151.489 18.9306C152.082 18.912 152.674 18.9027 153.271 18.898C153.941 18.8934 154.615 18.9027 155.284 18.8934C155.488 18.8887 155.691 18.8514 155.908 18.8281C156.03 18.3669 155.976 17.9289 155.949 17.4956C155.944 17.4584 155.931 17.4025 155.904 17.3931C155.623 17.2813 155.655 17.0204 155.628 16.7968C155.614 16.6663 155.574 16.5778 155.442 16.5266C155.375 16.4986 155.325 16.4101 155.271 16.3449C155.225 16.2889 155.18 16.1864 155.135 16.1818C154.922 16.1818 154.9 15.9908 154.827 15.823ZM155.953 20.8409C155.768 20.8269 155.628 20.8036 155.488 20.8036C154.61 20.8082 153.737 20.8129 152.86 20.8222C152.629 20.8269 152.389 20.8082 152.258 21.0738C152.236 21.1204 152.15 21.139 152.091 21.153C151.824 21.2043 151.516 21.1484 151.372 21.4838C151.073 21.549 150.829 21.6795 150.621 21.9404C150.526 22.0615 150.417 22.1454 150.399 22.3085C150.381 22.4389 150.395 22.6346 150.322 22.6812C149.97 22.9188 150.092 23.2636 150.087 23.5804C150.087 23.6643 150.128 23.7901 150.182 23.8227C150.372 23.9205 150.363 24.0929 150.381 24.2606C150.395 24.3771 150.426 24.4889 150.449 24.5961C150.702 24.7172 151.005 24.7079 151.141 25.0061C151.159 25.0433 151.254 25.0573 151.317 25.0666C152.267 25.1738 153.217 25.1179 154.167 25.0433C154.253 25.0387 154.398 25.0201 154.416 24.9735C154.511 24.6986 154.759 24.7358 154.949 24.6473C155.04 24.6054 155.112 24.5355 155.194 24.4749C155.261 24.419 155.316 24.3352 155.393 24.3072C155.519 24.2653 155.587 24.2001 155.619 24.0649C155.632 24.009 155.678 23.9205 155.723 23.9112C156.039 23.8273 155.999 23.5618 156.003 23.3335C156.017 22.6719 156.012 22.0056 156.008 21.344C155.999 21.1996 155.972 21.0459 155.953 20.8409Z" fill="#12202B"/>
<path d="M109.81 15.8187C108.942 15.7489 108.119 15.8281 107.286 15.7628C107.286 14.9987 107.286 14.2859 107.286 13.5311C107.463 13.5125 107.626 13.4845 107.788 13.4845C108.331 13.4799 108.874 13.4845 109.412 13.4752C109.779 13.4706 109.81 13.4519 109.837 13.0699C109.864 12.6739 109.855 12.2732 109.855 11.8772C109.86 11.388 109.851 10.8941 109.86 10.4049C109.865 10.1114 109.883 10.0974 110.159 10.0461C110.235 10.0322 110.312 10.0182 110.389 10.0182C111.239 10.0182 112.09 10.0182 112.945 10.0182C113.008 10.0182 113.067 10.0415 113.157 10.0555C113.166 10.1673 113.184 10.2698 113.184 10.3676C113.184 11.1224 113.18 11.8818 113.18 12.6366C113.18 12.8463 113.144 13.0792 113.442 13.1258C113.465 13.1305 113.496 13.1538 113.501 13.1724C113.564 13.5638 113.858 13.4799 114.103 13.4799C114.749 13.4845 115.392 13.4799 116.038 13.4799C116.179 13.4799 116.319 13.4799 116.482 13.4799C116.504 13.6197 116.531 13.7175 116.536 13.82C116.54 14.3372 116.54 14.8543 116.536 15.3715C116.531 15.7628 116.522 15.7815 116.147 15.7815C115.45 15.7861 114.754 15.7815 114.057 15.7861C113.904 15.7861 113.754 15.7861 113.596 15.7861C113.528 15.9958 113.496 16.1775 113.293 16.2567C113.239 16.28 113.207 16.4104 113.189 16.499C113.171 16.6015 113.18 16.7086 113.18 16.8158C113.18 18.6468 113.18 20.4778 113.18 22.3135C113.18 22.4859 113.198 22.6583 113.216 22.8306C113.221 22.8959 113.225 22.9891 113.266 23.017C113.596 23.2453 113.501 23.5994 113.528 23.9162C113.546 24.1119 113.515 24.3262 113.786 24.3728C113.827 24.3821 113.854 24.4753 113.89 24.5265C113.94 24.5964 113.989 24.7083 114.053 24.7129C114.252 24.7315 114.279 24.9039 114.374 25.0623C115.07 25.0623 115.776 25.0623 116.518 25.0623C116.536 25.2207 116.558 25.3465 116.563 25.4723C116.568 25.9895 116.568 26.5067 116.563 27.0238C116.563 27.103 116.563 27.1822 116.549 27.2614C116.486 27.6621 116.418 27.7273 116.02 27.732C115.066 27.7413 114.112 27.7367 113.157 27.7367C112.994 27.7367 112.845 27.7413 112.723 27.5549C112.655 27.4478 112.461 27.4059 112.316 27.3732C112.144 27.336 111.959 27.336 111.773 27.3173C111.705 27.1356 111.651 27.0005 111.438 26.926C111.253 26.8654 111.068 26.6511 110.995 26.4601C110.923 26.2737 110.823 26.1852 110.647 26.1339C110.624 26.0035 110.593 25.873 110.579 25.7426C110.561 25.6028 110.534 25.491 110.38 25.4397C110.317 25.4164 110.258 25.3093 110.244 25.2347C110.217 25.081 110.222 24.9179 110.208 24.7595C110.195 24.5778 110.19 24.3961 110.005 24.275C109.937 24.233 109.914 24.0933 109.905 23.9908C109.883 23.6879 109.86 23.3804 109.86 23.0776C109.855 20.9251 109.86 18.7773 109.855 16.6248C109.851 16.3778 109.824 16.1309 109.81 15.8187Z" fill="#12202B"/>
<path d="M144.601 16.1539C144.483 15.8278 144.284 15.7859 144.049 15.7859C143.149 15.7905 142.245 15.7765 141.345 15.7859C141.087 15.7859 140.788 15.7393 140.662 16.0794C140.657 16.0887 140.643 16.1027 140.634 16.1027C140.286 16.1306 140.037 16.345 139.811 16.5919C139.752 16.6525 139.685 16.7084 139.63 16.7689C139.608 16.7969 139.612 16.8621 139.585 16.8761C139.296 17.0205 139.228 17.2861 139.178 17.5796C139.164 17.6588 139.015 17.7147 138.88 17.8172C138.87 17.9337 138.843 18.1014 138.839 18.2738C138.834 18.4928 138.821 18.6885 138.595 18.8143C138.527 18.8515 138.486 18.996 138.482 19.0891C138.472 19.9511 138.472 20.813 138.486 21.6796C138.486 21.7821 138.545 21.9405 138.617 21.9778C138.812 22.071 138.816 22.234 138.83 22.4064C138.843 22.5648 138.839 22.7279 138.875 22.8816C138.898 22.9701 138.961 23.082 139.038 23.1146C139.169 23.1751 139.205 23.259 139.219 23.3895C139.223 23.4407 139.246 23.5199 139.273 23.5292C139.549 23.5945 139.562 23.8507 139.621 24.0511C139.694 24.284 139.888 24.2887 140.046 24.3446C140.173 24.3912 140.268 24.4145 140.331 24.5636C140.363 24.6428 140.512 24.68 140.612 24.7126C140.797 24.7686 141.028 24.722 141.123 24.9875C141.141 25.0388 141.281 25.0621 141.367 25.0621C142.281 25.0621 143.199 25.0574 144.113 25.0528C144.262 25.0528 144.384 25.0201 144.456 24.8524C144.479 24.7965 144.606 24.7639 144.678 24.7732C144.723 24.7779 144.787 24.8897 144.787 24.9549C144.796 25.7376 144.791 26.5157 144.791 27.3217C144.673 27.3497 144.578 27.373 144.483 27.4009C144.384 27.4289 144.239 27.4382 144.199 27.5034C144.031 27.797 143.769 27.741 143.516 27.741C142.471 27.7457 141.426 27.741 140.381 27.741C140.191 27.741 140.028 27.7457 139.875 27.5454C139.78 27.4196 139.531 27.4102 139.345 27.3776C139.128 27.3404 138.866 27.4102 138.762 27.1121C138.757 27.1027 138.739 27.0981 138.73 27.0888C138.536 26.935 138.228 27.0701 138.074 26.8232C137.93 26.5903 137.676 26.6135 137.45 26.5157C137.414 26.3433 137.351 26.1756 137.12 26.1616C137.079 26.157 137.021 26.0731 137.012 26.0218C136.984 25.896 136.912 25.8588 136.803 25.8215C136.736 25.7982 136.659 25.7097 136.641 25.6398C136.609 25.5233 136.559 25.4581 136.437 25.4348C136.396 25.4301 136.329 25.3789 136.324 25.3463C136.306 25.1133 136.188 24.9875 135.967 24.9968C135.931 24.7546 135.903 24.5589 135.872 24.3446C135.569 24.298 135.546 24.065 135.537 23.8134C135.533 23.669 135.528 23.5199 135.496 23.3801C135.478 23.3009 135.424 23.1938 135.361 23.1658C135.171 23.0913 135.166 22.9375 135.162 22.7791C135.148 22.4204 135.13 22.0616 135.116 21.7029C135.107 21.5165 135.107 21.3395 134.94 21.1997C134.877 21.1438 134.845 21.0133 134.845 20.9155C134.836 20.4915 134.841 20.0675 134.845 19.6389C134.845 19.5504 134.863 19.4246 134.917 19.3827C135.13 19.2243 135.116 18.996 135.125 18.7723C135.139 18.5487 135.148 18.3204 135.153 18.0968C135.157 17.9244 135.18 17.7846 135.338 17.6542C135.456 17.5563 135.487 17.328 135.519 17.151C135.564 16.918 135.478 16.6292 135.822 16.55C135.858 16.5406 135.881 16.4381 135.89 16.3776C135.912 16.2331 135.926 16.0887 135.944 15.9303C136.071 15.8185 136.324 15.8185 136.311 15.5436C136.311 15.511 136.401 15.469 136.446 15.4318C136.5 15.3852 136.591 15.3386 136.595 15.2827C136.614 15.1056 136.695 15.0311 136.862 15.0031C136.912 14.9938 136.944 14.8867 136.989 14.8308C137.034 14.7702 137.075 14.6817 137.134 14.6677C137.274 14.6351 137.373 14.5885 137.401 14.4254C137.405 14.3835 137.464 14.3276 137.5 14.3229C137.726 14.3136 137.803 14.1598 137.817 13.9595C137.989 13.9316 138.133 13.9176 138.269 13.8803C138.359 13.8523 138.472 13.8011 138.509 13.7266C138.586 13.5635 138.708 13.5355 138.852 13.5262C139.02 13.5122 139.187 13.5122 139.354 13.4796C139.445 13.461 139.567 13.4097 139.599 13.3398C139.671 13.1721 139.793 13.1442 139.942 13.1442C141.286 13.1442 142.625 13.1395 143.968 13.1488C144.144 13.1488 144.316 13.1768 144.434 13.3725C144.488 13.4656 144.642 13.5029 144.8 13.5868C144.791 14.3602 144.85 15.1662 144.759 15.9722C144.759 16.0142 144.692 16.0561 144.601 16.1539Z" fill="#12202B"/>
<path d="M104.586 27.3031C104.233 27.401 101.755 27.401 101.37 27.3171C101.285 27.0189 101.266 7.46481 101.352 7.03152C101.651 6.92902 104.066 6.90106 104.582 7.00356C104.591 7.12935 104.613 7.26913 104.613 7.4089C104.613 13.913 104.613 20.4217 104.613 26.9258C104.609 27.0562 104.591 27.182 104.586 27.3031Z" fill="#12202B"/>
<path d="M163.109 27.3263C163.109 22.7231 163.109 18.1386 163.109 13.5634C163.43 13.4655 165.565 13.4516 165.985 13.5401C165.999 13.5773 166.04 13.6333 166.031 13.6752C165.945 14.0759 166.207 14.2902 166.447 14.5185C166.542 14.607 166.646 14.6117 166.704 14.4952C166.777 14.3461 166.89 14.3135 167.035 14.2669C167.143 14.2296 167.216 14.0805 167.347 13.9314C167.464 13.9221 167.645 13.9175 167.817 13.8802C167.998 13.8429 168.206 13.8569 168.301 13.6193C168.324 13.5634 168.45 13.5354 168.532 13.5214C168.699 13.4981 168.866 13.4981 169.034 13.4888C169.201 13.4748 169.359 13.4702 169.472 13.2931C169.527 13.2139 169.667 13.1627 169.775 13.1534C169.993 13.1301 170.21 13.1487 170.472 13.1487C170.49 13.2978 170.517 13.4376 170.522 13.5727C170.526 14.225 170.526 14.8726 170.526 15.5248C170.526 15.618 170.513 15.7112 170.495 15.7997C170.454 16.0094 170.341 16.1119 170.124 16.1212C169.726 16.1352 169.328 16.1678 168.93 16.2004C168.83 16.2097 168.685 16.2237 168.649 16.2843C168.523 16.5126 168.315 16.4986 168.116 16.5312C167.876 16.5685 167.586 16.5032 167.464 16.834C167.451 16.8713 167.356 16.8853 167.292 16.8993C167.152 16.9272 167.012 16.9459 166.858 16.9692C166.781 17.1555 166.754 17.4164 166.419 17.3046C166.406 17.5935 166.392 17.8311 166.392 18.064C166.392 20.9713 166.392 23.8786 166.388 26.7858C166.388 26.9535 166.37 27.1213 166.365 27.2797C166.003 27.3775 163.751 27.4101 163.109 27.3263Z" fill="#12202B"/>
</svg>
