<svg width="24" height="24" viewBox="0 0 24 24" fill="none" xmlns="http://www.w3.org/2000/svg">
<path d="M16.0637 8.31567C16.0637 8.21255 15.9793 8.12817 15.8762 8.12817L14.3293 8.13521L11.9996 10.9125L9.67227 8.13755L8.12305 8.13052C8.01992 8.13052 7.93555 8.21255 7.93555 8.31802C7.93555 8.36255 7.95195 8.40474 7.98008 8.43989L11.0293 12.0727L7.98008 15.7032C7.95176 15.7375 7.93604 15.7805 7.93555 15.8251C7.93555 15.9282 8.01992 16.0126 8.12305 16.0126L9.67227 16.0055L11.9996 13.2282L14.327 16.0032L15.8738 16.0102C15.977 16.0102 16.0613 15.9282 16.0613 15.8227C16.0613 15.7782 16.0449 15.736 16.0168 15.7008L12.9723 12.0704L16.0215 8.43755C16.0496 8.40474 16.0637 8.36021 16.0637 8.31567Z" fill="#12202B"/>
<path d="M12 1.52344C6.20156 1.52344 1.5 6.225 1.5 12.0234C1.5 17.8219 6.20156 22.5234 12 22.5234C17.7984 22.5234 22.5 17.8219 22.5 12.0234C22.5 6.225 17.7984 1.52344 12 1.52344ZM12 20.7422C7.18594 20.7422 3.28125 16.8375 3.28125 12.0234C3.28125 7.20938 7.18594 3.30469 12 3.30469C16.8141 3.30469 20.7188 7.20938 20.7188 12.0234C20.7188 16.8375 16.8141 20.7422 12 20.7422Z" fill="#12202B"/>
</svg>
