<svg width="24" height="24" viewBox="0 0 24 24" fill="none" xmlns="http://www.w3.org/2000/svg">
<path d="M12.0133 2.16C15.2169 2.16 15.604 2.16 16.8721 2.22667C17.6348 2.24498 18.3888 2.3938 19.1012 2.66667C19.6117 2.86781 20.0754 3.17162 20.4635 3.55925C20.8515 3.94688 21.1557 4.41005 21.3571 4.92C21.6211 5.63322 21.7611 6.3863 21.7709 7.14667C21.7709 8.41333 21.8376 8.78667 21.8376 12C21.8376 15.2133 21.8376 15.5867 21.7709 16.8533C21.7611 17.6137 21.6211 18.3668 21.3571 19.08C21.1557 19.59 20.8515 20.0531 20.4635 20.4408C20.0754 20.8284 19.6117 21.1322 19.1012 21.3333C18.3872 21.5971 17.6333 21.7369 16.8721 21.7467C15.604 21.7467 15.2303 21.8133 12.0133 21.8133C8.79644 21.8133 8.42269 21.8133 7.15462 21.7467C6.39341 21.7369 5.63948 21.5971 4.92547 21.3333C4.41495 21.1322 3.95127 20.8284 3.56321 20.4408C3.17515 20.0531 2.871 19.59 2.66963 19.08C2.40558 18.3668 2.26563 17.6137 2.25584 16.8533C2.25584 15.5867 2.1891 15.2133 2.1891 12C2.1891 8.78667 2.1891 8.41333 2.25584 7.14667C2.26563 6.3863 2.40558 5.63322 2.66963 4.92C2.871 4.41005 3.17515 3.94688 3.56321 3.55925C3.95127 3.17162 4.41495 2.86781 4.92547 2.66667C5.63948 2.40291 6.39341 2.26311 7.15462 2.25333C8.42269 2.25333 8.79644 2.18667 12.0133 2.18667V2.16ZM12.0133 0C8.7564 0 8.3426 -6.45717e-08 7.06118 0.0666666C6.06654 0.0881251 5.0827 0.277462 4.15128 0.626667C3.35151 0.933282 2.62481 1.40367 2.01792 2.0076C1.41102 2.61152 0.937353 3.33562 0.627364 4.13333C0.27777 5.06372 0.0882231 6.04647 0.0667408 7.04C-6.46435e-08 8.33333 0 8.74667 0 12C0 15.2533 -6.46435e-08 15.6667 0.0667408 16.9467C0.0882231 17.9402 0.27777 18.9229 0.627364 19.8533C0.93432 20.6522 1.40523 21.3781 2.00983 21.9843C2.61443 22.5905 3.33933 23.0637 4.13793 23.3733C5.06935 23.7225 6.05319 23.9119 7.04783 23.9333C8.38265 23.9333 8.74305 24 12 24C15.257 24 15.6707 24 16.9522 23.9333C17.9468 23.9119 18.9306 23.7225 19.8621 23.3733C20.6594 23.0652 21.3835 22.5941 21.988 21.9902C22.5925 21.3864 23.0641 20.6631 23.3726 19.8667C23.7222 18.9363 23.9118 17.9535 23.9333 16.96C23.9333 15.6267 24 15.2667 24 12.0133C24 8.76 24 8.34667 23.9333 7.06667C23.9118 6.07314 23.7222 5.09039 23.3726 4.16C23.0702 3.36123 22.6041 2.63435 22.0042 2.02592C21.4042 1.41748 20.6837 0.940889 19.8888 0.626667C18.9573 0.277462 17.9735 0.0881251 16.9789 0.0666666C15.6841 -6.45717e-08 15.2703 0 12.0133 0Z" fill="white"/>
<path d="M12.0133 5.84C10.7937 5.84 9.60136 6.20128 8.58723 6.87815C7.5731 7.55502 6.78267 8.51708 6.31592 9.64267C5.84917 10.7683 5.72704 12.0068 5.96499 13.2018C6.20294 14.3967 6.79028 15.4943 7.65273 16.3558C8.51517 17.2173 9.614 17.804 10.8103 18.0416C12.0065 18.2793 13.2465 18.1573 14.3733 17.6911C15.5001 17.2249 16.4633 16.4353 17.1409 15.4223C17.8185 14.4093 18.1802 13.2183 18.1802 12C18.1802 10.3663 17.5305 8.79945 16.374 7.64422C15.2175 6.489 13.6489 5.84 12.0133 5.84ZM12.0133 16C11.2213 16 10.4471 15.7654 9.7886 15.3259C9.13007 14.8864 8.61681 14.2616 8.31372 13.5307C8.01063 12.7998 7.93133 11.9956 8.08584 11.2196C8.24036 10.4437 8.62174 9.73098 9.18177 9.17157C9.74181 8.61216 10.4553 8.2312 11.2321 8.07686C12.0089 7.92252 12.8141 8.00173 13.5458 8.30448C14.2775 8.60723 14.9029 9.11992 15.3429 9.77772C15.7829 10.4355 16.0178 11.2089 16.0178 12C16.0178 13.0609 15.5959 14.0783 14.8449 14.8284C14.0939 15.5786 13.0754 16 12.0133 16Z" fill="white"/>
<path d="M18.4205 7.04C19.2166 7.04 19.8621 6.39529 19.8621 5.6C19.8621 4.80471 19.2166 4.16 18.4205 4.16C17.6243 4.16 16.9789 4.80471 16.9789 5.6C16.9789 6.39529 17.6243 7.04 18.4205 7.04Z" fill="white"/>
</svg>
