<svg width="149" height="41" viewBox="0 0 149 41" fill="none" xmlns="http://www.w3.org/2000/svg">
<path fill-rule="evenodd" clip-rule="evenodd" d="M7.62558 27.3333C5.41961 27.3333 3.63135 29.002 3.63135 31.0606V37.2727C3.63135 39.3312 5.41961 41 7.62558 41H139.436C141.641 41 143.43 39.3312 143.43 37.2727V31.0606C143.43 29.002 141.641 27.3333 139.436 27.3333H7.62558ZM125.123 31.0606H132.446H134.109H135.109C135.66 31.0606 136.107 31.4778 136.107 31.9924C136.107 32.507 135.66 32.9241 135.109 32.9241H134.109H132.446H125.123C124.939 32.9241 124.79 33.0632 124.79 33.2349C124.79 33.4064 124.939 33.5455 125.123 33.5455H125.455H134.109H134.442C135.729 33.5455 136.772 34.5189 136.772 35.7197C136.772 36.9204 135.729 37.8938 134.442 37.8938H129.117H125.455H123.791C123.24 37.8938 122.793 37.4767 122.793 36.9621C122.793 36.4475 123.24 36.0303 123.791 36.0303H125.455H129.117H134.442C134.626 36.0303 134.776 35.8912 134.776 35.7197C134.776 35.5481 134.626 35.4091 134.442 35.4091H134.109H125.455H125.123C123.836 35.4091 122.793 34.4356 122.793 33.2349C122.793 32.034 123.836 31.0606 125.123 31.0606ZM101.157 31.0606H93.8344C92.5477 31.0606 91.5045 32.034 91.5045 33.2349C91.5045 34.4356 92.5477 35.4091 93.8344 35.4091H94.1673H102.822H103.154C103.338 35.4091 103.487 35.5481 103.487 35.7197C103.487 35.8912 103.338 36.0303 103.154 36.0303H97.8288H94.1673H92.5031C91.9516 36.0303 91.5045 36.4475 91.5045 36.9621C91.5045 37.4767 91.9516 37.8938 92.5031 37.8938H94.1673H97.8288H103.154C104.441 37.8938 105.484 36.9204 105.484 35.7197C105.484 34.5189 104.441 33.5455 103.154 33.5455H102.822H94.1673H93.8344C93.6507 33.5455 93.5017 33.4064 93.5017 33.2349C93.5017 33.0632 93.6507 32.9241 93.8344 32.9241H101.157H102.822H103.82C104.372 32.9241 104.819 32.507 104.819 31.9924C104.819 31.4778 104.372 31.0606 103.82 31.0606H102.822H101.157ZM66.5406 31.0606H74.5291C75.8159 31.0606 76.859 32.034 76.859 33.2349C76.859 33.6968 76.7046 34.125 76.4414 34.4773C76.7046 34.8294 76.859 35.2577 76.859 35.7197C76.859 36.9204 75.8159 37.8938 74.5291 37.8938H69.2034H64.2105H63.8841H63.8778C63.3262 37.8938 62.8792 37.4767 62.8792 36.9621V31.9924C62.8792 31.4778 63.3262 31.0606 63.8778 31.0606H65.542H66.5406ZM69.2034 36.0303H64.8763V35.4091H65.542H74.5291C74.7129 35.4091 74.8619 35.5481 74.8619 35.7197C74.8619 35.8912 74.7129 36.0303 74.5291 36.0303H69.2034ZM65.542 33.5455H64.8763V32.9241H65.542H66.5406H74.5291C74.7129 32.9241 74.8619 33.0632 74.8619 33.2349C74.8619 33.4064 74.7129 33.5455 74.5291 33.5455H65.542ZM111.143 31.0606H117.134H118.798H119.797C120.349 31.0606 120.796 31.4778 120.796 31.9924C120.796 32.507 120.349 32.9241 119.797 32.9241H118.798H117.134H111.143C110.224 32.9241 109.479 33.6196 109.479 34.4773C109.479 35.335 110.224 36.0303 111.143 36.0303H117.134H118.798H119.797C120.349 36.0303 120.796 36.4475 120.796 36.9621C120.796 37.4767 120.349 37.8938 119.797 37.8938H118.798H117.134H111.143C109.121 37.8938 107.481 36.3642 107.481 34.4773C107.481 32.5903 109.121 31.0606 111.143 31.0606ZM110.144 34.4773C110.144 33.9626 110.591 33.5455 111.143 33.5455H119.131C119.683 33.5455 120.13 33.9626 120.13 34.4773C120.13 34.9918 119.683 35.4091 119.131 35.4091H111.143C110.591 35.4091 110.144 34.9918 110.144 34.4773ZM13.9498 31.0606H20.274C22.2962 31.0606 23.9354 32.5903 23.9354 34.4773C23.9354 36.3642 22.2962 37.8938 20.274 37.8938H13.9498H11.6198H11.287C10.7355 37.8938 10.2884 37.4767 10.2884 36.9621V34.7879C10.2884 34.2732 10.7355 33.8561 11.287 33.8561C11.8385 33.8561 12.2855 34.2732 12.2855 34.7879V36.0303H13.9498H20.274C21.1932 36.0303 21.9383 35.335 21.9383 34.4773C21.9383 33.6196 21.1932 32.9241 20.274 32.9241H13.9498H11.6198H11.287C10.7355 32.9241 10.2884 32.507 10.2884 31.9924C10.2884 31.4778 10.7355 31.0606 11.287 31.0606H11.6198H13.9498ZM83.8989 30.4394C83.3009 30.4394 82.7876 30.6726 82.5668 31.0055C82.5502 31.0231 82.5342 31.0414 82.5189 31.0604L78.124 36.5262C77.7931 36.9379 77.8823 37.5219 78.3235 37.8308C78.7645 38.1397 79.3904 38.0564 79.7215 37.6448L83.9062 32.4403L88.0909 37.6448C88.4219 38.0564 89.0478 38.1397 89.489 37.8308C89.93 37.5219 90.0193 36.9379 89.6884 36.5262L85.2934 31.0604C85.2629 31.0225 85.2299 30.9873 85.1946 30.955C84.9571 30.6492 84.4661 30.4394 83.8989 30.4394ZM83.9154 37.1485C84.467 37.1485 84.914 36.7312 84.914 36.2167C84.914 35.702 84.467 35.2847 83.9154 35.2847C83.364 35.2847 82.917 35.702 82.917 36.2167C82.917 36.7312 83.364 37.1485 83.9154 37.1485ZM54.0744 31.0055C54.2954 30.6726 54.8087 30.4394 55.4066 30.4394C55.9738 30.4394 56.4648 30.6492 56.7024 30.955C56.7375 30.9873 56.7707 31.0225 56.8013 31.0604L61.1962 36.5262C61.5271 36.9379 61.4378 37.5219 60.9967 37.8308C60.5556 38.1397 59.9296 38.0564 59.5987 37.6448L55.414 32.4403L51.2293 37.6448C50.8982 38.0564 50.2724 38.1397 49.8312 37.8308C49.3901 37.5219 49.3008 36.9379 49.6318 36.5262L54.0267 31.0604C54.042 31.0414 54.0579 31.0231 54.0744 31.0055ZM56.4218 36.2167C56.4218 36.7312 55.9747 37.1485 55.4232 37.1485C54.8718 37.1485 54.4247 36.7312 54.4247 36.2167C54.4247 35.702 54.8718 35.2847 55.4232 35.2847C55.9747 35.2847 56.4218 35.702 56.4218 36.2167ZM31.0418 30.4394C30.4439 30.4394 29.9306 30.6726 29.7097 31.0055C29.6932 31.0231 29.6772 31.0414 29.6618 31.0604L25.2669 36.5262C24.936 36.9379 25.0252 37.5219 25.4664 37.8308C25.9075 38.1397 26.5335 38.0564 26.8644 37.6448L31.0491 32.4403L35.2338 37.6448C35.5649 38.0564 36.1907 38.1397 36.6319 37.8308C37.073 37.5219 37.1623 36.9379 36.8313 36.5262L32.4364 31.0604C32.4172 31.0367 32.3971 31.014 32.3761 30.9924C32.3635 30.9795 32.3507 30.9671 32.3376 30.955C32.1 30.6492 31.609 30.4394 31.0418 30.4394ZM31.0585 37.1485C31.6099 37.1485 32.0569 36.7312 32.0569 36.2167C32.0569 35.702 31.6099 35.2847 31.0585 35.2847C30.5069 35.2847 30.0599 35.702 30.0599 36.2167C30.0599 36.7312 30.5069 37.1485 31.0585 37.1485ZM36.9167 31.9924C36.9167 31.4778 37.3637 31.0606 37.9151 31.0606H48.5665C49.118 31.0606 49.565 31.4778 49.565 31.9924C49.565 32.507 49.118 32.9241 48.5665 32.9241H44.2394V36.9621C44.2394 37.4767 43.7924 37.8938 43.2408 37.8938C42.6894 37.8938 42.2422 37.4767 42.2422 36.9621V32.9241H37.9151C37.3637 32.9241 36.9167 32.507 36.9167 31.9924Z" fill="#F07D00"/>
<path fill-rule="evenodd" clip-rule="evenodd" d="M43.2903 6.93847C43.2903 6.93897 43.2903 6.93948 43.2903 6.93998V10.0923C43.2903 11.4858 44.4914 12.6154 45.9732 12.6154H52.0095H53.3509H68.7771C69.8883 12.6154 70.7892 13.4626 70.7892 14.5077C70.7892 15.5528 69.8883 16.4 68.7771 16.4H53.3509H52.0095H45.9732C42.269 16.4 39.2661 13.576 39.2661 10.0923V6.93847V6.3077V1.8923C39.2661 0.847216 40.167 0 41.2782 0C42.3894 0 43.2903 0.847216 43.2903 1.8923V6.93847Z" fill="#F07D00"/>
<path fill-rule="evenodd" clip-rule="evenodd" d="M13.4803 3.78462H10.1987C8.74785 3.78462 7.57174 4.91424 7.57174 6.3077V11.9846V13.2462V14.5077C7.57174 15.5527 6.68966 16.4 5.60155 16.4C4.51344 16.4 3.63135 15.5527 3.63135 14.5077V13.2462V11.9846V6.3077C3.63135 2.82406 6.57163 -4.32412e-08 10.1987 0L13.4823 3.90216e-08L14.139 4.67998e-08L33.1843 2.73288e-07C34.2724 2.86208e-07 35.1545 0.847215 35.1545 1.8923C35.1545 2.93741 34.2724 3.78462 33.1843 3.78462H14.139H13.4823C13.4816 3.78462 13.481 3.78462 13.4803 3.78462ZM11.5121 6.3077C10.424 6.3077 9.54191 7.15491 9.54191 8.2C9.54191 9.24509 10.424 10.0923 11.5121 10.0923H31.8708C32.9589 10.0923 33.841 9.24509 33.841 8.2C33.841 7.15491 32.9589 6.3077 31.8708 6.3077H11.5121Z" fill="#F07D00"/>
<path fill-rule="evenodd" clip-rule="evenodd" d="M143.363 1.33727C143.659 2.36616 142.945 3.48222 141.767 3.83006C141.752 3.83433 141.738 3.83847 141.723 3.84248V3.84577C138.154 4.91966 135.798 6.7647 135.798 8.86056C135.798 10.9564 138.154 12.8015 141.723 13.8754V13.8769C141.738 13.8809 141.752 13.885 141.767 13.8892C142.945 14.2372 143.659 15.3532 143.363 16.3821C143.067 17.411 141.873 17.9631 140.695 17.6152C140.613 17.5912 140.533 17.5636 140.457 17.5324H140.42C135.295 15.8035 131.847 12.5674 131.847 8.86056C131.847 5.15373 135.295 1.91767 140.42 0.188691H140.453C140.531 0.156892 140.611 0.128601 140.695 0.104116C141.873 -0.243722 143.067 0.308382 143.363 1.33727ZM129.872 9.1941C129.872 10.4835 128.841 11.5288 127.568 11.5288C126.295 11.5288 125.263 10.4835 125.263 9.1941C125.263 7.90466 126.295 6.85935 127.568 6.85935C128.841 6.85935 129.872 7.90466 129.872 9.1941ZM113.569 3.87739C112.392 3.52955 111.677 2.41349 111.973 1.3846C112.27 0.355702 113.464 -0.1964 114.642 0.151437C114.724 0.175918 114.805 0.204207 114.883 0.236002H114.916C120.04 1.96498 123.489 5.20103 123.489 8.90788C123.489 12.6147 120.04 15.8508 114.916 17.5798H114.879C114.802 17.6109 114.723 17.6386 114.642 17.6626C113.464 18.0103 112.27 17.4582 111.973 16.4294C111.677 15.4004 112.392 14.2845 113.569 13.9366C113.584 13.9324 113.598 13.9281 113.613 13.9242V13.9227C117.183 12.8488 119.538 11.0038 119.538 8.90788C119.538 6.812 117.183 4.96697 113.613 3.89309V3.88981C113.598 3.8858 113.584 3.88166 113.569 3.87739Z" fill="#F07D00"/>
<path fill-rule="evenodd" clip-rule="evenodd" d="M83.6278 0H98.3965H103.095H105.781C106.893 0 107.795 0.847216 107.795 1.8923C107.795 2.93741 106.893 3.78462 105.781 3.78462H103.095H98.3965H83.6278C81.0326 3.78462 78.9288 5.76145 78.9288 8.2C78.9288 10.6386 81.0326 12.6154 83.6278 12.6154H98.3965H103.095H105.781C106.893 12.6154 107.795 13.4626 107.795 14.5077C107.795 15.5528 106.893 16.4 105.781 16.4H103.095H98.3965H83.6278C78.8081 16.4 74.9009 12.7287 74.9009 8.2C74.9009 3.67127 78.8081 0 83.6278 0ZM81.6139 8.2C81.6139 7.15491 82.5156 6.3077 83.6278 6.3077H103.767C104.879 6.3077 105.781 7.15491 105.781 8.2C105.781 9.24509 104.879 10.0923 103.767 10.0923H83.6278C82.5156 10.0923 81.6139 9.24509 81.6139 8.2Z" fill="#F07D00"/>
</svg>
