<svg width="24" height="24" viewBox="0 0 24 24" fill="none" xmlns="http://www.w3.org/2000/svg">
<path d="M9.33333 16V8L17.3333 12L9.33333 16ZM23.76 7.45333C23.6414 6.63151 23.3105 5.85483 22.8 5.2C22.15 4.58835 21.2925 4.24538 20.4 4.24C17.04 4 12 4 12 4C12 4 6.96 4 3.6 4.22667C2.70746 4.23205 1.85003 4.57502 1.2 5.18667C0.689461 5.8415 0.358567 6.61818 0.24 7.44C0.0902091 8.66558 0.0100802 9.89867 0 11.1333V12.8533C0.0105835 14.0835 0.0907114 15.3122 0.24 16.5333C0.356329 17.3598 0.687335 18.1414 1.2 18.8C1.94898 19.4241 2.89175 19.7682 3.86667 19.7733C5.76 20 12 20 12 20C12 20 17.04 20 20.4 19.76C21.2925 19.7546 22.15 19.4116 22.8 18.8C23.3105 18.1452 23.6414 17.3685 23.76 16.5467C23.9097 15.3211 23.9898 14.088 24 12.8533V11.1333C23.9893 9.90313 23.9092 8.67451 23.76 7.45333V7.45333Z" fill="white"/>
</svg>
