<svg width="80" height="60" viewBox="0 0 80 60" fill="none" xmlns="http://www.w3.org/2000/svg">
<path d="M64.7846 34.9808L61.2154 31.4116V10.6282C61.2154 10.3729 61.1139 10.128 60.9334 9.94739C60.7528 9.76683 60.5079 9.66539 60.2526 9.66539C59.9972 9.66539 59.7523 9.76683 59.5717 9.94739C59.3912 10.128 59.2897 10.3729 59.2897 10.6282V11.3634L58.3269 9.4378V3.88846C58.3269 3.63311 58.2255 3.38821 58.0449 3.20764C57.8644 3.02708 57.6195 2.92564 57.3641 2.92564C57.1087 2.92564 56.8638 3.02708 56.6833 3.20764C56.5027 3.38821 56.4013 3.63311 56.4013 3.88846V5.58652L55.4385 3.66088V1.96282C55.4385 1.70746 55.337 1.46257 55.1565 1.282C54.9759 1.10144 54.731 1 54.4756 1C54.2203 1 53.9754 1.10144 53.7948 1.282C53.6143 1.46257 53.5128 1.70746 53.5128 1.96282V3.66088L52.55 5.58652V3.88846C52.55 3.63311 52.4486 3.38821 52.268 3.20764C52.0874 3.02708 51.8425 2.92564 51.5872 2.92564C51.3318 2.92564 51.0869 3.02708 50.9064 3.20764C50.7258 3.38821 50.6244 3.63311 50.6244 3.88846V9.4378L49.6615 11.3634V10.6282C49.6615 10.3729 49.5601 10.128 49.3795 9.94739C49.199 9.76683 48.9541 9.66539 48.6987 9.66539C48.4434 9.66539 48.1985 9.76683 48.0179 9.94739C47.8373 10.128 47.7359 10.3729 47.7359 10.6282V24.8765L40.9962 15.1414V13.5167H42.9218V11.591H40.9962V9.66539H39.0705V11.591H37.1449V13.5167H39.0705V15.1414L32.3308 24.8766V10.6282C32.3308 10.3729 32.2293 10.128 32.0488 9.94739C31.8682 9.76683 31.6233 9.66539 31.3679 9.66539C31.1126 9.66539 30.8677 9.76683 30.6871 9.94739C30.5066 10.128 30.4051 10.3729 30.4051 10.6282V11.3634L29.4423 9.4378V3.88846C29.4423 3.63311 29.3409 3.38821 29.1603 3.20764C28.9797 3.02708 28.7348 2.92564 28.4795 2.92564C28.2241 2.92564 27.9792 3.02708 27.7987 3.20764C27.6181 3.38821 27.5167 3.63311 27.5167 3.88846V5.58652L26.5538 3.66088V1.96282C26.5538 1.70746 26.4524 1.46257 26.2718 1.282C26.0913 1.10144 25.8464 1 25.591 1C25.3357 1 25.0908 1.10144 24.9102 1.282C24.7296 1.46257 24.6282 1.70746 24.6282 1.96282V3.66088L23.6654 5.58652V3.88846C23.6654 3.63311 23.5639 3.38821 23.3834 3.20764C23.2028 3.02708 22.9579 2.92564 22.7026 2.92564C22.4472 2.92564 22.2023 3.02708 22.0217 3.20764C21.8412 3.38821 21.7397 3.63311 21.7397 3.88846V9.4378L20.7769 11.3634V10.6282C20.7769 10.3729 20.6755 10.128 20.4949 9.94739C20.3144 9.76683 20.0695 9.66539 19.8141 9.66539C19.5587 9.66539 19.3138 9.76683 19.1333 9.94739C18.9527 10.128 18.8513 10.3729 18.8513 10.6282V31.4116L15.2821 34.9808C15.1015 35.1613 15.0001 35.4062 15 35.6615V57.8064C15 58.0618 15.1014 58.3067 15.282 58.4872C15.4626 58.6678 15.7075 58.7692 15.9628 58.7692H64.1038C64.3592 58.7692 64.6041 58.6678 64.7847 58.4872C64.9652 58.3067 65.0667 58.0618 65.0667 57.8064V35.6615C65.0666 35.4062 64.9651 35.1613 64.7846 34.9808ZM59.2897 48.1782H49.6615V40.4756H59.2897V48.1782ZM30.4051 38.55H20.7769V32.7731H30.4051V38.55ZM30.4051 48.1782H26.5538V46.2526H24.6282V48.1782H20.7769V40.4756H22.88C22.7659 40.784 22.7058 41.1097 22.7026 41.4385V43.3641C22.7026 43.6195 22.804 43.8644 22.9846 44.0449C23.1651 44.2255 23.41 44.3269 23.6654 44.3269H27.5167C27.772 44.3269 28.0169 44.2255 28.1975 44.0449C28.378 43.8644 28.4795 43.6195 28.4795 43.3641V41.4385C28.4762 41.1097 28.4162 40.784 28.3021 40.4756H30.4051V48.1782ZM26.5538 41.4385V42.4013H24.6282V41.4385C24.6282 41.1831 24.7296 40.9382 24.9102 40.7576C25.0908 40.5771 25.3357 40.4756 25.591 40.4756C25.8464 40.4756 26.0913 40.5771 26.2718 40.7576C26.4524 40.9382 26.5538 41.1831 26.5538 41.4385ZM20.7769 25.0705H30.4051V26.9962H20.7769V25.0705ZM26.5538 23.1449H24.6282V21.2192C24.6282 20.9639 24.7296 20.719 24.9102 20.5384C25.0908 20.3579 25.3357 20.2564 25.591 20.2564C25.8464 20.2564 26.0913 20.3579 26.2718 20.5384C26.4524 20.719 26.5538 20.9639 26.5538 21.2192V23.1449ZM30.4051 23.1449H28.4795V21.2192C28.4795 20.4532 28.1752 19.7185 27.6335 19.1768C27.0918 18.6351 26.3571 18.3308 25.591 18.3308C24.825 18.3308 24.0903 18.6351 23.5486 19.1768C23.0069 19.7185 22.7026 20.4532 22.7026 21.2192V23.1449H20.7769V16.4051H30.4051V23.1449ZM20.7769 30.8474V28.9218H59.2897V30.8474H20.7769ZM59.2897 23.1449H57.3641V21.2192C57.3641 20.4532 57.0598 19.7185 56.5181 19.1768C55.9764 18.6351 55.2417 18.3308 54.4756 18.3308C53.7096 18.3308 52.9749 18.6351 52.4332 19.1768C51.8915 19.7185 51.5872 20.4532 51.5872 21.2192V23.1449H49.6615V16.4051H59.2897V23.1449ZM55.4385 23.1449H53.5128V21.2192C53.5128 20.9639 53.6143 20.719 53.7948 20.5384C53.9754 20.3579 54.2203 20.2564 54.4756 20.2564C54.731 20.2564 54.9759 20.3579 55.1565 20.5384C55.337 20.719 55.4385 20.9639 55.4385 21.2192V23.1449ZM49.6615 25.0705H59.2897V26.9962H49.6615V25.0705ZM55.4385 38.55H53.5128V37.5872C53.5128 37.3318 53.6143 37.0869 53.7948 36.9064C53.9754 36.7258 54.2203 36.6244 54.4756 36.6244C54.731 36.6244 54.9759 36.7258 55.1565 36.9064C55.337 37.0869 55.4385 37.3318 55.4385 37.5872V38.55ZM59.2897 38.55H57.3641V37.5872C57.3641 36.8211 57.0598 36.0864 56.5181 35.5447C55.9764 35.003 55.2417 34.6987 54.4756 34.6987C53.7096 34.6987 52.9749 35.003 52.4332 35.5447C51.8915 36.0864 51.5872 36.8211 51.5872 37.5872V38.55H49.6615V32.7731H59.2897V38.55ZM54.4756 6.04169L58.6946 14.4795H50.2567L54.4756 6.04169ZM40.0333 19.2936C39.589 19.295 39.1511 19.3993 38.7538 19.5983C38.3566 19.7974 38.0109 20.0858 37.7439 20.4409L40.0333 17.1339L42.3228 20.4409C42.0558 20.0858 41.7101 19.7974 41.3128 19.5983C40.9156 19.3993 40.4776 19.295 40.0333 19.2936ZM40.9962 22.1821C40.9962 22.3725 40.9397 22.5586 40.8339 22.717C40.7281 22.8753 40.5777 22.9987 40.4018 23.0716C40.2259 23.1445 40.0323 23.1635 39.8455 23.1264C39.6587 23.0892 39.4872 22.9975 39.3525 22.8629C39.2179 22.7282 39.1262 22.5567 39.089 22.3699C39.0519 22.1831 39.0709 21.9895 39.1438 21.8136C39.2167 21.6377 39.3401 21.4873 39.4984 21.3815C39.6568 21.2757 39.8429 21.2192 40.0333 21.2192C40.2886 21.2195 40.5334 21.321 40.7139 21.5015C40.8944 21.682 40.9959 21.9268 40.9962 22.1821ZM37.5769 20.682C37.2966 21.1322 37.147 21.6516 37.1449 22.1821C37.1449 22.9481 37.4492 23.6828 37.9909 24.2245C38.5326 24.7662 39.2673 25.0705 40.0333 25.0705C40.7994 25.0705 41.5341 24.7662 42.0758 24.2245C42.6175 23.6828 42.9218 22.9481 42.9218 22.1821C42.9197 21.6517 42.7701 21.1324 42.4898 20.6821L46.8609 26.9962H33.2057L37.5769 20.682ZM25.591 6.04169L29.81 14.4795H21.3721L25.591 6.04169ZM16.9256 36.0602L18.8513 34.1345V56.8436H16.9256V36.0602ZM20.7769 50.1039H30.4051V56.8436H26.5538V53.9551H24.6282V56.8436H20.7769V50.1039ZM32.3308 40.4756V32.7731H47.7359V56.8436H44.8474V41.8926C44.8524 40.4189 44.4443 38.9734 43.6695 37.7198C42.8948 36.4662 41.7843 35.4549 40.464 34.8003C40.3302 34.7335 40.1828 34.6987 40.0333 34.6987C39.8839 34.6987 39.7364 34.7335 39.6027 34.8003C38.2824 35.4549 37.1719 36.4662 36.3971 37.7198C35.6223 38.9734 35.2143 40.4189 35.2192 41.8926V56.8436H32.3308V40.4756ZM37.1449 56.8436V41.8926C37.1412 40.8602 37.4054 39.8446 37.9116 38.9449C38.4179 38.0452 39.149 37.2923 40.0333 36.7598C40.9177 37.2923 41.6487 38.0452 42.155 38.9449C42.6613 39.8446 42.9255 40.8602 42.9218 41.8926V56.8436H37.1449ZM49.6615 50.1039H59.2897V56.8436H49.6615V50.1039ZM63.141 56.8436H61.2154V34.1345L63.141 36.0602V56.8436Z" fill="#F07D00"/>
</svg>
