<svg width="80" height="60" viewBox="0 0 80 60" fill="none" xmlns="http://www.w3.org/2000/svg">
<path fill-rule="evenodd" clip-rule="evenodd" d="M76.4167 17.4786C76.4167 17.044 76.7705 16.6912 77.2083 16.6912C77.6461 16.6912 78 17.044 78 17.4786V59.2126C78 59.6472 77.6461 60 77.2083 60H66.9167H57.4167H47.5921H32.795H22.5833H13.0833H2.79167C2.35387 60 2 59.6472 2 59.2126V17.4786C2 17.044 2.35387 16.6912 2.79167 16.6912C3.22946 16.6912 3.58333 17.044 3.58333 17.4786H5.16667V16.5613C4.86029 16.392 4.63942 16.0841 4.63942 15.8211C4.63942 15.61 4.63942 15.1163 5.07087 15.1163H7.37462C7.80608 15.1163 7.80608 15.61 7.80608 15.8211C7.80608 16.2045 7.33979 16.6912 6.8165 16.6912H6.75V17.4786H9.125V15.9037C9.125 15.4691 9.47887 15.1163 9.91667 15.1163H11.709L11.7288 14.7864C11.6235 14.7588 11.5214 14.7163 11.4319 14.6439L9.68392 13.2328C9.34508 12.9587 9.29283 12.4627 9.56833 12.1249C9.84304 11.7886 10.3426 11.7359 10.6814 12.0099L11.6757 12.8131C11.766 12.7115 11.8673 12.6186 11.9877 12.5485C11.9275 12.4005 11.8855 12.2398 11.8855 12.0595C11.8855 11.491 12.2188 11.0311 12.6305 11.0311C13.0422 11.0311 13.3747 11.491 13.3747 12.0595C13.3747 12.239 13.3327 12.4005 13.2725 12.5485C13.3968 12.6217 13.5005 12.7178 13.5924 12.8233L14.5986 12.0107C14.9366 11.7367 15.437 11.7894 15.7117 12.1256C15.9872 12.4635 15.9357 12.9595 15.5961 13.2336L13.8481 14.6446C13.7016 14.7635 13.5251 14.821 13.3501 14.821C13.3431 14.821 13.3367 14.8189 13.3302 14.8167C13.3244 14.8147 13.3185 14.8127 13.3121 14.8124L13.2939 15.1163H14.6667C15.1045 15.1163 15.4583 15.4691 15.4583 15.9037V17.4786H25.75V13.5414C25.75 13.2469 25.9194 13.0005 26.1593 12.8658C26.244 12.7162 26.3667 12.5879 26.5377 12.5178L31.5877 10.4579C31.3384 10.2429 31.1792 9.93658 31.1792 9.59247C31.1792 9.17198 31.4255 8.81921 31.7785 8.61212C31.7184 8.46408 31.6764 8.30344 31.6764 8.12312C31.6764 7.55459 32.0097 7.09473 32.4214 7.09473C32.833 7.09473 33.1655 7.55459 33.1655 8.12312C33.1655 8.30265 33.1236 8.46408 33.0634 8.61212C33.4165 8.81921 33.6635 9.17198 33.6635 9.59247C33.6635 9.59877 33.6619 9.60507 33.6611 9.61137L36.8872 8.29557C36.8563 8.21131 36.8333 8.12391 36.8333 8.02941V5.64349C36.3409 5.53089 36.0425 5.00095 36.0425 4.20092C36.0425 2.92212 37.401 1.42049 39.2265 1.03465L40.7798 1C42.6766 1.30316 44.0739 2.84417 44.0739 4.19855C44.0739 5.06001 43.728 5.60491 43.1667 5.65688V8.02075L47.8288 9.81531C47.8145 9.74366 47.805 9.66964 47.805 9.59326C47.805 9.17277 48.0512 8.82 48.4043 8.6129C48.3442 8.46487 48.3022 8.30423 48.3022 8.12391C48.3022 7.55538 48.6355 7.09552 49.0472 7.09552C49.4588 7.09552 49.7913 7.55538 49.7913 8.12391C49.7913 8.30344 49.7494 8.46487 49.6892 8.6129C50.0423 8.82 50.2893 9.17277 50.2893 9.59326C50.2893 9.99327 50.0771 10.3445 49.7549 10.5571L54.8342 12.5123C55.2412 12.669 55.4438 13.1249 55.2863 13.5304C55.234 13.6635 55.1462 13.769 55.0417 13.8525V17.4786H64.5417V15.9037C64.5417 15.4691 64.8955 15.1163 65.3333 15.1163H66.9167V14.6832C66.9068 14.6765 66.8961 14.6714 66.8854 14.6663C66.8723 14.6601 66.8592 14.6538 66.8478 14.6446L65.0998 13.2336C64.761 12.9595 64.7087 12.4635 64.9842 12.1256C65.2581 11.7894 65.7577 11.7367 66.0973 12.0107L67.0916 12.8139C67.1819 12.7123 67.2832 12.6194 67.4035 12.5493C67.3434 12.4012 67.3014 12.2406 67.3014 12.0603C67.3014 11.4918 67.6347 11.0319 68.0464 11.0319C68.458 11.0319 68.7905 11.4918 68.7905 12.0603C68.7905 12.2398 68.7486 12.4012 68.6884 12.5493C68.7802 12.6028 68.8642 12.6682 68.9394 12.7406L69.7097 12.2304C70.0738 11.9878 70.5647 12.0863 70.8077 12.4485C71.0507 12.8107 70.9526 13.2997 70.5884 13.5407L68.8072 14.7218C68.7114 14.7856 68.6061 14.8171 68.5 14.8352V15.1163H70.0833C70.5211 15.1163 70.875 15.4691 70.875 15.9037V17.4786H73.25V16.5613C72.9436 16.392 72.7227 16.0841 72.7227 15.8211C72.7227 15.61 72.7227 15.1163 73.1542 15.1163H75.4579C75.8894 15.1163 75.8894 15.61 75.8894 15.8211C75.8894 16.2045 75.4231 16.6912 74.8998 16.6912H74.8333V17.4786H76.4167ZM57.1855 41.393L56.9377 41.889H76.4167V41.1016H57.2647C57.2567 41.2 57.233 41.2993 57.1855 41.393ZM31.2917 58.4251V50.6571C31.2917 47.7168 34.9967 45.0388 39.0643 45.0388H41.3284C45.2598 45.0388 48.7083 47.6641 48.7083 50.6571V58.4251H51.0833V43.4639H28.9167V58.4251H31.2917ZM3.58333 41.1016V41.889H23.5911L23.3109 41.1402C23.3084 41.1335 23.3078 41.1266 23.3073 41.1198C23.3069 41.1136 23.3064 41.1075 23.3045 41.1016H3.58333ZM14.3445 19.0535H10.7637L11.0416 19.8409H13.9835L14.3445 19.0535ZM21.2391 19.8409L20.9596 19.0535H16.0584C16.054 19.0693 16.0515 19.0852 16.049 19.1012C16.0451 19.1257 16.0413 19.1501 16.0307 19.174L15.7251 19.8409H21.2391ZM72.4583 32.4398C72.4583 32.0052 72.8122 31.6524 73.25 31.6524C73.6878 31.6524 74.0417 32.0052 74.0417 32.4398V39.5267H76.4167V21.4158H70.0833V39.5267H72.4583V32.4398ZM60.5833 32.4398C60.5833 32.0052 60.9372 31.6524 61.375 31.6524C61.8128 31.6524 62.1667 32.0052 62.1667 32.4398V39.5267H65.3333V21.4158H58.2083V39.5267H60.5833V32.4398ZM51.9027 41.1016L52.198 41.889H55.1691L55.5626 41.1016H51.9027ZM24.986 41.1016L25.2813 41.889H28.2525L28.6459 41.1016H24.986ZM17.8333 32.4398C17.8333 32.0052 18.1872 31.6524 18.625 31.6524C19.0628 31.6524 19.4167 32.0052 19.4167 32.4398V39.5267H21.7917V21.4158H14.6667V39.5267H17.8333V32.4398ZM13.0833 21.4158H11.5V39.5267H13.0833V21.4158ZM24.9583 21.4158H23.375V39.5267H24.9583V21.4158ZM53.4583 39.5267V21.4158H45.5417V39.5267H48.7083V32.4398C48.7083 32.0052 49.0622 31.6524 49.5 31.6524C49.9378 31.6524 50.2917 32.0052 50.2917 32.4398V39.5267H53.4583ZM55.0417 39.5267H56.625V21.4158H55.0417V39.5267ZM41.5833 39.5267H43.9583V21.4158H36.8333V39.5267H40V32.4398C40 32.0052 40.3539 31.6524 40.7917 31.6524C41.2295 31.6524 41.5833 32.0052 41.5833 32.4398V39.5267ZM32.0833 39.5267H35.25V21.4158H26.5417V39.5267H30.5V32.4398C30.5 32.0052 30.8539 31.6524 31.2917 31.6524C31.7295 31.6524 32.0833 32.0052 32.0833 32.4398V39.5267ZM30.348 41.1016C30.3401 41.2 30.3163 41.2993 30.2688 41.393L30.021 41.889H50.5086L50.2283 41.1402C50.2236 41.1276 50.226 41.1142 50.222 41.1016H30.348ZM68.5 21.4158H66.9167V39.5267H68.5V21.4158ZM66.4591 19.8409H69.4009L69.7611 19.0535H66.1804L66.4591 19.8409ZM64.7807 19.8409L64.5013 19.0535H59.6001C59.5957 19.0693 59.5932 19.0852 59.5907 19.1012C59.5868 19.1257 59.5829 19.1501 59.5724 19.174L59.2668 19.8409H64.7807ZM54.5841 19.8409H57.5259L57.8861 19.0535H54.3054L54.5841 19.8409ZM52.9057 19.8409L52.6263 19.0535H27.9334C27.929 19.0693 27.9265 19.0852 27.924 19.1012C27.9201 19.1257 27.9163 19.1501 27.9057 19.174L27.6001 19.8409H52.9057ZM25.8592 19.8409L26.2202 19.0535H22.6387L22.9174 19.8409H25.8592ZM9.91667 39.5267V21.4158H3.58333V39.5267H5.95833V32.4398C5.95833 32.0052 6.31221 31.6524 6.75 31.6524C7.18779 31.6524 7.54167 32.0052 7.54167 32.4398V39.5267H9.91667ZM27.3333 43.4639H25.75V58.4251H27.3333V43.4639ZM54.25 43.4639H52.6667V58.4251H54.25V43.4639ZM71.1418 19.8409H76.4167V19.0535H71.4751C71.4707 19.0693 71.4682 19.0852 71.4657 19.1012C71.4618 19.1257 71.4579 19.1501 71.4474 19.174L71.1418 19.8409ZM69.2917 16.6912H66.125V17.4786H69.2917V16.6912ZM40.1694 8.65936L27.3333 13.8958L27.3341 14.3289H53.4591V13.6714L40.3254 8.61605C40.3155 8.6122 40.3077 8.60626 40.3 8.60037C40.2935 8.59543 40.287 8.59052 40.2795 8.58692C40.2653 8.59572 40.2523 8.60562 40.2395 8.61547C40.2178 8.63205 40.1962 8.64849 40.1694 8.65936ZM42.4811 4.09225C42.3766 3.48435 41.4305 2.51108 40.1156 2.51108C38.788 2.51108 37.758 3.50483 37.6377 4.09225H42.375H42.4811ZM41.5833 7.41128V5.66712H38.4167V7.67192L39.5677 7.20261C39.7823 7.116 40.0087 7.13332 40.2019 7.22308C40.4053 7.09867 40.6555 7.05536 40.897 7.14749L41.5833 7.41128ZM53.4583 15.9037H27.3333V17.4786H53.4583V15.9037ZM13.875 16.6912H10.7083V17.4786H13.875V16.6912ZM9.36408 19.8409L9.08462 19.0535H3.58333V19.8409H9.36408ZM7.54167 56.8503V58.4251H9.91667V43.4639H3.58333V58.4251H5.95833V56.8503C5.95833 56.4156 6.31221 56.0628 6.75 56.0628C7.18779 56.0628 7.54167 56.4156 7.54167 56.8503ZM14.6667 50.2193V58.4251H21V50.2193C21 48.5484 19.6676 47.3349 17.8333 47.3349C15.999 47.3349 14.6667 48.5484 14.6667 50.2193ZM13.0833 50.2193C13.0833 47.6775 15.125 45.7601 17.8333 45.7601C20.5416 45.7601 22.5833 47.6775 22.5833 50.2193V58.4251H24.1667V43.4639H11.5V58.4251H13.0833V50.2193ZM32.875 58.2661C32.9249 58.3157 32.9898 58.3747 33.05 58.4251L47.1234 58.4243C47.1241 58.422 47.1247 58.4196 47.1254 58.4174C47.127 58.4114 47.1286 58.4059 47.1297 58.4007L47.1242 50.6571C47.1242 48.5413 44.3613 46.6136 41.3276 46.6136H39.0635C35.9403 46.6136 32.875 48.6161 32.875 50.6571V58.2661ZM59 50.2193V58.4251H65.3333V50.2193C65.3333 48.5484 64.001 47.3349 62.1667 47.3349C60.3324 47.3349 59 48.5484 59 50.2193ZM57.4167 50.2193C57.4167 47.6775 59.4584 45.7601 62.1667 45.7601C64.875 45.7601 66.9167 47.6775 66.9167 50.2193V58.4251H68.5V43.4639H55.8333V58.4251H57.4167V50.2193ZM72.4583 56.8503C72.4583 56.4156 72.8122 56.0628 73.25 56.0628C73.6878 56.0628 74.0417 56.4156 74.0417 56.8503V58.4251H76.4167V43.4639H70.0833V58.4251H72.4583V56.8503Z" fill="#F07D00"/>
<path d="M29.3646 28.3106C29.7736 28.3106 30.1042 27.9793 30.1042 27.571V23.1335C30.1042 22.7253 29.7736 22.3939 29.3646 22.3939C28.9556 22.3939 28.625 22.7253 28.625 23.1335V27.571C28.625 27.9793 28.9556 28.3106 29.3646 28.3106Z" fill="#F07D00"/>
<path d="M38.2396 28.3106C38.6486 28.3106 38.9792 27.9793 38.9792 27.571V23.1335C38.9792 22.7253 38.6486 22.3939 38.2396 22.3939C37.8306 22.3939 37.5 22.7253 37.5 23.1335V27.571C37.5 27.9793 37.8306 28.3106 38.2396 28.3106Z" fill="#F07D00"/>
<path d="M46.3748 28.3106C46.7838 28.3106 47.1144 27.9793 47.1144 27.571V23.1335C47.1144 22.7253 46.7838 22.3939 46.3748 22.3939C45.9658 22.3939 45.6352 22.7253 45.6352 23.1335V27.571C45.6352 27.9793 45.9658 28.3106 46.3748 28.3106Z" fill="#F07D00"/>
<path d="M58.2081 23.1335C58.2081 22.7253 57.8775 22.3939 57.4685 22.3939C57.0595 22.3939 56.7289 22.7253 56.7289 23.1335V27.571C56.7289 27.9793 57.0595 28.3106 57.4685 28.3106C57.8775 28.3106 58.2081 27.9793 58.2081 27.571V23.1335Z" fill="#F07D00"/>
<path d="M69.3019 23.1335C69.3019 22.7253 68.9713 22.3939 68.5623 22.3939C68.1533 22.3939 67.8227 22.7253 67.8227 23.1335V27.571C67.8227 27.9793 68.1533 28.3106 68.5623 28.3106C68.9713 28.3106 69.3019 27.9793 69.3019 27.571V23.1335Z" fill="#F07D00"/>
<path d="M18.2706 23.1335C18.2706 22.7253 17.94 22.3939 17.531 22.3939C17.122 22.3939 16.7914 22.7253 16.7914 23.1335V27.571C16.7914 27.9793 17.122 28.3106 17.531 28.3106C17.94 28.3106 18.2706 27.9793 18.2706 27.571V23.1335Z" fill="#F07D00"/>
<path d="M6.43728 28.3106C6.84627 28.3106 7.17686 27.9793 7.17686 27.571V23.1335C7.17686 22.7253 6.84627 22.3939 6.43728 22.3939C6.02829 22.3939 5.69769 22.7253 5.69769 23.1335V27.571C5.69769 27.9793 6.02829 28.3106 6.43728 28.3106Z" fill="#F07D00"/>
<path d="M6.43728 42.3627C6.02829 42.3627 5.69769 42.694 5.69769 43.1023V50.4981C5.69769 50.9063 6.02829 51.2377 6.43728 51.2377C6.84627 51.2377 7.17686 50.9063 7.17686 50.4981V43.1023C7.17686 42.694 6.84627 42.3627 6.43728 42.3627Z" fill="#F07D00"/>
<path d="M69.3019 43.1023C69.3019 42.694 68.9713 42.3627 68.5623 42.3627C68.1533 42.3627 67.8227 42.694 67.8227 43.1023V50.4981C67.8227 50.9063 68.1533 51.2377 68.5623 51.2377C68.9713 51.2377 69.3019 50.9063 69.3019 50.4981V43.1023Z" fill="#F07D00"/>
</svg>
