<svg width="80" height="61" viewBox="0 0 80 61" fill="none" xmlns="http://www.w3.org/2000/svg">
<path d="M70 44.5751L66.3662 34.8849H62.7876V32.9468H60.8495V34.8849H58.9115V27.1327C58.9115 25.3322 57.6721 23.8273 56.0044 23.3942V19.3805H57.6721L60.2565 11.6283H57.204C55.0906 4.74822 48.7348 0 41.469 0H39.531C32.2652 0 25.9094 4.74822 23.796 11.6283H20.7435L23.3279 19.3805H24.9956V23.3942C23.3279 23.8273 22.0885 25.3322 22.0885 27.1327V34.8849H20.1505V32.9468H18.2124V34.8849H14.6338L11 44.5751H12.3983V60.0795H68.6017V44.5751H70ZM67.2034 42.6371H55.0354V36.8229H65.0231L67.2034 42.6371ZM49.2212 58.1414H47.2832V54.2654H49.2212V58.1414ZM45.3451 52.3273V58.1414H43.4071V52.3273H37.5929V58.1414H35.6549V52.3273H29.8407V58.1414H27.9027V48.4512H53.0973V58.1414H51.1593V52.3273H45.3451ZM41.469 58.1414H39.531V54.2654H41.469V58.1414ZM33.7168 58.1414H31.7788V54.2654H33.7168V58.1414ZM40.5 23.6578L51.7271 34.8849H48.9867L40.5 26.3991L32.0133 34.8849H29.2729L40.5 23.6578ZM47.1853 15.5044H33.8147C34.2653 13.296 36.2218 11.6283 38.562 11.6283H42.438C44.7773 11.6283 46.7347 13.296 47.1853 15.5044ZM33.7168 17.4424H47.2832V27.7005L40.5 20.9174L33.7168 27.7005V17.4424ZM53.0973 46.5132H49.2212V40.699H43.4071V46.5132H41.469V36.8229H53.0973V46.5132ZM47.2832 46.5132H45.3451V42.6371H47.2832V46.5132ZM34.7547 34.8849L40.5 29.1395L46.2453 34.8849H34.7547ZM39.531 36.8229V46.5132H37.5929V40.699H31.7788V46.5132H27.9027V36.8229H39.531ZM35.6549 46.5132H33.7168V42.6371H35.6549V46.5132ZM54.4675 34.8849L53.0973 33.5147V29.0707H56.9734V34.8849H54.4675ZM56.9734 27.1327H53.0973C53.0973 26.0638 53.9665 25.1946 55.0354 25.1946C56.1042 25.1946 56.9734 26.0638 56.9734 27.1327ZM54.0663 23.3942C52.3986 23.8273 51.1593 25.3322 51.1593 27.1327V31.5766L49.2212 29.6386V19.3805H54.0663V23.3942ZM56.2747 17.4424H49.2212V16.4734C49.2212 15.4317 48.978 14.4491 48.5574 13.5663H57.5665L56.2747 17.4424ZM39.531 1.93805H41.469C47.6795 1.93805 53.1458 5.86453 55.1768 11.6283H47.1766C45.9527 10.4315 44.2811 9.69024 42.439 9.69024H38.5629C36.7198 9.69024 35.0483 10.4315 33.8254 11.6283H25.8251C27.8542 5.86453 33.3205 1.93805 39.531 1.93805ZM23.4335 13.5663H32.4426C32.022 14.4491 31.7788 15.4317 31.7788 16.4734V17.4424H24.7253L23.4335 13.5663ZM31.7788 19.3805V29.6386L29.8407 31.5766V27.1327C29.8407 25.3322 28.6014 23.8273 26.9337 23.3942V19.3805H31.7788ZM25.9646 25.1946C27.0335 25.1946 27.9027 26.0638 27.9027 27.1327H24.0266C24.0266 26.0638 24.8958 25.1946 25.9646 25.1946ZM24.0266 29.0707H27.9027V33.5147L26.5325 34.8849H24.0266V29.0707ZM15.9769 36.8229H25.9646V42.6371H13.7966L15.9769 36.8229ZM25.9646 44.5751V50.3893H24.0266V46.5132H16.2744V50.3893H14.3363V44.5751H25.9646ZM22.0885 50.3893H18.2124V48.4512H22.0885V50.3893ZM14.3363 52.3273H25.9646V58.1414H24.0266V54.2654H16.2744V58.1414H14.3363V52.3273ZM22.0885 58.1414H18.2124V56.2034H22.0885V58.1414ZM62.7876 58.1414H58.9115V56.2034H62.7876V58.1414ZM64.7256 58.1414V54.2654H56.9734V58.1414H55.0354V52.3273H66.6637V58.1414H64.7256ZM62.7876 50.3893H58.9115V48.4512H62.7876V50.3893ZM66.6637 50.3893H64.7256V46.5132H56.9734V50.3893H55.0354V44.5751H66.6637V50.3893Z" fill="#F07D00"/>
<path d="M50.134 10.2552L51.7087 9.12433C49.3482 5.83837 45.5205 3.8761 41.469 3.8761H40.5V5.81415H41.469C44.8984 5.81415 48.1378 7.47409 50.134 10.2552Z" fill="#F07D00"/>
</svg>
