<svg width="149" height="42" viewBox="0 0 149 42" fill="none" xmlns="http://www.w3.org/2000/svg">
<path fill-rule="evenodd" clip-rule="evenodd" d="M7.62558 27.8333C5.41961 27.8333 3.63135 29.502 3.63135 31.5606V37.7727C3.63135 39.8312 5.41961 41.5 7.62558 41.5H139.436C141.641 41.5 143.43 39.8312 143.43 37.7727V31.5606C143.43 29.502 141.641 27.8333 139.436 27.8333H7.62558ZM125.123 31.5606H132.446H134.109H135.109C135.66 31.5606 136.107 31.9778 136.107 32.4924C136.107 33.007 135.66 33.4241 135.109 33.4241H134.109H132.446H125.123C124.939 33.4241 124.79 33.5632 124.79 33.7349C124.79 33.9064 124.939 34.0455 125.123 34.0455H125.455H134.109H134.442C135.729 34.0455 136.772 35.0189 136.772 36.2197C136.772 37.4204 135.729 38.3938 134.442 38.3938H129.117H125.455H123.791C123.24 38.3938 122.793 37.9767 122.793 37.4621C122.793 36.9475 123.24 36.5303 123.791 36.5303H125.455H129.117H134.442C134.626 36.5303 134.776 36.3912 134.776 36.2197C134.776 36.0481 134.626 35.9091 134.442 35.9091H134.109H125.455H125.123C123.836 35.9091 122.793 34.9356 122.793 33.7349C122.793 32.534 123.836 31.5606 125.123 31.5606ZM101.157 31.5606H93.8344C92.5477 31.5606 91.5045 32.534 91.5045 33.7349C91.5045 34.9356 92.5477 35.9091 93.8344 35.9091H94.1673H102.822H103.154C103.338 35.9091 103.487 36.0481 103.487 36.2197C103.487 36.3912 103.338 36.5303 103.154 36.5303H97.8288H94.1673H92.5031C91.9516 36.5303 91.5045 36.9475 91.5045 37.4621C91.5045 37.9767 91.9516 38.3938 92.5031 38.3938H94.1673H97.8288H103.154C104.441 38.3938 105.484 37.4204 105.484 36.2197C105.484 35.0189 104.441 34.0455 103.154 34.0455H102.822H94.1673H93.8344C93.6507 34.0455 93.5017 33.9064 93.5017 33.7349C93.5017 33.5632 93.6507 33.4241 93.8344 33.4241H101.157H102.822H103.82C104.372 33.4241 104.819 33.007 104.819 32.4924C104.819 31.9778 104.372 31.5606 103.82 31.5606H102.822H101.157ZM66.5406 31.5606H74.5291C75.8159 31.5606 76.859 32.534 76.859 33.7349C76.859 34.1968 76.7046 34.625 76.4414 34.9773C76.7046 35.3294 76.859 35.7577 76.859 36.2197C76.859 37.4204 75.8159 38.3938 74.5291 38.3938H69.2034H64.2105H63.8841H63.8778C63.3262 38.3938 62.8792 37.9767 62.8792 37.4621V32.4924C62.8792 31.9778 63.3262 31.5606 63.8778 31.5606H65.542H66.5406ZM69.2034 36.5303H64.8763V35.9091H65.542H74.5291C74.7129 35.9091 74.8619 36.0481 74.8619 36.2197C74.8619 36.3912 74.7129 36.5303 74.5291 36.5303H69.2034ZM65.542 34.0455H64.8763V33.4241H65.542H66.5406H74.5291C74.7129 33.4241 74.8619 33.5632 74.8619 33.7349C74.8619 33.9064 74.7129 34.0455 74.5291 34.0455H65.542ZM111.143 31.5606H117.134H118.798H119.797C120.349 31.5606 120.796 31.9778 120.796 32.4924C120.796 33.007 120.349 33.4241 119.797 33.4241H118.798H117.134H111.143C110.224 33.4241 109.479 34.1196 109.479 34.9773C109.479 35.835 110.224 36.5303 111.143 36.5303H117.134H118.798H119.797C120.349 36.5303 120.796 36.9475 120.796 37.4621C120.796 37.9767 120.349 38.3938 119.797 38.3938H118.798H117.134H111.143C109.121 38.3938 107.481 36.8642 107.481 34.9773C107.481 33.0903 109.121 31.5606 111.143 31.5606ZM110.144 34.9773C110.144 34.4626 110.591 34.0455 111.143 34.0455H119.131C119.683 34.0455 120.13 34.4626 120.13 34.9773C120.13 35.4918 119.683 35.9091 119.131 35.9091H111.143C110.591 35.9091 110.144 35.4918 110.144 34.9773ZM13.9498 31.5606H20.274C22.2962 31.5606 23.9354 33.0903 23.9354 34.9773C23.9354 36.8642 22.2962 38.3938 20.274 38.3938H13.9498H11.6198H11.287C10.7355 38.3938 10.2884 37.9767 10.2884 37.4621V35.2879C10.2884 34.7732 10.7355 34.3561 11.287 34.3561C11.8385 34.3561 12.2855 34.7732 12.2855 35.2879V36.5303H13.9498H20.274C21.1932 36.5303 21.9383 35.835 21.9383 34.9773C21.9383 34.1196 21.1932 33.4241 20.274 33.4241H13.9498H11.6198H11.287C10.7355 33.4241 10.2884 33.007 10.2884 32.4924C10.2884 31.9778 10.7355 31.5606 11.287 31.5606H11.6198H13.9498ZM83.8989 30.9394C83.3009 30.9394 82.7876 31.1726 82.5668 31.5055C82.5502 31.5231 82.5342 31.5414 82.5189 31.5604L78.124 37.0262C77.7931 37.4379 77.8823 38.0219 78.3235 38.3308C78.7645 38.6397 79.3904 38.5564 79.7215 38.1448L83.9062 32.9403L88.0909 38.1448C88.4219 38.5564 89.0478 38.6397 89.489 38.3308C89.93 38.0219 90.0193 37.4379 89.6884 37.0262L85.2934 31.5604C85.2629 31.5225 85.2299 31.4873 85.1946 31.455C84.9571 31.1492 84.4661 30.9394 83.8989 30.9394ZM83.9154 37.6485C84.467 37.6485 84.914 37.2312 84.914 36.7167C84.914 36.202 84.467 35.7847 83.9154 35.7847C83.364 35.7847 82.917 36.202 82.917 36.7167C82.917 37.2312 83.364 37.6485 83.9154 37.6485ZM54.0744 31.5055C54.2954 31.1726 54.8087 30.9394 55.4066 30.9394C55.9738 30.9394 56.4648 31.1492 56.7024 31.455C56.7375 31.4873 56.7707 31.5225 56.8013 31.5604L61.1962 37.0262C61.5271 37.4379 61.4378 38.0219 60.9967 38.3308C60.5556 38.6397 59.9296 38.5564 59.5987 38.1448L55.414 32.9403L51.2293 38.1448C50.8982 38.5564 50.2724 38.6397 49.8312 38.3308C49.3901 38.0219 49.3008 37.4379 49.6318 37.0262L54.0267 31.5604C54.042 31.5414 54.0579 31.5231 54.0744 31.5055ZM56.4218 36.7167C56.4218 37.2312 55.9747 37.6485 55.4232 37.6485C54.8718 37.6485 54.4247 37.2312 54.4247 36.7167C54.4247 36.202 54.8718 35.7847 55.4232 35.7847C55.9747 35.7847 56.4218 36.202 56.4218 36.7167ZM31.0418 30.9394C30.4439 30.9394 29.9306 31.1726 29.7097 31.5055C29.6932 31.5231 29.6772 31.5414 29.6618 31.5604L25.2669 37.0262C24.936 37.4379 25.0252 38.0219 25.4664 38.3308C25.9075 38.6397 26.5335 38.5564 26.8644 38.1448L31.0491 32.9403L35.2338 38.1448C35.5649 38.5564 36.1907 38.6397 36.6319 38.3308C37.073 38.0219 37.1623 37.4379 36.8313 37.0262L32.4364 31.5604C32.4172 31.5367 32.3971 31.514 32.3761 31.4924C32.3635 31.4795 32.3507 31.4671 32.3376 31.455C32.1 31.1492 31.609 30.9394 31.0418 30.9394ZM31.0585 37.6485C31.6099 37.6485 32.0569 37.2312 32.0569 36.7167C32.0569 36.202 31.6099 35.7847 31.0585 35.7847C30.5069 35.7847 30.0599 36.202 30.0599 36.7167C30.0599 37.2312 30.5069 37.6485 31.0585 37.6485ZM36.9167 32.4924C36.9167 31.9778 37.3637 31.5606 37.9151 31.5606H48.5665C49.118 31.5606 49.565 31.9778 49.565 32.4924C49.565 33.007 49.118 33.4241 48.5665 33.4241H44.2394V37.4621C44.2394 37.9767 43.7924 38.3938 43.2408 38.3938C42.6894 38.3938 42.2422 37.9767 42.2422 37.4621V33.4241H37.9151C37.3637 33.4241 36.9167 33.007 36.9167 32.4924Z" fill="#F07D00"/>
<path fill-rule="evenodd" clip-rule="evenodd" d="M43.2903 7.43847C43.2903 7.43897 43.2903 7.43948 43.2903 7.43998V10.5923C43.2903 11.9858 44.4914 13.1154 45.9732 13.1154H52.0095H53.3509H68.7771C69.8883 13.1154 70.7892 13.9626 70.7892 15.0077C70.7892 16.0528 69.8883 16.9 68.7771 16.9H53.3509H52.0095H45.9732C42.269 16.9 39.2661 14.076 39.2661 10.5923V7.43847V6.8077V2.3923C39.2661 1.34722 40.167 0.5 41.2782 0.5C42.3894 0.5 43.2903 1.34722 43.2903 2.3923V7.43847Z" fill="#F07D00"/>
<path fill-rule="evenodd" clip-rule="evenodd" d="M13.4803 4.28462H10.1987C8.74785 4.28462 7.57174 5.41424 7.57174 6.8077V12.4846V13.7462V15.0077C7.57174 16.0527 6.68966 16.9 5.60155 16.9C4.51344 16.9 3.63135 16.0527 3.63135 15.0077V13.7462V12.4846V6.8077C3.63135 3.32406 6.57163 0.5 10.1987 0.5L13.4823 0.5L14.139 0.5L33.1843 0.5C34.2724 0.5 35.1545 1.34721 35.1545 2.3923C35.1545 3.43741 34.2724 4.28462 33.1843 4.28462H14.139H13.4823C13.4816 4.28462 13.481 4.28462 13.4803 4.28462ZM11.5121 6.8077C10.424 6.8077 9.54191 7.65491 9.54191 8.7C9.54191 9.74509 10.424 10.5923 11.5121 10.5923H31.8708C32.9589 10.5923 33.841 9.74509 33.841 8.7C33.841 7.65491 32.9589 6.8077 31.8708 6.8077H11.5121Z" fill="#F07D00"/>
<path fill-rule="evenodd" clip-rule="evenodd" d="M143.363 1.83727C143.659 2.86616 142.945 3.98222 141.767 4.33006C141.752 4.33433 141.738 4.33847 141.723 4.34248V4.34577C138.154 5.41966 135.798 7.2647 135.798 9.36056C135.798 11.4564 138.154 13.3015 141.723 14.3754V14.3769C141.738 14.3809 141.752 14.385 141.767 14.3892C142.945 14.7372 143.659 15.8532 143.363 16.8821C143.067 17.911 141.873 18.4631 140.695 18.1152C140.613 18.0912 140.533 18.0636 140.457 18.0324H140.42C135.295 16.3035 131.848 13.0674 131.848 9.36056C131.848 5.65373 135.295 2.41767 140.42 0.688691H140.453C140.531 0.656892 140.611 0.628601 140.695 0.604116C141.873 0.256278 143.067 0.808382 143.363 1.83727ZM129.872 9.6941C129.872 10.9835 128.841 12.0288 127.568 12.0288C126.295 12.0288 125.263 10.9835 125.263 9.6941C125.263 8.40466 126.295 7.35935 127.568 7.35935C128.841 7.35935 129.872 8.40466 129.872 9.6941ZM113.569 4.37739C112.392 4.02955 111.677 2.91349 111.973 1.8846C112.27 0.855702 113.464 0.3036 114.642 0.651437C114.724 0.675918 114.805 0.704207 114.883 0.736002H114.916C120.04 2.46498 123.489 5.70103 123.489 9.40788C123.489 13.1147 120.04 16.3508 114.916 18.0798H114.879C114.802 18.1109 114.723 18.1386 114.642 18.1626C113.464 18.5103 112.27 17.9582 111.973 16.9294C111.677 15.9004 112.392 14.7845 113.569 14.4366C113.584 14.4324 113.598 14.4281 113.613 14.4242V14.4227C117.183 13.3488 119.538 11.5038 119.538 9.40788C119.538 7.312 117.183 5.46697 113.613 4.39309V4.38981C113.598 4.3858 113.584 4.38166 113.569 4.37739Z" fill="#F07D00"/>
<path fill-rule="evenodd" clip-rule="evenodd" d="M83.6278 0.5H98.3965H103.095H105.781C106.893 0.5 107.795 1.34722 107.795 2.3923C107.795 3.43741 106.893 4.28462 105.781 4.28462H103.095H98.3965H83.6278C81.0326 4.28462 78.9288 6.26145 78.9288 8.7C78.9288 11.1386 81.0326 13.1154 83.6278 13.1154H98.3965H103.095H105.781C106.893 13.1154 107.795 13.9626 107.795 15.0077C107.795 16.0528 106.893 16.9 105.781 16.9H103.095H98.3965H83.6278C78.8081 16.9 74.9009 13.2287 74.9009 8.7C74.9009 4.17127 78.8081 0.5 83.6278 0.5ZM81.6139 8.7C81.6139 7.65491 82.5156 6.8077 83.6278 6.8077H103.767C104.879 6.8077 105.781 7.65491 105.781 8.7C105.781 9.74509 104.879 10.5923 103.767 10.5923H83.6278C82.5156 10.5923 81.6139 9.74509 81.6139 8.7Z" fill="#F07D00"/>
</svg>
