<svg width="80" height="60" viewBox="0 0 80 60" fill="none" xmlns="http://www.w3.org/2000/svg">
<path fill-rule="evenodd" clip-rule="evenodd" d="M69.1665 23.4134H72.6576C74.5823 23.4134 76.1487 24.9797 76.1487 26.9045V59.4877H4V26.9045C4 24.9797 5.56632 23.4134 7.49106 23.4134H10.9821V16.4313H21.6322L38.9106 4.19275H41.238L58.5165 16.4313H69.1665V23.4134ZM40.0743 10.365L59.0553 23.4134H64.3465L40.0743 6.22106L15.8021 23.4134H21.0934L40.0743 10.365ZM40.0743 13.1881L25.2024 23.4134H54.9463L40.0743 13.1881ZM66.8392 22.3265V18.7586H61.8016L66.8392 22.3265ZM13.3095 22.3265L18.3471 18.7586H13.3095V22.3265ZM73.8213 26.9045C73.8213 26.2633 73.2988 25.7408 72.6576 25.7408H7.49106C6.84987 25.7408 6.32738 26.2633 6.32738 26.9045V30.3955H12.1458C12.1458 29.112 13.1896 28.0681 14.4732 28.0681H19.1279C20.4115 28.0681 21.4553 29.112 21.4553 30.3955V31.1019C22.3293 30.6539 23.3161 30.3955 24.3645 30.3955C25.413 30.3955 26.3998 30.6539 27.2738 31.1019V30.3955C27.2738 29.112 28.3176 28.0681 29.6011 28.0681H34.2559C35.5394 28.0681 36.5833 29.112 36.5833 30.3955V31.3404C37.612 30.7435 38.8024 30.3955 40.0743 30.3955C41.3462 30.3955 42.5367 30.7435 43.5654 31.3404V30.3955C43.5654 29.112 44.6092 28.0681 45.8928 28.0681H50.5475C51.8311 28.0681 52.8749 29.112 52.8749 30.3955V31.1019C53.7488 30.6539 54.7356 30.3955 55.7841 30.3955C56.8326 30.3955 57.8194 30.6539 58.6933 31.1019V30.3955C58.6933 29.112 59.7372 28.0681 61.0207 28.0681H65.6755C66.959 28.0681 68.0029 29.112 68.0029 30.3955H73.8213V26.9045ZM61.0207 30.3955V32.7229H65.6766L65.6755 30.3955H61.0207ZM51.7112 36.7958V57.1603H59.857V36.7958C59.857 34.5499 58.03 32.7229 55.7841 32.7229C53.5382 32.7229 51.7112 34.5499 51.7112 36.7958ZM17.9643 35.0503H15.6369V57.1603H17.9643V35.0503ZM14.4732 30.3955V32.7229H19.1291L19.1279 30.3955H14.4732ZM24.3645 32.7229C22.1186 32.7229 20.2916 34.5499 20.2916 36.7958V57.1603H28.4375V36.7958C28.4375 34.5499 26.6105 32.7229 24.3645 32.7229ZM33.0922 35.0503H30.7648V57.1603H33.0922V39.705V37.3776V35.0503ZM29.6011 30.3955V32.7229H34.2571L34.2559 30.3955H29.6011ZM35.4196 37.3776V39.705V57.1603H44.7291V39.705V37.3776C44.7291 34.8105 42.6414 32.7229 40.0743 32.7229C37.5072 32.7229 35.4196 34.8105 35.4196 37.3776ZM47.0565 37.3776V39.705V57.1603H49.3838V35.0503H47.0565V37.3776ZM45.8928 30.3955V32.7229H50.5487L50.5475 30.3955H45.8928ZM12.1458 32.7229H6.32738V57.1603H13.3095V34.7268C12.6171 34.323 12.1458 33.5805 12.1458 32.7229ZM66.8392 54.833V57.1603H73.8213V32.7229H68.0029C68.0029 33.5805 67.5316 34.323 66.8392 34.7268V52.5056H64.5118V35.0503H62.1844V57.1603H64.5118V54.833H66.8392Z" fill="#F07D00"/>
<path d="M46.0569 20.7587H36.7474V23.086H46.0569V20.7587Z" fill="#F07D00"/>
<path d="M34.42 20.7587H32.0927V23.086H34.42V20.7587Z" fill="#F07D00"/>
<rect x="39.0039" y="1" width="2.23428" height="5.21332" rx="1.11714" fill="#F07D00"/>
</svg>
