<svg width="213" height="34" viewBox="0 0 213 34" fill="none" xmlns="http://www.w3.org/2000/svg">
<path d="M0 1.1174H23.7455V7.34275H6.86332V13.8075H21.7733V20.0329H6.86332V26.7371H23.9822V32.9625H0V1.1174Z" fill="#12202B"/>
<path d="M26.5858 1.1174H41.0225C45.0458 1.1174 48.1225 2.23477 50.1736 4.3897C51.9091 6.14557 52.8558 8.69956 52.8558 11.6526V11.7324C52.8558 16.9202 50.0947 20.1127 46.0714 21.6291L53.8025 33.0423H45.6769L38.8925 22.8263H33.4492V33.0423H26.5069L26.5858 1.1174ZM40.5492 16.601C43.9414 16.601 45.8347 14.7653 45.8347 12.1315V11.9719C45.8347 8.939 43.7836 7.42257 40.3914 7.42257H33.528V16.601H40.5492Z" fill="#12202B"/>
<path d="M54.1179 17.08V17.0001C54.1179 7.90155 61.0601 0.479013 70.6846 0.479013C76.3646 0.479013 79.7568 1.99545 83.0701 4.86868L78.7312 10.2161C76.2857 8.14099 74.1557 6.9438 70.5268 6.9438C65.4779 6.9438 61.4546 11.4931 61.4546 16.8405V16.9203C61.4546 22.7466 65.399 27.0565 71.0001 27.0565C73.5246 27.0565 75.7335 26.418 77.5479 25.141V20.5917H70.6057V14.526H84.2535V28.4133C81.019 31.2067 76.5223 33.4415 70.7635 33.4415C60.9024 33.5213 54.1179 26.5776 54.1179 17.08Z" fill="#12202B"/>
<path d="M121.883 1.1174H129.378L137.661 14.5259L145.944 1.1174H153.439V32.9625H146.497V12.1315L137.661 25.7794H137.503L128.668 12.2911V32.9625H121.883V1.1174Z" fill="#12202B"/>
<path d="M157.383 1.1174H181.129V7.34275H164.247V13.8075H179.157V20.0329H164.247V26.7371H181.365V32.9625H157.383V1.1174Z" fill="#12202B"/>
<path d="M183.969 1.1174H196.276C206.216 1.1174 213 7.98125 213 17V17.0798C213 26.0188 206.137 33.0423 196.276 33.0423H183.969V1.1174ZM190.911 7.42257V26.6573H196.276C201.956 26.6573 205.742 22.7465 205.742 17.1597V17.0798C205.742 11.4132 201.877 7.50238 196.276 7.50238H190.911V7.42257Z" fill="#12202B"/>
<path d="M107.683 8.9391C108.63 9.5776 109.419 10.2959 110.129 11.2537L116.519 7.50248C115.178 5.50717 113.442 3.75131 111.391 2.47431L107.683 8.9391Z" fill="#12202B"/>
<path d="M112.101 17.4789C111.865 22.5869 107.684 26.6573 102.635 26.6573C97.3492 26.6573 93.0892 22.3474 93.0892 17C93.0892 12.0516 96.7181 8.06103 101.451 7.42254V0C92.6948 0.638498 85.7525 7.98122 85.7525 17C85.7525 26.4178 93.3259 34 102.556 34C111.707 34 119.122 26.5775 119.359 17.3991H112.101V17.4789Z" fill="#12202B"/>
<path d="M117.386 8.93878L111.075 12.6101C111.549 13.5679 111.943 14.6853 112.022 15.8026H119.359C119.201 13.3284 118.491 11.0139 117.386 8.93878Z" fill="#12202B"/>
<path d="M109.971 1.67606C107.841 0.638498 105.553 0 103.029 0V7.42254C104.212 7.50235 105.317 7.74178 106.263 8.14085L109.971 1.67606Z" fill="#12202B"/>
</svg>
